Habibi.ufo
<glyph name="exclam" format="1">
  <advance width="512"/>
  <unicode hex="0021"/>
  <outline>
    <contour>
      <point x="210" y="389" type="curve" name="hr00"/>
      <point x="288" y="389" type="line"/>
      <point x="302" y="827"/>
      <point x="338" y="923"/>
      <point x="338" y="1592" type="curve" smooth="yes"/>
      <point x="338" y="1592"/>
      <point x="297" y="1601"/>
      <point x="243" y="1601" type="curve" smooth="yes"/>
      <point x="217" y="1601"/>
      <point x="187" y="1599"/>
      <point x="156" y="1592" type="curve"/>
      <point x="156" y="980"/>
      <point x="192" y="825"/>
    </contour>
    <contour>
      <point x="127" y="103" type="curve" smooth="yes"/>
      <point x="127" y="49"/>
      <point x="212" y="-23"/>
      <point x="255" y="-23" type="curve" smooth="yes"/>
      <point x="307" y="-23"/>
      <point x="385" y="52"/>
      <point x="385" y="103" type="curve" smooth="yes"/>
      <point x="385" y="155"/>
      <point x="309" y="233"/>
      <point x="255" y="233" type="curve" smooth="yes"/>
      <point x="203" y="233"/>
      <point x="127" y="151"/>
    </contour>
  </outline>
</glyph>
<glyph name="quotedbl" format="1">
  <advance width="853"/>
  <unicode hex="0022"/>
  <outline>
    <contour>
      <point x="172" y="1508" type="line" name="hr00"/>
      <point x="202" y="1107" type="line"/>
      <point x="312" y="1107" type="line"/>
      <point x="341" y="1508" type="line"/>
    </contour>
    <contour>
      <point x="512" y="1508" type="line"/>
      <point x="542" y="1107" type="line"/>
      <point x="652" y="1107" type="line"/>
      <point x="681" y="1508" type="line"/>
    </contour>
  </outline>
</glyph>
<glyph name="numbersign" format="1">
  <advance width="1540"/>
  <unicode hex="0023"/>
  <outline>
    <contour>
      <point x="807" y="0" type="line" name="hr00"/>
      <point x="922" y="-23" type="line"/>
      <point x="1026" y="483" type="line"/>
      <point x="1344" y="483" type="line"/>
      <point x="1344" y="589" type="line"/>
      <point x="1047" y="589" type="line"/>
      <point x="1122" y="953" type="line"/>
      <point x="1414" y="953" type="line"/>
      <point x="1414" y="1060" type="line"/>
      <point x="1144" y="1060" type="line"/>
      <point x="1236" y="1508" type="line"/>
      <point x="1120" y="1531" type="line"/>
      <point x="1023" y="1060" type="line"/>
      <point x="612" y="1060" type="line"/>
      <point x="704" y="1508" type="line"/>
      <point x="587" y="1531" type="line"/>
      <point x="491" y="1060" type="line"/>
      <point x="196" y="1060" type="line"/>
      <point x="196" y="953" type="line"/>
      <point x="470" y="953" type="line"/>
      <point x="394" y="589" type="line"/>
      <point x="126" y="589" type="line"/>
      <point x="126" y="483" type="line"/>
      <point x="374" y="483" type="line"/>
      <point x="275" y="0" type="line"/>
      <point x="390" y="-23" type="line"/>
      <point x="493" y="483" type="line"/>
      <point x="906" y="483" type="line"/>
    </contour>
    <contour>
      <point x="590" y="953" type="line"/>
      <point x="1003" y="953" type="line"/>
      <point x="927" y="589" type="line"/>
      <point x="515" y="589" type="line"/>
    </contour>
  </outline>
</glyph>
<glyph name="dollar" format="1">
  <advance width="1196"/>
  <unicode hex="0024"/>
  <outline>
    <contour>
      <point x="575" y="94" type="curve" smooth="yes" name="hr01"/>
      <point x="267" y="94"/>
      <point x="226" y="290"/>
      <point x="226" y="438" type="curve"/>
      <point x="139" y="438" type="line"/>
      <point x="97" y="153" type="line"/>
      <point x="97" y="153"/>
      <point x="262" y="-5"/>
      <point x="544" y="-21" type="curve" name="hr02"/>
      <point x="544" y="-182" type="line" name="hr03"/>
      <point x="649" y="-182" type="line"/>
      <point x="649" y="-18" type="line" name="hr04"/>
      <point x="853" y="11"/>
      <point x="1098" y="144"/>
      <point x="1098" y="393" type="curve" smooth="yes"/>
      <point x="1098" y="562"/>
      <point x="1022" y="692"/>
      <point x="714" y="848" type="curve" smooth="yes"/>
      <point x="398" y="1005"/>
      <point x="341" y="1060"/>
      <point x="341" y="1187" type="curve" smooth="yes"/>
      <point x="341" y="1333"/>
      <point x="462" y="1404"/>
      <point x="617" y="1404" type="curve" smooth="yes"/>
      <point x="806" y="1404"/>
      <point x="867" y="1321"/>
      <point x="867" y="1140" type="curve"/>
      <point x="952" y="1140" type="line"/>
      <point x="987" y="1404" type="line"/>
      <point x="987" y="1404"/>
      <point x="867" y="1498"/>
      <point x="676" y="1519" type="curve" name="hr05"/>
      <point x="676" y="1663" type="line"/>
      <point x="570" y="1663" type="line"/>
      <point x="570" y="1524" type="line"/>
      <point x="344" y="1512"/>
      <point x="153" y="1368"/>
      <point x="153" y="1147" type="curve" smooth="yes"/>
      <point x="153" y="966"/>
      <point x="233" y="854"/>
      <point x="580" y="683" type="curve" smooth="yes"/>
      <point x="838" y="555"/>
      <point x="907" y="483"/>
      <point x="907" y="344" type="curve" smooth="yes"/>
      <point x="907" y="202"/>
      <point x="764" y="94"/>
    </contour>
  </outline>
</glyph>
<glyph name="percent" format="1">
  <advance width="1877"/>
  <unicode hex="0025"/>
  <outline>
    <contour>
      <point x="258" y="108" type="line" name="hr00"/>
      <point x="338" y="40" type="line"/>
      <point x="1634" y="1526" type="line"/>
      <point x="1556" y="1594" type="line"/>
    </contour>
    <contour>
      <point x="177" y="1220" type="curve" smooth="yes"/>
      <point x="177" y="1005"/>
      <point x="315" y="838"/>
      <point x="520" y="838" type="curve" smooth="yes"/>
      <point x="688" y="838"/>
      <point x="856" y="999"/>
      <point x="856" y="1249" type="curve" smooth="yes"/>
      <point x="856" y="1464"/>
      <point x="720" y="1625"/>
      <point x="515" y="1625" type="curve" smooth="yes"/>
      <point x="344" y="1625"/>
      <point x="177" y="1469"/>
    </contour>
    <contour>
      <point x="313" y="1247" type="curve" smooth="yes"/>
      <point x="313" y="1413"/>
      <point x="384" y="1544"/>
      <point x="513" y="1544" type="curve" smooth="yes"/>
      <point x="673" y="1544"/>
      <point x="720" y="1372"/>
      <point x="720" y="1204" type="curve" smooth="yes"/>
      <point x="720" y="1032"/>
      <point x="647" y="919"/>
      <point x="517" y="919" type="curve" smooth="yes"/>
      <point x="372" y="919"/>
      <point x="313" y="1077"/>
    </contour>
    <contour>
      <point x="1021" y="380" type="curve" smooth="yes"/>
      <point x="1021" y="165"/>
      <point x="1159" y="-2"/>
      <point x="1364" y="-2" type="curve" smooth="yes"/>
      <point x="1532" y="-2"/>
      <point x="1700" y="159"/>
      <point x="1700" y="409" type="curve" smooth="yes"/>
      <point x="1700" y="624"/>
      <point x="1564" y="785"/>
      <point x="1359" y="785" type="curve" smooth="yes"/>
      <point x="1188" y="785"/>
      <point x="1021" y="629"/>
    </contour>
    <contour>
      <point x="1157" y="407" type="curve" smooth="yes"/>
      <point x="1157" y="573"/>
      <point x="1228" y="704"/>
      <point x="1357" y="704" type="curve" smooth="yes"/>
      <point x="1517" y="704"/>
      <point x="1564" y="532"/>
      <point x="1564" y="364" type="curve" smooth="yes"/>
      <point x="1564" y="192"/>
      <point x="1491" y="79"/>
      <point x="1361" y="79" type="curve" smooth="yes"/>
      <point x="1216" y="79"/>
      <point x="1157" y="237"/>
    </contour>
  </outline>
</glyph>
<glyph name="ampersand" format="1">
  <advance width="1366"/>
  <unicode hex="0026"/>
  <outline>
    <contour>
      <point x="409" y="1121" type="curve" smooth="yes" name="hr01"/>
      <point x="409" y="1250"/>
      <point x="504" y="1344"/>
      <point x="634" y="1344" type="curve" smooth="yes"/>
      <point x="805" y="1344"/>
      <point x="857" y="1232"/>
      <point x="857" y="1079" type="curve"/>
      <point x="937" y="1079" type="line"/>
      <point x="973" y="1378" type="line"/>
      <point x="973" y="1378"/>
      <point x="860" y="1456"/>
      <point x="629" y="1456" type="curve" smooth="yes"/>
      <point x="420" y="1456"/>
      <point x="233" y="1328"/>
      <point x="233" y="1110" type="curve" smooth="yes"/>
      <point x="233" y="984"/>
      <point x="310" y="869"/>
      <point x="409" y="753" type="curve"/>
      <point x="271" y="701"/>
      <point x="122" y="570"/>
      <point x="122" y="365" type="curve" smooth="yes" name="hr02"/>
      <point x="122" y="117"/>
      <point x="315" y="-23"/>
      <point x="591" y="-23" type="curve" smooth="yes"/>
      <point x="811" y="-23"/>
      <point x="953" y="113"/>
      <point x="998" y="162" type="curve"/>
      <point x="1130" y="54"/>
      <point x="1209" y="-23"/>
      <point x="1324" y="-23" type="curve" smooth="yes" name="hr03"/>
      <point x="1447" y="-23"/>
      <point x="1583" y="113"/>
      <point x="1583" y="113" type="curve"/>
      <point x="1522" y="177" type="line"/>
      <point x="1522" y="177"/>
      <point x="1461" y="136"/>
      <point x="1385" y="136" type="curve" smooth="yes"/>
      <point x="1222" y="136"/>
      <point x="934" y="458"/>
      <point x="701" y="701" type="curve" smooth="yes"/>
      <point x="556" y="853"/>
      <point x="409" y="1003"/>
    </contour>
    <contour>
      <point x="643" y="511" type="line"/>
      <point x="733" y="412"/>
      <point x="834" y="308"/>
      <point x="933" y="218" type="curve"/>
      <point x="879" y="172"/>
      <point x="770" y="94"/>
      <point x="638" y="94" type="curve" smooth="yes" name="hr05"/>
      <point x="409" y="94"/>
      <point x="315" y="240"/>
      <point x="315" y="389" type="curve" smooth="yes"/>
      <point x="315" y="523"/>
      <point x="384" y="624"/>
      <point x="483" y="676" type="curve"/>
      <point x="483" y="678" type="line"/>
    </contour>
  </outline>
</glyph>
<glyph name="quotesingle" format="1">
  <advance width="512"/>
  <unicode hex="0027"/>
  <outline>
    <contour>
      <point x="170" y="1508" type="line" name="hr00"/>
      <point x="200" y="1107" type="line"/>
      <point x="310" y="1107" type="line"/>
      <point x="339" y="1508" type="line"/>
    </contour>
  </outline>
</glyph>
<glyph name="parenleft" format="1">
  <advance width="853"/>
  <unicode hex="0028"/>
  <outline>
    <contour>
      <point x="667" y="1644" type="line" name="hr00"/>
      <point x="667" y="1644"/>
      <point x="156" y="1344"/>
      <point x="156" y="577" type="curve" smooth="yes"/>
      <point x="156" y="-191"/>
      <point x="667" y="-560"/>
      <point x="667" y="-560" type="curve"/>
      <point x="697" y="-520" type="line"/>
      <point x="697" y="-520"/>
      <point x="333" y="-144"/>
      <point x="333" y="577" type="curve" smooth="yes"/>
      <point x="333" y="1297"/>
      <point x="697" y="1603"/>
      <point x="697" y="1603" type="curve"/>
    </contour>
  </outline>
</glyph>
<glyph name="asterisk" format="1">
  <advance width="852"/>
  <unicode hex="002A"/>
  <outline>
    <contour>
      <point x="470" y="1463" type="line" name="hr00"/>
      <point x="484" y="1766" type="line"/>
      <point x="367" y="1766" type="line"/>
      <point x="381" y="1463" type="line"/>
      <point x="129" y="1630" type="line"/>
      <point x="70" y="1526" type="line"/>
      <point x="336" y="1389" type="line"/>
      <point x="70" y="1253" type="line"/>
      <point x="129" y="1149" type="line"/>
      <point x="381" y="1314" type="line"/>
      <point x="367" y="1013" type="line"/>
      <point x="484" y="1013" type="line"/>
      <point x="470" y="1314" type="line"/>
      <point x="722" y="1149" type="line"/>
      <point x="781" y="1253" type="line"/>
      <point x="513" y="1389" type="line"/>
      <point x="781" y="1526" type="line"/>
      <point x="722" y="1630" type="line"/>
    </contour>
  </outline>
</glyph>
<glyph name="plus" format="1">
  <advance width="1362"/>
  <unicode hex="002B"/>
  <outline>
    <contour>
      <point x="629" y="1288" type="line" name="hr00"/>
      <point x="629" y="813" type="line"/>
      <point x="139" y="813" type="line"/>
      <point x="139" y="706" type="line"/>
      <point x="629" y="706" type="line"/>
      <point x="629" y="205" type="line"/>
      <point x="735" y="205" type="line"/>
      <point x="735" y="706" type="line"/>
      <point x="1223" y="706" type="line"/>
      <point x="1223" y="813" type="line"/>
      <point x="735" y="813" type="line"/>
      <point x="735" y="1288" type="line"/>
    </contour>
  </outline>
</glyph>
<glyph name="comma" format="1">
  <advance width="512"/>
  <unicode hex="002C"/>
  <outline>
    <contour>
      <point x="274" y="-33" type="curve" smooth="yes" name="hr00"/>
      <point x="274" y="-198"/>
      <point x="97" y="-278"/>
      <point x="97" y="-278" type="curve"/>
      <point x="128" y="-332" type="line"/>
      <point x="128" y="-332"/>
      <point x="415" y="-218"/>
      <point x="415" y="103" type="curve" smooth="yes"/>
      <point x="415" y="158"/>
      <point x="342" y="233"/>
      <point x="290" y="233" type="curve" smooth="yes"/>
      <point x="227" y="233"/>
      <point x="158" y="144"/>
      <point x="158" y="103" type="curve" smooth="yes"/>
      <point x="158" y="43"/>
      <point x="274" y="40"/>
    </contour>
  </outline>
</glyph>
<glyph name="hyphen" format="1">
  <advance width="854"/>
  <unicode hex="002D"/>
  <outline>
    <contour>
      <point x="174" y="530" type="line" name="hr00"/>
      <point x="680" y="530" type="line"/>
      <point x="680" y="660" type="line"/>
      <point x="175" y="660" type="line"/>
    </contour>
  </outline>
</glyph>
<glyph name="period" format="1">
  <advance width="512"/>
  <unicode hex="002E"/>
  <outline>
    <contour>
      <point x="127" y="103" type="curve" smooth="yes" name="hr00"/>
      <point x="127" y="49"/>
      <point x="212" y="-23"/>
      <point x="255" y="-23" type="curve" smooth="yes"/>
      <point x="307" y="-23"/>
      <point x="384" y="52"/>
      <point x="384" y="103" type="curve" smooth="yes"/>
      <point x="384" y="155"/>
      <point x="309" y="233"/>
      <point x="255" y="233" type="curve" smooth="yes"/>
      <point x="202" y="233"/>
      <point x="127" y="151"/>
    </contour>
  </outline>
</glyph>
<glyph name="slash" format="1">
  <advance width="1197"/>
  <unicode hex="002F"/>
  <outline>
    <contour>
      <point x="73" y="-389" type="line" name="hr00"/>
      <point x="168" y="-431" type="line"/>
      <point x="1123" y="1627" type="line"/>
      <point x="1029" y="1672" type="line"/>
    </contour>
  </outline>
</glyph>
<glyph name="zero" format="1">
  <advance width="1366"/>
  <unicode hex="0030"/>
  <outline>
    <contour>
      <point x="150" y="476" type="curve" smooth="yes" name="hr00"/>
      <point x="150" y="189"/>
      <point x="395" y="-23"/>
      <point x="687" y="-23" type="curve" smooth="yes"/>
      <point x="947" y="-23"/>
      <point x="1215" y="202"/>
      <point x="1215" y="519" type="curve" smooth="yes"/>
      <point x="1215" y="827"/>
      <point x="980" y="1013"/>
      <point x="678" y="1013" type="curve" smooth="yes"/>
      <point x="429" y="1013"/>
      <point x="150" y="780"/>
    </contour>
    <contour>
      <point x="318" y="516" type="curve" smooth="yes"/>
      <point x="318" y="746"/>
      <point x="471" y="895"/>
      <point x="676" y="895" type="curve" smooth="yes"/>
      <point x="912" y="895"/>
      <point x="1049" y="681"/>
      <point x="1049" y="459" type="curve" smooth="yes"/>
      <point x="1049" y="229"/>
      <point x="878" y="94"/>
      <point x="685" y="94" type="curve" smooth="yes"/>
      <point x="471" y="94"/>
      <point x="318" y="292"/>
    </contour>
  </outline>
</glyph>
<glyph name="one" format="1">
  <advance width="855"/>
  <unicode hex="0031"/>
  <outline>
    <contour>
      <point x="194" y="989" type="line" name="hr01"/>
      <point x="194" y="906" type="line"/>
      <point x="347" y="883" type="line"/>
      <point x="347" y="106" type="line" name="hr02"/>
      <point x="194" y="83" type="line" name="hr03"/>
      <point x="194" y="0" type="line"/>
      <point x="660" y="0" type="line"/>
      <point x="660" y="83" type="line"/>
      <point x="509" y="106" type="line" name="hr04"/>
      <point x="509" y="883" type="line"/>
      <point x="660" y="906" type="line"/>
      <point x="660" y="989" type="line"/>
    </contour>
  </outline>
</glyph>
<glyph name="two" format="1">
  <advance width="1195"/>
  <unicode hex="0032"/>
  <outline>
    <contour>
      <point x="940" y="735" type="curve" smooth="yes" name="hr00"/>
      <point x="940" y="892"/>
      <point x="820" y="1011"/>
      <point x="582" y="1011" type="curve" smooth="yes"/>
      <point x="384" y="1011"/>
      <point x="239" y="884"/>
      <point x="194" y="822" type="curve"/>
      <point x="261" y="753" type="line"/>
      <point x="305" y="803"/>
      <point x="426" y="892"/>
      <point x="554" y="892" type="curve" smooth="yes"/>
      <point x="694" y="892"/>
      <point x="769" y="815"/>
      <point x="769" y="697" type="curve" smooth="yes"/>
      <point x="769" y="575"/>
      <point x="602" y="443"/>
      <point x="494" y="362" type="curve"/>
      <point x="153" y="85" type="line"/>
      <point x="153" y="0" type="line"/>
      <point x="992" y="0" type="line"/>
      <point x="1042" y="256" type="line"/>
      <point x="959" y="256" type="line"/>
      <point x="900" y="153" type="line"/>
      <point x="366" y="123" type="line"/>
      <point x="719" y="400" type="line"/>
      <point x="865" y="513"/>
      <point x="940" y="591"/>
    </contour>
  </outline>
</glyph>
<glyph name="three" format="1">
  <advance width="1195"/>
  <unicode hex="0033"/>
  <outline>
    <contour>
      <point x="581" y="1015" type="curve" smooth="yes" name="hr01"/>
      <point x="374" y="1015"/>
      <point x="207" y="901"/>
      <point x="157" y="828" type="curve"/>
      <point x="227" y="755" type="line"/>
      <point x="279" y="812"/>
      <point x="395" y="893"/>
      <point x="541" y="893" type="curve" smooth="yes"/>
      <point x="676" y="893"/>
      <point x="774" y="796"/>
      <point x="774" y="667" type="curve" smooth="yes"/>
      <point x="774" y="566"/>
      <point x="729" y="400"/>
      <point x="418" y="360" type="curve"/>
      <point x="459" y="260" type="line"/>
      <point x="487" y="267"/>
      <point x="537" y="270"/>
      <point x="562" y="270" type="curve" smooth="yes"/>
      <point x="713" y="270"/>
      <point x="863" y="160"/>
      <point x="863" y="-16" type="curve" smooth="yes" name="hr02"/>
      <point x="863" y="-293"/>
      <point x="543" y="-463"/>
      <point x="203" y="-451" type="curve"/>
      <point x="223" y="-559" type="line"/>
      <point x="777" y="-562"/>
      <point x="1038" y="-285"/>
      <point x="1038" y="-11" type="curve" smooth="yes"/>
      <point x="1038" y="200"/>
      <point x="917" y="319"/>
      <point x="715" y="342" type="curve"/>
      <point x="859" y="402"/>
      <point x="948" y="562"/>
      <point x="948" y="692" type="curve" smooth="yes" name="hr03"/>
      <point x="948" y="828"/>
      <point x="853" y="1015"/>
    </contour>
  </outline>
</glyph>
<glyph name="four" format="1">
  <advance width="1365"/>
  <unicode hex="0034"/>
  <outline>
    <contour>
      <point x="135" y="106" type="line" name="hr00"/>
      <point x="174" y="0" type="line"/>
      <point x="834" y="0" type="line"/>
      <point x="834" y="-431" type="line"/>
      <point x="998" y="-431" type="line"/>
      <point x="998" y="0" type="line"/>
      <point x="1230" y="0" type="line"/>
      <point x="1230" y="130" type="line"/>
      <point x="998" y="130" type="line"/>
      <point x="998" y="973" type="line"/>
      <point x="924" y="989" type="line"/>
    </contour>
    <contour>
      <point x="302" y="130" type="line"/>
      <point x="834" y="719" type="line"/>
      <point x="834" y="130" type="line"/>
    </contour>
  </outline>
</glyph>
<glyph name="five" format="1">
  <advance width="1194"/>
  <unicode hex="0035"/>
  <outline>
    <contour>
      <point x="248" y="310" type="line" name="hr00"/>
      <point x="617" y="340"/>
      <point x="829" y="189"/>
      <point x="829" y="-4" type="curve" smooth="yes"/>
      <point x="829" y="-299"/>
      <point x="587" y="-458"/>
      <point x="190" y="-458" type="curve"/>
      <point x="210" y="-559" type="line"/>
      <point x="765" y="-562"/>
      <point x="1004" y="-289"/>
      <point x="1004" y="-10" type="curve" smooth="yes"/>
      <point x="1004" y="336"/>
      <point x="702" y="490"/>
      <point x="361" y="471" type="curve"/>
      <point x="405" y="836" type="line"/>
      <point x="910" y="836" type="line"/>
      <point x="937" y="1076" type="line"/>
      <point x="844" y="1076" type="line"/>
      <point x="809" y="989" type="line"/>
      <point x="330" y="989" type="line"/>
    </contour>
  </outline>
</glyph>
<glyph name="six" format="1">
  <advance width="1366"/>
  <unicode hex="0036"/>
  <outline>
    <contour>
      <point x="1097" y="1569" type="line" name="hr00"/>
      <point x="641" y="1493"/>
      <point x="159" y="1075"/>
      <point x="159" y="538" type="curve" smooth="yes"/>
      <point x="159" y="221"/>
      <point x="359" y="-23"/>
      <point x="688" y="-23" type="curve" smooth="yes"/>
      <point x="979" y="-23"/>
      <point x="1206" y="234"/>
      <point x="1206" y="538" type="curve" smooth="yes"/>
      <point x="1206" y="858"/>
      <point x="1009" y="1023"/>
      <point x="757" y="1023" type="curve" smooth="yes"/>
      <point x="667" y="1023"/>
      <point x="526" y="989"/>
      <point x="438" y="902" type="curve"/>
      <point x="534" y="1130"/>
      <point x="817" y="1406"/>
      <point x="1131" y="1463" type="curve"/>
    </contour>
    <contour>
      <point x="380" y="706" type="curve"/>
      <point x="428" y="831"/>
      <point x="559" y="905"/>
      <point x="704" y="905" type="curve" smooth="yes"/>
      <point x="937" y="905"/>
      <point x="1017" y="733"/>
      <point x="1017" y="469" type="curve" smooth="yes"/>
      <point x="1017" y="276"/>
      <point x="907" y="94"/>
      <point x="686" y="94" type="curve" smooth="yes"/>
      <point x="441" y="94"/>
      <point x="356" y="327"/>
      <point x="356" y="566" type="curve" smooth="yes"/>
      <point x="356" y="624"/>
      <point x="380" y="706"/>
    </contour>
  </outline>
</glyph>
<glyph name="seven" format="1">
  <advance width="1365"/>
  <unicode hex="0037"/>
  <outline>
    <contour>
      <point x="201" y="989" type="line" name="hr00"/>
      <point x="186" y="659" type="line"/>
      <point x="286" y="659" type="line"/>
      <point x="335" y="831" type="line"/>
      <point x="1031" y="831" type="line"/>
      <point x="355" y="-476" type="line"/>
      <point x="518" y="-560" type="line"/>
      <point x="518" y="-560"/>
      <point x="694" y="-146"/>
      <point x="904" y="268" type="curve"/>
      <point x="1179" y="841" type="line"/>
      <point x="1145" y="989" type="line"/>
    </contour>
  </outline>
</glyph>
<glyph name="eight" format="1">
  <advance width="1365"/>
  <unicode hex="0038"/>
  <outline>
    <contour>
      <point x="425" y="1216" type="curve" smooth="yes" name="hr01"/>
      <point x="425" y="1348"/>
      <point x="543" y="1416"/>
      <point x="687" y="1416" type="curve" smooth="yes"/>
      <point x="811" y="1416"/>
      <point x="952" y="1357"/>
      <point x="952" y="1198" type="curve" smooth="yes" name="hr02"/>
      <point x="952" y="1012"/>
      <point x="815" y="953"/>
      <point x="698" y="877" type="curve"/>
      <point x="792" y="813" type="line"/>
      <point x="928" y="894"/>
      <point x="1098" y="1023"/>
      <point x="1098" y="1194" type="curve" smooth="yes"/>
      <point x="1098" y="1357"/>
      <point x="982" y="1524"/>
      <point x="677" y="1524" type="curve" smooth="yes"/>
      <point x="453" y="1524"/>
      <point x="257" y="1380"/>
      <point x="257" y="1166" type="curve" smooth="yes"/>
      <point x="257" y="792"/>
      <point x="974" y="666"/>
      <point x="974" y="332" type="curve" smooth="yes" name="hr03"/>
      <point x="974" y="229"/>
      <point x="888" y="83"/>
      <point x="677" y="83" type="curve" smooth="yes"/>
      <point x="465" y="83"/>
      <point x="363" y="238"/>
      <point x="363" y="360" type="curve" smooth="yes" name="hr04"/>
      <point x="363" y="575"/>
      <point x="531" y="667"/>
      <point x="672" y="741" type="curve"/>
      <point x="595" y="822" type="line"/>
      <point x="433" y="735"/>
      <point x="205" y="613"/>
      <point x="205" y="360" type="curve" smooth="yes"/>
      <point x="205" y="144"/>
      <point x="370" y="-23"/>
      <point x="667" y="-23" type="curve" smooth="yes"/>
      <point x="1074" y="-23"/>
      <point x="1160" y="247"/>
      <point x="1160" y="360" type="curve" smooth="yes"/>
      <point x="1160" y="780"/>
      <point x="425" y="903"/>
    </contour>
  </outline>
</glyph>
<glyph name="nine" format="1">
  <advance width="1365"/>
  <unicode hex="0039"/>
  <outline>
    <contour>
      <point x="368" y="-560" type="line" name="hr00"/>
      <point x="824" y="-484"/>
      <point x="1206" y="-85"/>
      <point x="1206" y="452" type="curve" smooth="yes"/>
      <point x="1206" y="769"/>
      <point x="1006" y="1013"/>
      <point x="677" y="1013" type="curve" smooth="yes"/>
      <point x="386" y="1013"/>
      <point x="159" y="766"/>
      <point x="159" y="462" type="curve" smooth="yes"/>
      <point x="159" y="142"/>
      <point x="356" y="-33"/>
      <point x="608" y="-33" type="curve" smooth="yes"/>
      <point x="698" y="-33"/>
      <point x="849" y="1"/>
      <point x="937" y="88" type="curve"/>
      <point x="841" y="-190"/>
      <point x="648" y="-397"/>
      <point x="334" y="-454" type="curve"/>
    </contour>
    <contour>
      <point x="1003" y="284" type="curve"/>
      <point x="955" y="159"/>
      <point x="806" y="85"/>
      <point x="661" y="85" type="curve" smooth="yes"/>
      <point x="428" y="85"/>
      <point x="330" y="267"/>
      <point x="330" y="531" type="curve" smooth="yes"/>
      <point x="330" y="724"/>
      <point x="458" y="896"/>
      <point x="679" y="896" type="curve" smooth="yes"/>
      <point x="924" y="896"/>
      <point x="1027" y="663"/>
      <point x="1027" y="424" type="curve" smooth="yes"/>
      <point x="1027" y="366"/>
      <point x="1003" y="284"/>
    </contour>
  </outline>
</glyph>
<glyph name="colon" format="1">
  <advance width="512"/>
  <unicode hex="003A"/>
  <outline>
    <contour>
      <point x="127" y="103" type="curve" smooth="yes" name="hr01"/>
      <point x="127" y="49"/>
      <point x="212" y="-23"/>
      <point x="255" y="-23" type="curve" smooth="yes"/>
      <point x="307" y="-23"/>
      <point x="384" y="52"/>
      <point x="384" y="103" type="curve" smooth="yes"/>
      <point x="384" y="155"/>
      <point x="309" y="233"/>
      <point x="255" y="233" type="curve" smooth="yes"/>
      <point x="202" y="233"/>
      <point x="127" y="151"/>
    </contour>
    <contour>
      <point x="127" y="883" type="curve" smooth="yes"/>
      <point x="127" y="829"/>
      <point x="212" y="756"/>
      <point x="255" y="756" type="curve" smooth="yes"/>
      <point x="307" y="756"/>
      <point x="384" y="831"/>
      <point x="384" y="883" type="curve" smooth="yes"/>
      <point x="384" y="935"/>
      <point x="309" y="1013"/>
      <point x="255" y="1013" type="curve" smooth="yes"/>
      <point x="202" y="1013"/>
      <point x="127" y="930"/>
    </contour>
  </outline>
</glyph>
<glyph name="semicolon" format="1">
  <advance width="512"/>
  <unicode hex="003B"/>
  <outline>
    <contour>
      <point x="158" y="883" type="curve" smooth="yes" name="hr01"/>
      <point x="158" y="829"/>
      <point x="243" y="756"/>
      <point x="286" y="756" type="curve" smooth="yes"/>
      <point x="338" y="756"/>
      <point x="415" y="831"/>
      <point x="415" y="883" type="curve" smooth="yes"/>
      <point x="415" y="935"/>
      <point x="340" y="1013"/>
      <point x="286" y="1013" type="curve" smooth="yes"/>
      <point x="234" y="1013"/>
      <point x="158" y="930"/>
    </contour>
    <contour>
      <point x="274" y="-56" type="curve" smooth="yes" name="hr02"/>
      <point x="274" y="-222"/>
      <point x="97" y="-301"/>
      <point x="97" y="-301" type="curve"/>
      <point x="128" y="-355" type="line"/>
      <point x="128" y="-355"/>
      <point x="415" y="-243"/>
      <point x="415" y="80" type="curve" smooth="yes"/>
      <point x="415" y="135"/>
      <point x="342" y="209"/>
      <point x="290" y="209" type="curve" smooth="yes"/>
      <point x="227" y="209"/>
      <point x="158" y="120"/>
      <point x="158" y="80" type="curve" smooth="yes"/>
      <point x="158" y="18"/>
      <point x="274" y="16"/>
    </contour>
  </outline>
</glyph>
<glyph name="less" format="1">
  <advance width="1198"/>
  <unicode hex="003C"/>
  <outline>
    <contour>
      <point x="1072" y="1204" type="line" name="hr00"/>
      <point x="1015" y="1293" type="line"/>
      <point x="137" y="692" type="line"/>
      <point x="137" y="645" type="line"/>
      <point x="1015" y="45" type="line"/>
      <point x="1072" y="135" type="line"/>
      <point x="278" y="669" type="line"/>
    </contour>
  </outline>
</glyph>
<glyph name="equal" format="1">
  <advance width="1362"/>
  <unicode hex="003D"/>
  <outline>
    <contour>
      <point x="139" y="612" type="line" name="hr00"/>
      <point x="139" y="506" type="line"/>
      <point x="1223" y="506" type="line"/>
      <point x="1223" y="612" type="line"/>
    </contour>
    <contour>
      <point x="139" y="1013" type="line"/>
      <point x="139" y="906" type="line"/>
      <point x="1223" y="906" type="line"/>
      <point x="1223" y="1013" type="line"/>
    </contour>
  </outline>
</glyph>
<glyph name="greater" format="1">
  <advance width="1198"/>
  <unicode hex="003E"/>
  <outline>
    <contour>
      <point x="919" y="669" type="line" name="hr00"/>
      <point x="126" y="135" type="line"/>
      <point x="182" y="45" type="line"/>
      <point x="1061" y="645" type="line"/>
      <point x="1061" y="692" type="line"/>
      <point x="182" y="1293" type="line"/>
      <point x="126" y="1204" type="line"/>
    </contour>
  </outline>
</glyph>
<glyph name="question" format="1">
  <advance width="1025"/>
  <unicode hex="003F"/>
  <outline>
    <contour>
      <point x="506" y="353" type="line" name="hr01"/>
      <point x="506" y="353"/>
      <point x="492" y="398"/>
      <point x="492" y="494" type="curve" smooth="yes"/>
      <point x="492" y="580"/>
      <point x="508" y="669"/>
      <point x="654" y="766" type="curve" smooth="yes"/>
      <point x="850" y="895"/>
      <point x="937" y="1013"/>
      <point x="937" y="1157" type="curve" smooth="yes"/>
      <point x="937" y="1413"/>
      <point x="746" y="1531"/>
      <point x="479" y="1531" type="curve" smooth="yes"/>
      <point x="211" y="1531"/>
      <point x="88" y="1449"/>
      <point x="88" y="1449" type="curve"/>
      <point x="126" y="1133" type="line"/>
      <point x="214" y="1133" type="line"/>
      <point x="214" y="1299"/>
      <point x="239" y="1425"/>
      <point x="459" y="1425" type="curve" smooth="yes"/>
      <point x="643" y="1425"/>
      <point x="741" y="1344"/>
      <point x="741" y="1164" type="curve" smooth="yes"/>
      <point x="741" y="1029"/>
      <point x="699" y="980"/>
      <point x="553" y="867" type="curve" smooth="yes"/>
      <point x="398" y="746"/>
      <point x="355" y="643"/>
      <point x="355" y="511" type="curve" smooth="yes"/>
      <point x="355" y="436"/>
      <point x="387" y="335"/>
      <point x="387" y="335" type="curve"/>
    </contour>
    <contour>
      <point x="322" y="103" type="curve" smooth="yes" name="hr02"/>
      <point x="322" y="49"/>
      <point x="407" y="-23"/>
      <point x="449" y="-23" type="curve" smooth="yes"/>
      <point x="501" y="-23"/>
      <point x="578" y="52"/>
      <point x="578" y="103" type="curve" smooth="yes"/>
      <point x="578" y="155"/>
      <point x="503" y="233"/>
      <point x="449" y="233" type="curve" smooth="yes"/>
      <point x="398" y="233"/>
      <point x="322" y="151"/>
    </contour>
  </outline>
</glyph>
<glyph name="at" format="1">
  <advance width="1707"/>
  <unicode hex="0040"/>
  <outline>
    <contour>
      <point x="1150" y="171" type="curve" smooth="yes" name="hr01"/>
      <point x="1424" y="171"/>
      <point x="1613" y="476"/>
      <point x="1613" y="721" type="curve" smooth="yes"/>
      <point x="1613" y="1088"/>
      <point x="1361" y="1355"/>
      <point x="932" y="1355" type="curve" smooth="yes"/>
      <point x="505" y="1355"/>
      <point x="94" y="1003"/>
      <point x="94" y="528" type="curve" smooth="yes"/>
      <point x="94" y="49"/>
      <point x="438" y="-250"/>
      <point x="872" y="-250" type="curve" smooth="yes"/>
      <point x="1105" y="-250"/>
      <point x="1284" y="-147"/>
      <point x="1284" y="-147" type="curve"/>
      <point x="1243" y="-91" type="line"/>
      <point x="1243" y="-91"/>
      <point x="1128" y="-169"/>
      <point x="900" y="-169" type="curve" smooth="yes"/>
      <point x="533" y="-169"/>
      <point x="244" y="106"/>
      <point x="244" y="551" type="curve" smooth="yes"/>
      <point x="244" y="991"/>
      <point x="563" y="1272"/>
      <point x="931" y="1272" type="curve" smooth="yes"/>
      <point x="1277" y="1272"/>
      <point x="1464" y="1004"/>
      <point x="1464" y="710" type="curve" smooth="yes"/>
      <point x="1464" y="447"/>
      <point x="1325" y="257"/>
      <point x="1172" y="257" type="curve" smooth="yes"/>
      <point x="1078" y="257"/>
      <point x="1067" y="321"/>
      <point x="1078" y="393" type="curve" smooth="yes"/>
      <point x="1087" y="459"/>
      <point x="1165" y="931"/>
      <point x="1165" y="931" type="curve"/>
      <point x="1033" y="930" type="line"/>
      <point x="1022" y="890" type="line"/>
      <point x="738" y="973"/>
      <point x="501" y="760"/>
      <point x="501" y="493" type="curve" smooth="yes"/>
      <point x="501" y="345"/>
      <point x="569" y="170"/>
      <point x="717" y="170" type="curve" smooth="yes" name="hr02"/>
      <point x="843" y="170"/>
      <point x="920" y="251"/>
      <point x="963" y="301" type="curve"/>
      <point x="992" y="218"/>
      <point x="1017" y="171"/>
    </contour>
    <contour>
      <point x="644" y="484" type="curve" smooth="yes" name="hr04"/>
      <point x="644" y="793"/>
      <point x="810" y="845"/>
      <point x="960" y="823" type="curve" smooth="yes"/>
      <point x="996" y="818"/>
      <point x="1007" y="796"/>
      <point x="1000" y="751" type="curve"/>
      <point x="946" y="431" type="line"/>
      <point x="923" y="308"/>
      <point x="822" y="251"/>
      <point x="759" y="251" type="curve" smooth="yes"/>
      <point x="696" y="251"/>
      <point x="644" y="357"/>
    </contour>
  </outline>
</glyph>
<glyph name="A" format="1">
  <advance width="1537"/>
  <unicode hex="0041"/>
  <outline>
    <contour>
      <point x="1058" y="0" type="line" name="hr00"/>
      <point x="1555" y="0" type="line"/>
      <point x="1555" y="85" type="line"/>
      <point x="1394" y="108" type="line"/>
      <point x="796" y="1573" type="line"/>
      <point x="634" y="1505" type="line"/>
      <point x="676" y="1406" type="line"/>
      <point x="151" y="108" type="line"/>
      <point x="-7" y="85" type="line"/>
      <point x="-7" y="0" type="line"/>
      <point x="422" y="0" type="line"/>
      <point x="422" y="85" type="line"/>
      <point x="281" y="108" type="line"/>
      <point x="438" y="497" type="line"/>
      <point x="1038" y="497" type="line"/>
      <point x="1196" y="108" type="line"/>
      <point x="1058" y="85" type="line"/>
    </contour>
    <contour>
      <point x="739" y="1260" type="line"/>
      <point x="994" y="618" type="line"/>
      <point x="485" y="618" type="line"/>
    </contour>
    <contour>
      <point x="774" y="-170" type="move" name="btm"/>
    </contour>
    <contour>
      <point x="1555" y="0" type="move" name="og"/>
    </contour>
    <contour>
      <point x="774" y="1700" type="move" name="top"/>
    </contour>
  </outline>
</glyph>
<glyph name="B" format="1">
  <advance width="1365"/>
  <unicode hex="0042"/>
  <outline>
    <contour>
      <point x="1230" y="1157" type="curve" smooth="yes" name="hr01"/>
      <point x="1230" y="1371"/>
      <point x="1073" y="1508"/>
      <point x="749" y="1508" type="curve"/>
      <point x="82" y="1508" type="line"/>
      <point x="82" y="1423" type="line"/>
      <point x="234" y="1400" type="line"/>
      <point x="234" y="108" type="line"/>
      <point x="82" y="85" type="line"/>
      <point x="82" y="0" type="line"/>
      <point x="776" y="0" type="line"/>
      <point x="1147" y="0"/>
      <point x="1322" y="200"/>
      <point x="1322" y="416" type="curve" smooth="yes" name="hr02"/>
      <point x="1322" y="699"/>
      <point x="1147" y="777"/>
      <point x="952" y="813" type="curve"/>
      <point x="1066" y="857"/>
      <point x="1230" y="953"/>
    </contour>
    <contour>
      <point x="754" y="739" type="line" name="hr04"/>
      <point x="1004" y="739"/>
      <point x="1129" y="600"/>
      <point x="1129" y="429" type="curve" smooth="yes"/>
      <point x="1129" y="240"/>
      <point x="1019" y="120"/>
      <point x="705" y="120" type="curve"/>
      <point x="422" y="120" type="line"/>
      <point x="422" y="739" type="line"/>
    </contour>
    <contour>
      <point x="726" y="1387" type="line"/>
      <point x="940" y="1387"/>
      <point x="1035" y="1308"/>
      <point x="1035" y="1130" type="curve" smooth="yes" name="hr05"/>
      <point x="1035" y="906"/>
      <point x="844" y="848"/>
      <point x="707" y="848" type="curve"/>
      <point x="422" y="848" type="line"/>
      <point x="422" y="1387" type="line"/>
    </contour>
    <contour>
      <point x="617" y="-170" type="move" name="btm"/>
    </contour>
    <contour>
      <point x="692" y="0" type="move" name="og"/>
    </contour>
    <contour>
      <point x="617" y="1700" type="move" name="top"/>
    </contour>
  </outline>
</glyph>
<glyph name="C" format="1">
  <advance width="1538"/>
  <unicode hex="0043"/>
  <outline>
    <contour>
      <point x="882" y="1531" type="curve" smooth="yes" name="hr00"/>
      <point x="480" y="1531"/>
      <point x="78" y="1232"/>
      <point x="78" y="728" type="curve" smooth="yes"/>
      <point x="78" y="306"/>
      <point x="377" y="-23"/>
      <point x="888" y="-23" type="curve" smooth="yes"/>
      <point x="1241" y="-23"/>
      <point x="1401" y="78"/>
      <point x="1401" y="78" type="curve"/>
      <point x="1387" y="336" type="line"/>
      <point x="1321" y="336" type="line"/>
      <point x="1321" y="159"/>
      <point x="1190" y="97"/>
      <point x="883" y="97" type="curve" smooth="yes"/>
      <point x="488" y="97"/>
      <point x="271" y="431"/>
      <point x="271" y="789" type="curve" smooth="yes"/>
      <point x="271" y="1145"/>
      <point x="526" y="1411"/>
      <point x="877" y="1411" type="curve" smooth="yes"/>
      <point x="1157" y="1411"/>
      <point x="1305" y="1305"/>
      <point x="1305" y="1162" type="curve"/>
      <point x="1371" y="1162" type="line"/>
      <point x="1394" y="1429" type="line"/>
      <point x="1394" y="1429"/>
      <point x="1235" y="1531"/>
    </contour>
    <contour>
      <point x="885" y="-170" type="move" name="btm"/>
    </contour>
    <contour>
      <point x="744" y="0" type="move" name="og"/>
    </contour>
    <contour>
      <point x="868" y="1700" type="move" name="top"/>
    </contour>
  </outline>
</glyph>
<glyph name="D" format="1">
  <advance width="1708"/>
  <unicode hex="0044"/>
  <outline>
    <contour>
      <point x="286" y="108" type="line" name="hr00"/>
      <point x="131" y="85" type="line"/>
      <point x="131" y="0" type="line"/>
      <point x="834" y="0" type="line"/>
      <point x="1236" y="0"/>
      <point x="1607" y="292"/>
      <point x="1607" y="791" type="curve" smooth="yes"/>
      <point x="1607" y="1229"/>
      <point x="1309" y="1508"/>
      <point x="773" y="1508" type="curve"/>
      <point x="131" y="1508" type="line"/>
      <point x="131" y="1423" type="line"/>
      <point x="286" y="1400" type="line"/>
    </contour>
    <contour>
      <point x="768" y="1387" type="line"/>
      <point x="1225" y="1387"/>
      <point x="1418" y="1152"/>
      <point x="1418" y="709" type="curve" smooth="yes"/>
      <point x="1418" y="346"/>
      <point x="1159" y="120"/>
      <point x="832" y="120" type="curve"/>
      <point x="471" y="120" type="line"/>
      <point x="471" y="1387" type="line"/>
    </contour>
    <contour>
      <point x="741" y="-170" type="move" name="btm"/>
    </contour>
    <contour>
      <point x="812" y="0" type="move" name="og"/>
    </contour>
    <contour>
      <point x="740" y="1700" type="move" name="top"/>
    </contour>
  </outline>
</glyph>
<glyph name="E" format="1">
  <advance width="1196"/>
  <unicode hex="0045"/>
  <outline>
    <contour>
      <point x="820" y="618" type="line" name="hr00"/>
      <point x="891" y="618" type="line"/>
      <point x="891" y="949" type="line"/>
      <point x="820" y="949" type="line"/>
      <point x="790" y="843" type="line"/>
      <point x="422" y="843" type="line"/>
      <point x="422" y="1387" type="line"/>
      <point x="931" y="1387" type="line"/>
      <point x="985" y="1211" type="line"/>
      <point x="1073" y="1211" type="line"/>
      <point x="1050" y="1508" type="line"/>
      <point x="82" y="1508" type="line"/>
      <point x="82" y="1423" type="line"/>
      <point x="234" y="1400" type="line"/>
      <point x="234" y="108" type="line"/>
      <point x="82" y="85" type="line"/>
      <point x="82" y="0" type="line"/>
      <point x="1094" y="0" type="line"/>
      <point x="1127" y="297" type="line"/>
      <point x="1051" y="297" type="line"/>
      <point x="979" y="120" type="line"/>
      <point x="422" y="120" type="line"/>
      <point x="422" y="723" type="line"/>
      <point x="790" y="723" type="line"/>
    </contour>
    <contour>
      <point x="660" y="-170" type="move" name="btm"/>
    </contour>
    <contour>
      <point x="1162" y="0" type="move" name="og"/>
    </contour>
    <contour>
      <point x="656" y="1700" type="move" name="top"/>
    </contour>
  </outline>
</glyph>
<glyph name="F" format="1">
  <advance width="1196"/>
  <unicode hex="0046"/>
  <outline>
    <contour>
      <point x="829" y="593" type="line" name="hr01"/>
      <point x="891" y="593" type="line"/>
      <point x="891" y="926" type="line"/>
      <point x="829" y="926" type="line"/>
      <point x="799" y="820" type="line"/>
      <point x="412" y="820" type="line"/>
      <point x="412" y="1387" type="line"/>
      <point x="971" y="1387" type="line"/>
      <point x="1025" y="1211" type="line"/>
      <point x="1113" y="1211" type="line"/>
      <point x="1090" y="1508" type="line"/>
      <point x="72" y="1508" type="line"/>
      <point x="72" y="1423" type="line"/>
      <point x="224" y="1400" type="line"/>
      <point x="224" y="108" type="line" name="hr02"/>
      <point x="72" y="85" type="line" name="hr03"/>
      <point x="72" y="0" type="line"/>
      <point x="639" y="0" type="line"/>
      <point x="639" y="85" type="line"/>
      <point x="412" y="108" type="line" name="hr04"/>
      <point x="412" y="699" type="line"/>
      <point x="799" y="699" type="line"/>
    </contour>
    <contour>
      <point x="602" y="-170" type="move" name="btm"/>
    </contour>
    <contour>
      <point x="602" y="0" type="move" name="og"/>
    </contour>
    <contour>
      <point x="651" y="1700" type="move" name="top"/>
    </contour>
  </outline>
</glyph>
<glyph name="G" format="1">
  <advance width="1707"/>
  <unicode hex="0047"/>
  <outline>
    <contour>
      <point x="1002" y="571" type="line" name="hr00"/>
      <point x="1233" y="571" type="line"/>
      <point x="1268" y="571"/>
      <point x="1290" y="562"/>
      <point x="1290" y="526" type="curve"/>
      <point x="1290" y="323" type="line"/>
      <point x="1290" y="193"/>
      <point x="1211" y="97"/>
      <point x="903" y="97" type="curve" smooth="yes"/>
      <point x="508" y="97"/>
      <point x="294" y="431"/>
      <point x="294" y="789" type="curve" smooth="yes"/>
      <point x="294" y="1126"/>
      <point x="539" y="1411"/>
      <point x="887" y="1411" type="curve" smooth="yes"/>
      <point x="1167" y="1411"/>
      <point x="1325" y="1295"/>
      <point x="1325" y="1182" type="curve"/>
      <point x="1391" y="1182" type="line"/>
      <point x="1414" y="1429" type="line"/>
      <point x="1414" y="1429"/>
      <point x="1245" y="1531"/>
      <point x="892" y="1531" type="curve" smooth="yes"/>
      <point x="470" y="1531"/>
      <point x="98" y="1232"/>
      <point x="98" y="738" type="curve" smooth="yes"/>
      <point x="98" y="316"/>
      <point x="411" y="-23"/>
      <point x="896" y="-23" type="curve" smooth="yes"/>
      <point x="1056" y="-23"/>
      <point x="1167" y="14"/>
      <point x="1265" y="47" type="curve" smooth="yes"/>
      <point x="1339" y="72"/>
      <point x="1405" y="94"/>
      <point x="1476" y="94" type="curve"/>
      <point x="1476" y="526" type="line"/>
      <point x="1476" y="560"/>
      <point x="1497" y="571"/>
      <point x="1537" y="571" type="curve"/>
      <point x="1593" y="571" type="line"/>
      <point x="1593" y="679" type="line"/>
      <point x="1002" y="679" type="line"/>
    </contour>
    <contour>
      <point x="877" y="-170" type="move" name="btm"/>
    </contour>
    <contour>
      <point x="825" y="0" type="move" name="og"/>
    </contour>
    <contour>
      <point x="873" y="1700" type="move" name="top"/>
    </contour>
  </outline>
</glyph>
<glyph name="H" format="1">
  <advance width="1707"/>
  <unicode hex="0048"/>
  <outline>
    <contour>
      <point x="98" y="1423" type="line" name="hr01"/>
      <point x="250" y="1400" type="line"/>
      <point x="250" y="108" type="line" name="hr02"/>
      <point x="98" y="85" type="line" name="hr03"/>
      <point x="98" y="0" type="line"/>
      <point x="588" y="0" type="line"/>
      <point x="588" y="85" type="line"/>
      <point x="435" y="108" type="line" name="hr04"/>
      <point x="435" y="709" type="line"/>
      <point x="1270" y="709" type="line"/>
      <point x="1270" y="108" type="line"/>
      <point x="1118" y="85" type="line" name="hr05"/>
      <point x="1118" y="0" type="line"/>
      <point x="1608" y="0" type="line"/>
      <point x="1608" y="85" type="line"/>
      <point x="1457" y="108" type="line" name="hr06"/>
      <point x="1457" y="1400" type="line"/>
      <point x="1608" y="1423" type="line"/>
      <point x="1608" y="1508" type="line"/>
      <point x="1118" y="1508" type="line"/>
      <point x="1118" y="1423" type="line"/>
      <point x="1270" y="1400" type="line"/>
      <point x="1270" y="829" type="line"/>
      <point x="435" y="829" type="line"/>
      <point x="435" y="1400" type="line"/>
      <point x="588" y="1423" type="line"/>
      <point x="588" y="1508" type="line"/>
      <point x="98" y="1508" type="line"/>
    </contour>
  </outline>
</glyph>
<glyph name="I" format="1">
  <advance width="682"/>
  <unicode hex="0049"/>
  <outline>
    <contour>
      <point x="96" y="1423" type="line" name="hr01"/>
      <point x="250" y="1400" type="line"/>
      <point x="250" y="108" type="line" name="hr02"/>
      <point x="96" y="85" type="line" name="hr03"/>
      <point x="96" y="0" type="line"/>
      <point x="586" y="0" type="line"/>
      <point x="586" y="85" type="line"/>
      <point x="435" y="108" type="line" name="hr04"/>
      <point x="435" y="1400" type="line"/>
      <point x="586" y="1423" type="line"/>
      <point x="586" y="1508" type="line"/>
      <point x="96" y="1508" type="line"/>
    </contour>
    <contour>
      <point x="341" y="-170" type="move" name="btm"/>
    </contour>
    <contour>
      <point x="588" y="0" type="move" name="og"/>
    </contour>
    <contour>
      <point x="341" y="1700" type="move" name="top"/>
    </contour>
  </outline>
</glyph>
<glyph name="J" format="1">
  <advance width="682"/>
  <unicode hex="004A"/>
  <outline>
    <contour>
      <point x="450" y="1400" type="line" name="hr00"/>
      <point x="601" y="1423" type="line"/>
      <point x="601" y="1508" type="line"/>
      <point x="111" y="1508" type="line"/>
      <point x="111" y="1423" type="line"/>
      <point x="263" y="1400" type="line"/>
      <point x="263" y="-118" type="line"/>
      <point x="263" y="-309"/>
      <point x="173" y="-397"/>
      <point x="81" y="-397" type="curve" smooth="yes"/>
      <point x="-11" y="-397"/>
      <point x="-29" y="-325"/>
      <point x="-29" y="-300" type="curve"/>
      <point x="-94" y="-300" type="line"/>
      <point x="-157" y="-497" type="line"/>
      <point x="-157" y="-497"/>
      <point x="-79" y="-560"/>
      <point x="52" y="-560" type="curve" smooth="yes"/>
      <point x="107" y="-560"/>
      <point x="214" y="-500"/>
      <point x="281" y="-417" type="curve" smooth="yes"/>
      <point x="372" y="-307"/>
      <point x="450" y="-180"/>
      <point x="450" y="89" type="curve"/>
    </contour>
    <contour>
      <point x="315" y="-170" type="move" name="btm"/>
    </contour>
    <contour>
      <point x="181" y="0" type="move" name="og"/>
    </contour>
    <contour>
      <point x="315" y="1700" type="move" name="top"/>
    </contour>
  </outline>
</glyph>
<glyph name="K" format="1">
  <advance width="1534"/>
  <unicode hex="004B"/>
  <outline>
    <contour>
      <point x="443" y="753" type="line" name="hr00"/>
      <point x="1120" y="0" type="line"/>
      <point x="1472" y="0" type="line"/>
      <point x="1472" y="85" type="line"/>
      <point x="1342" y="101" type="line"/>
      <point x="1264" y="139" type="line"/>
      <point x="654" y="791" type="line"/>
      <point x="1290" y="1402" type="line"/>
      <point x="1469" y="1423" type="line"/>
      <point x="1469" y="1508" type="line"/>
      <point x="1000" y="1508" type="line"/>
      <point x="1000" y="1423" type="line"/>
      <point x="1113" y="1402" type="line"/>
    </contour>
    <contour>
      <point x="95" y="1423" type="line"/>
      <point x="250" y="1400" type="line"/>
      <point x="250" y="108" type="line"/>
      <point x="95" y="85" type="line"/>
      <point x="95" y="0" type="line"/>
      <point x="585" y="0" type="line"/>
      <point x="585" y="85" type="line"/>
      <point x="435" y="108" type="line"/>
      <point x="435" y="1400" type="line"/>
      <point x="585" y="1423" type="line"/>
      <point x="585" y="1508" type="line"/>
      <point x="95" y="1508" type="line"/>
    </contour>
    <contour>
      <point x="815" y="-170" type="move" name="btm"/>
    </contour>
    <contour>
      <point x="783" y="0" type="move" name="og"/>
    </contour>
    <contour>
      <point x="815" y="1700" type="move" name="top"/>
    </contour>
  </outline>
</glyph>
<glyph name="L" format="1">
  <advance width="1194"/>
  <unicode hex="004C"/>
  <outline>
    <contour>
      <point x="72" y="1508" type="line" name="hr00"/>
      <point x="72" y="1423" type="line"/>
      <point x="224" y="1400" type="line"/>
      <point x="224" y="108" type="line"/>
      <point x="72" y="85" type="line"/>
      <point x="72" y="0" type="line"/>
      <point x="1092" y="0" type="line"/>
      <point x="1101" y="344" type="line"/>
      <point x="1019" y="344" type="line"/>
      <point x="960" y="120" type="line"/>
      <point x="412" y="120" type="line"/>
      <point x="412" y="1400" type="line"/>
      <point x="562" y="1423" type="line"/>
      <point x="562" y="1508" type="line"/>
    </contour>
    <contour>
      <point x="680" y="-170" type="move" name="btm"/>
    </contour>
    <contour>
      <point x="745" y="0" type="move" name="cdl"/>
    </contour>
    <contour>
      <point x="1190" y="0" type="move" name="og"/>
    </contour>
    <contour>
      <point x="749" y="1700" type="move" name="top"/>
    </contour>
  </outline>
</glyph>
<glyph name="M" format="1">
  <advance width="2052"/>
  <unicode hex="004D"/>
  <outline>
    <contour>
      <point x="998" y="0" type="line" name="hr01"/>
      <point x="1580" y="1243" type="line"/>
      <point x="1625" y="108" type="line"/>
      <point x="1475" y="85" type="line"/>
      <point x="1475" y="0" type="line"/>
      <point x="1964" y="0" type="line"/>
      <point x="1964" y="85" type="line"/>
      <point x="1810" y="108" type="line"/>
      <point x="1790" y="532"/>
      <point x="1764" y="968"/>
      <point x="1743" y="1400" type="curve"/>
      <point x="1893" y="1423" type="line"/>
      <point x="1893" y="1508" type="line"/>
      <point x="1580" y="1508" type="line"/>
      <point x="1039" y="337" type="line"/>
      <point x="502" y="1508" type="line"/>
      <point x="160" y="1508" type="line" name="hr02"/>
      <point x="160" y="1423" type="line"/>
      <point x="301" y="1400" type="line"/>
      <point x="229" y="108" type="line"/>
      <point x="87" y="85" type="line" name="hr03"/>
      <point x="87" y="0" type="line"/>
      <point x="502" y="0" type="line"/>
      <point x="502" y="85" type="line"/>
      <point x="363" y="108" type="line"/>
      <point x="379" y="490"/>
      <point x="391" y="874"/>
      <point x="405" y="1258" type="curve" name="hr04"/>
    </contour>
    <contour>
      <point x="1025" y="-170" type="move" name="btm"/>
    </contour>
    <contour>
      <point x="1025" y="0" type="move" name="og"/>
    </contour>
    <contour>
      <point x="1025" y="1700" type="move" name="top"/>
    </contour>
  </outline>
</glyph>
<glyph name="N" format="1">
  <advance width="1707"/>
  <unicode hex="004E"/>
  <outline>
    <contour>
      <point x="1333" y="0" type="line" name="hr01"/>
      <point x="1457" y="0" type="line"/>
      <point x="1457" y="1400" type="line"/>
      <point x="1608" y="1423" type="line"/>
      <point x="1608" y="1508" type="line"/>
      <point x="1189" y="1508" type="line"/>
      <point x="1189" y="1423" type="line"/>
      <point x="1340" y="1400" type="line"/>
      <point x="1340" y="290" type="line"/>
      <point x="371" y="1508" type="line"/>
      <point x="95" y="1508" type="line"/>
      <point x="95" y="1423" type="line"/>
      <point x="250" y="1400" type="line"/>
      <point x="250" y="108" type="line" name="hr02"/>
      <point x="95" y="85" type="line" name="hr03"/>
      <point x="95" y="0" type="line"/>
      <point x="517" y="0" type="line"/>
      <point x="517" y="85" type="line"/>
      <point x="365" y="108" type="line" name="hr04"/>
      <point x="365" y="1218" type="line"/>
    </contour>
    <contour>
      <point x="848" y="-170" type="move" name="btm"/>
    </contour>
    <contour>
      <point x="848" y="0" type="move" name="og"/>
    </contour>
    <contour>
      <point x="848" y="1700" type="move" name="top"/>
    </contour>
  </outline>
</glyph>
<glyph name="O" format="1">
  <advance width="1711"/>
  <unicode hex="004F"/>
  <outline>
    <contour>
      <point x="77" y="728" type="curve" smooth="yes" name="hr00"/>
      <point x="77" y="306"/>
      <point x="353" y="-23"/>
      <point x="841" y="-23" type="curve" smooth="yes"/>
      <point x="1246" y="-23"/>
      <point x="1587" y="292"/>
      <point x="1587" y="791" type="curve" smooth="yes"/>
      <point x="1587" y="1213"/>
      <point x="1315" y="1531"/>
      <point x="825" y="1531" type="curve" smooth="yes"/>
      <point x="427" y="1531"/>
      <point x="77" y="1222"/>
    </contour>
    <contour>
      <point x="270" y="789" type="curve" smooth="yes"/>
      <point x="270" y="1126"/>
      <point x="491" y="1411"/>
      <point x="820" y="1411" type="curve" smooth="yes"/>
      <point x="1235" y="1411"/>
      <point x="1397" y="1056"/>
      <point x="1397" y="699" type="curve" smooth="yes"/>
      <point x="1397" y="346"/>
      <point x="1173" y="97"/>
      <point x="839" y="97" type="curve" smooth="yes"/>
      <point x="460" y="97"/>
      <point x="270" y="431"/>
    </contour>
    <contour>
      <point x="832" y="-170" type="move" name="btm"/>
    </contour>
    <contour>
      <point x="832" y="0" type="move" name="og"/>
    </contour>
    <contour>
      <point x="832" y="1700" type="move" name="top"/>
    </contour>
  </outline>
</glyph>
<glyph name="P" format="1">
  <advance width="1196"/>
  <unicode hex="0050"/>
  <outline>
    <contour>
      <point x="609" y="0" type="line" name="hr01"/>
      <point x="609" y="85" type="line"/>
      <point x="412" y="108" type="line" name="hr02"/>
      <point x="412" y="572" type="line"/>
      <point x="532" y="572" type="line"/>
      <point x="941" y="572"/>
      <point x="1153" y="762"/>
      <point x="1153" y="1070" type="curve" smooth="yes"/>
      <point x="1153" y="1283"/>
      <point x="1053" y="1508"/>
      <point x="565" y="1508" type="curve"/>
      <point x="72" y="1508" type="line"/>
      <point x="72" y="1423" type="line"/>
      <point x="224" y="1400" type="line"/>
      <point x="224" y="108" type="line"/>
      <point x="72" y="85" type="line" name="hr03"/>
      <point x="72" y="0" type="line"/>
    </contour>
    <contour>
      <point x="541" y="1387" type="line"/>
      <point x="859" y="1387"/>
      <point x="957" y="1254"/>
      <point x="957" y="1043" type="curve" smooth="yes"/>
      <point x="957" y="841"/>
      <point x="840" y="678"/>
      <point x="560" y="678" type="curve"/>
      <point x="412" y="678" type="line"/>
      <point x="412" y="1387" type="line"/>
    </contour>
    <contour>
      <point x="323" y="-209" type="move" name="btm"/>
    </contour>
    <contour>
      <point x="622" y="0" type="move" name="og"/>
    </contour>
    <contour>
      <point x="622" y="1700" type="move" name="top"/>
    </contour>
  </outline>
</glyph>
<glyph name="Q" format="1">
  <advance width="1707"/>
  <unicode hex="0051"/>
  <outline>
    <contour>
      <point x="891" y="38" type="line" name="hr00"/>
      <point x="1051" y="-17"/>
      <point x="1244" y="-114"/>
      <point x="1404" y="-202" type="curve" smooth="yes"/>
      <point x="1564" y="-288"/>
      <point x="1709" y="-362"/>
      <point x="1783" y="-362" type="curve" smooth="yes"/>
      <point x="1870" y="-362"/>
      <point x="2064" y="-173"/>
      <point x="2064" y="-173" type="curve"/>
      <point x="2010" y="-119" type="line"/>
      <point x="2010" y="-119"/>
      <point x="1915" y="-185"/>
      <point x="1863" y="-185" type="curve" smooth="yes"/>
      <point x="1788" y="-185"/>
      <point x="1662" y="-142"/>
      <point x="1540" y="-86" type="curve" smooth="yes"/>
      <point x="1452" y="-43"/>
      <point x="1289" y="33"/>
      <point x="1115" y="59" type="curve"/>
    </contour>
    <component base="O"/>
    <contour>
      <point x="1031" y="-170" type="move" name="btm"/>
    </contour>
    <contour>
      <point x="1031" y="0" type="move" name="og"/>
    </contour>
    <contour>
      <point x="826" y="1700" type="move" name="top"/>
    </contour>
  </outline>
</glyph>
<glyph name="R" format="1">
  <advance width="1366"/>
  <unicode hex="0052"/>
  <outline>
    <contour>
      <point x="1163" y="1130" type="curve" smooth="yes" name="hr00"/>
      <point x="1163" y="1344"/>
      <point x="1035" y="1508"/>
      <point x="565" y="1508" type="curve" smooth="yes"/>
      <point x="72" y="1508" type="line"/>
      <point x="72" y="1423" type="line"/>
      <point x="227" y="1400" type="line"/>
      <point x="227" y="108" type="line"/>
      <point x="72" y="85" type="line"/>
      <point x="72" y="0" type="line"/>
      <point x="562" y="0" type="line"/>
      <point x="562" y="85" type="line"/>
      <point x="412" y="108" type="line"/>
      <point x="412" y="683" type="line"/>
      <point x="680" y="683" type="line"/>
      <point x="596" y="719" type="line"/>
      <point x="1046" y="0" type="line"/>
      <point x="1389" y="0" type="line"/>
      <point x="1389" y="85" type="line"/>
      <point x="1248" y="101" type="line"/>
      <point x="1178" y="132" type="line"/>
      <point x="783" y="732" type="line"/>
      <point x="765" y="699" type="line"/>
      <point x="1010" y="751"/>
      <point x="1163" y="874"/>
    </contour>
    <contour>
      <point x="575" y="1387" type="line"/>
      <point x="883" y="1387"/>
      <point x="973" y="1283"/>
      <point x="973" y="1102" type="curve" smooth="yes"/>
      <point x="973" y="930"/>
      <point x="873" y="791"/>
      <point x="560" y="791" type="curve"/>
      <point x="412" y="791" type="line"/>
      <point x="412" y="1387" type="line"/>
    </contour>
    <contour>
      <point x="707" y="-170" type="move" name="btm"/>
    </contour>
    <contour>
      <point x="760" y="0" type="move" name="og"/>
    </contour>
    <contour>
      <point x="660" y="1700" type="move" name="top"/>
    </contour>
  </outline>
</glyph>
<glyph name="S" format="1">
  <advance width="1200"/>
  <unicode hex="0053"/>
  <outline>
    <contour>
      <point x="593" y="96" type="curve" smooth="yes" name="hr00"/>
      <point x="283" y="96"/>
      <point x="235" y="282"/>
      <point x="235" y="430" type="curve"/>
      <point x="150" y="430" type="line"/>
      <point x="108" y="143" type="line"/>
      <point x="182" y="85"/>
      <point x="357" y="-23"/>
      <point x="594" y="-23" type="curve" smooth="yes"/>
      <point x="822" y="-23"/>
      <point x="1114" y="106"/>
      <point x="1114" y="396" type="curve" smooth="yes"/>
      <point x="1114" y="559"/>
      <point x="1040" y="707"/>
      <point x="720" y="842" type="curve" smooth="yes"/>
      <point x="394" y="979"/>
      <point x="331" y="1063"/>
      <point x="331" y="1191" type="curve" smooth="yes"/>
      <point x="331" y="1340"/>
      <point x="465" y="1417"/>
      <point x="622" y="1417" type="curve" smooth="yes"/>
      <point x="811" y="1417"/>
      <point x="914" y="1338"/>
      <point x="914" y="1154" type="curve"/>
      <point x="998" y="1154" type="line"/>
      <point x="1033" y="1421" type="line"/>
      <point x="1033" y="1421"/>
      <point x="869" y="1531"/>
      <point x="617" y="1531" type="curve" smooth="yes"/>
      <point x="372" y="1531"/>
      <point x="145" y="1385"/>
      <point x="145" y="1151" type="curve" smooth="yes"/>
      <point x="145" y="971"/>
      <point x="233" y="830"/>
      <point x="587" y="675" type="curve" smooth="yes"/>
      <point x="849" y="560"/>
      <point x="923" y="485"/>
      <point x="923" y="346" type="curve" smooth="yes"/>
      <point x="923" y="172"/>
      <point x="782" y="96"/>
    </contour>
    <contour>
      <point x="600" y="-170" type="move" name="btm"/>
    </contour>
    <contour>
      <point x="600" y="0" type="move" name="og"/>
    </contour>
    <contour>
      <point x="600" y="1700" type="move" name="top"/>
    </contour>
  </outline>
</glyph>
<glyph name="T" format="1">
  <advance width="1537"/>
  <unicode hex="0054"/>
  <outline>
    <contour>
      <point x="132" y="1508" type="line" name="hr01"/>
      <point x="108" y="1187" type="line"/>
      <point x="196" y="1187" type="line"/>
      <point x="250" y="1387" type="line"/>
      <point x="675" y="1387" type="line"/>
      <point x="675" y="108" type="line" name="hr02"/>
      <point x="457" y="85" type="line" name="hr03"/>
      <point x="457" y="0" type="line"/>
      <point x="1082" y="0" type="line"/>
      <point x="1082" y="85" type="line"/>
      <point x="862" y="108" type="line" name="hr04"/>
      <point x="862" y="1387" type="line"/>
      <point x="1289" y="1387" type="line"/>
      <point x="1340" y="1187" type="line"/>
      <point x="1430" y="1187" type="line"/>
      <point x="1406" y="1508" type="line"/>
    </contour>
    <contour>
      <point x="769" y="-170" type="move" name="btm"/>
    </contour>
    <contour>
      <point x="769" y="0" type="move" name="og"/>
    </contour>
    <contour>
      <point x="769" y="1700" type="move" name="top"/>
    </contour>
  </outline>
</glyph>
<glyph name="U" format="1">
  <advance width="1537"/>
  <unicode hex="0055"/>
  <outline>
    <contour>
      <point x="190" y="541" type="line" name="hr00"/>
      <point x="190" y="171"/>
      <point x="388" y="-23"/>
      <point x="789" y="-23" type="curve" smooth="yes"/>
      <point x="1151" y="-23"/>
      <point x="1350" y="180"/>
      <point x="1350" y="541" type="curve"/>
      <point x="1350" y="1400" type="line"/>
      <point x="1501" y="1423" type="line"/>
      <point x="1501" y="1508" type="line"/>
      <point x="1082" y="1508" type="line"/>
      <point x="1082" y="1423" type="line"/>
      <point x="1235" y="1400" type="line"/>
      <point x="1235" y="571" type="line"/>
      <point x="1235" y="238"/>
      <point x="1089" y="97"/>
      <point x="783" y="97" type="curve" smooth="yes"/>
      <point x="523" y="97"/>
      <point x="375" y="226"/>
      <point x="375" y="571" type="curve"/>
      <point x="375" y="1400" type="line"/>
      <point x="535" y="1423" type="line"/>
      <point x="535" y="1508" type="line"/>
      <point x="35" y="1508" type="line"/>
      <point x="35" y="1423" type="line"/>
      <point x="190" y="1400" type="line"/>
    </contour>
    <contour>
      <point x="768" y="-170" type="move" name="btm"/>
    </contour>
    <contour>
      <point x="1352" y="0" type="move" name="og"/>
    </contour>
    <contour>
      <point x="768" y="1700" type="move" name="top"/>
    </contour>
  </outline>
</glyph>
<glyph name="V" format="1">
  <advance width="1366"/>
  <unicode hex="0056"/>
  <outline>
    <contour>
      <point x="256" y="1400" type="line" name="hr01"/>
      <point x="410" y="1423" type="line"/>
      <point x="410" y="1508" type="line"/>
      <point x="-53" y="1508" type="line"/>
      <point x="-53" y="1423" type="line"/>
      <point x="66" y="1400" type="line"/>
      <point x="641" y="0" type="line"/>
      <point x="749" y="0" type="line"/>
      <point x="1306" y="1404" type="line"/>
      <point x="1419" y="1423" type="line" name="hr02"/>
      <point x="1419" y="1508" type="line"/>
      <point x="1025" y="1508" type="line"/>
      <point x="1025" y="1423" type="line"/>
      <point x="1174" y="1400" type="line"/>
      <point x="716" y="247" type="line"/>
    </contour>
    <contour>
      <point x="683" y="-170" type="move" name="btm"/>
    </contour>
    <contour>
      <point x="683" y="0" type="move" name="og"/>
    </contour>
    <contour>
      <point x="683" y="1700" type="move" name="top"/>
    </contour>
  </outline>
</glyph>
<glyph name="W" format="1">
  <advance width="2048"/>
  <unicode hex="0057"/>
  <outline>
    <contour>
      <point x="319" y="1400" type="line" name="hr01"/>
      <point x="452" y="1423" type="line"/>
      <point x="445" y="1508" type="line"/>
      <point x="7" y="1508" type="line"/>
      <point x="7" y="1423" type="line"/>
      <point x="121" y="1400" type="line"/>
      <point x="672" y="0" type="line"/>
      <point x="780" y="0" type="line"/>
      <point x="1065" y="897" type="line"/>
      <point x="1016" y="908" type="line"/>
      <point x="1332" y="0" type="line"/>
      <point x="1440" y="0" type="line"/>
      <point x="1924" y="1404" type="line"/>
      <point x="2035" y="1423" type="line" name="hr02"/>
      <point x="2035" y="1508" type="line"/>
      <point x="1651" y="1508" type="line"/>
      <point x="1651" y="1423" type="line"/>
      <point x="1795" y="1400" type="line"/>
      <point x="1653" y="1022"/>
      <point x="1558" y="627"/>
      <point x="1417" y="247" type="curve"/>
      <point x="1028" y="1400" type="line"/>
      <point x="1174" y="1423" type="line"/>
      <point x="1173" y="1508" type="line"/>
      <point x="705" y="1508" type="line"/>
      <point x="705" y="1423" type="line"/>
      <point x="830" y="1400" type="line"/>
      <point x="1004" y="943" type="line"/>
      <point x="1014" y="1076" type="line"/>
      <point x="757" y="240" type="line"/>
    </contour>
    <contour>
      <point x="1024" y="-170" type="move" name="btm"/>
    </contour>
    <contour>
      <point x="1024" y="0" type="move" name="og"/>
    </contour>
    <contour>
      <point x="1024" y="1700" type="move" name="top"/>
    </contour>
  </outline>
</glyph>
<glyph name="X" format="1">
  <advance width="1537"/>
  <unicode hex="0058"/>
  <outline>
    <contour>
      <point x="49" y="1423" type="line" name="hr00"/>
      <point x="219" y="1400" type="line"/>
      <point x="651" y="793" type="line"/>
      <point x="191" y="108" type="line"/>
      <point x="25" y="85" type="line"/>
      <point x="25" y="0" type="line"/>
      <point x="508" y="0" type="line"/>
      <point x="508" y="85" type="line"/>
      <point x="337" y="108" type="line"/>
      <point x="721" y="695" type="line"/>
      <point x="1126" y="108" type="line"/>
      <point x="962" y="85" type="line"/>
      <point x="962" y="0" type="line"/>
      <point x="1512" y="0" type="line"/>
      <point x="1512" y="85" type="line"/>
      <point x="1352" y="108" type="line"/>
      <point x="848" y="813" type="line"/>
      <point x="1263" y="1400" type="line"/>
      <point x="1433" y="1423" type="line"/>
      <point x="1433" y="1508" type="line"/>
      <point x="969" y="1508" type="line"/>
      <point x="969" y="1423" type="line"/>
      <point x="1117" y="1400" type="line"/>
      <point x="778" y="912" type="line"/>
      <point x="443" y="1400" type="line"/>
      <point x="590" y="1423" type="line"/>
      <point x="590" y="1508" type="line"/>
      <point x="49" y="1508" type="line"/>
    </contour>
    <contour>
      <point x="768" y="-170" type="move" name="btm"/>
    </contour>
    <contour>
      <point x="768" y="0" type="move" name="og"/>
    </contour>
    <contour>
      <point x="768" y="1700" type="move" name="top"/>
    </contour>
  </outline>
</glyph>
<glyph name="Y" format="1">
  <advance width="1364"/>
  <unicode hex="0059"/>
  <outline>
    <contour>
      <point x="9" y="1423" type="line" name="hr01"/>
      <point x="146" y="1400" type="line"/>
      <point x="620" y="612" type="line"/>
      <point x="620" y="108" type="line" name="hr02"/>
      <point x="449" y="85" type="line" name="hr03"/>
      <point x="449" y="0" type="line"/>
      <point x="980" y="0" type="line"/>
      <point x="980" y="85" type="line"/>
      <point x="806" y="108" type="line" name="hr04"/>
      <point x="806" y="613" type="line"/>
      <point x="1200" y="1404" type="line"/>
      <point x="1354" y="1423" type="line"/>
      <point x="1354" y="1508" type="line"/>
      <point x="890" y="1508" type="line"/>
      <point x="890" y="1423" type="line"/>
      <point x="1055" y="1400" type="line"/>
      <point x="743" y="735" type="line"/>
      <point x="379" y="1400" type="line"/>
      <point x="552" y="1423" type="line"/>
      <point x="552" y="1508" type="line"/>
      <point x="9" y="1508" type="line"/>
    </contour>
    <contour>
      <point x="687" y="-170" type="move" name="btm"/>
    </contour>
    <contour>
      <point x="687" y="0" type="move" name="og"/>
    </contour>
    <contour>
      <point x="687" y="1700" type="move" name="top"/>
    </contour>
  </outline>
</glyph>
<glyph name="Z" format="1">
  <advance width="1363"/>
  <unicode hex="005A"/>
  <outline>
    <contour>
      <point x="102" y="125" type="line" name="hr00"/>
      <point x="102" y="0" type="line"/>
      <point x="1230" y="0" type="line"/>
      <point x="1298" y="339" type="line"/>
      <point x="1212" y="339" type="line"/>
      <point x="1088" y="120" type="line"/>
      <point x="324" y="120" type="line"/>
      <point x="1241" y="1383" type="line"/>
      <point x="1241" y="1508" type="line"/>
      <point x="202" y="1508" type="line"/>
      <point x="125" y="1191" type="line"/>
      <point x="207" y="1191" type="line"/>
      <point x="330" y="1382" type="line"/>
      <point x="1019" y="1382" type="line"/>
    </contour>
    <contour>
      <point x="683" y="-170" type="move" name="btm"/>
    </contour>
    <contour>
      <point x="683" y="0" type="move" name="og"/>
    </contour>
    <contour>
      <point x="683" y="1700" type="move" name="top"/>
    </contour>
  </outline>
</glyph>
<glyph name="bracketleft" format="1">
  <advance width="684"/>
  <unicode hex="005B"/>
  <outline>
    <contour>
      <point x="334" y="1557" type="line" name="hr01"/>
      <point x="532" y="1578" type="line"/>
      <point x="532" y="1663" type="line"/>
      <point x="172" y="1663" type="line"/>
      <point x="172" y="-511" type="line"/>
      <point x="532" y="-511" type="line"/>
      <point x="532" y="-427" type="line"/>
      <point x="334" y="-405" type="line" name="hr02"/>
    </contour>
  </outline>
</glyph>
<glyph name="backslash" format="1">
  <advance width="1197"/>
  <unicode hex="005C"/>
  <outline>
    <contour>
      <point x="168" y="1672" type="line" name="hr00"/>
      <point x="74" y="1627" type="line"/>
      <point x="1029" y="-431" type="line"/>
      <point x="1124" y="-389" type="line"/>
    </contour>
  </outline>
</glyph>
<glyph name="bracketright" format="1">
  <advance width="684"/>
  <unicode hex="005D"/>
  <outline>
    <contour>
      <point x="350" y="-405" type="line" name="hr01"/>
      <point x="152" y="-427" type="line" name="hr02"/>
      <point x="152" y="-511" type="line"/>
      <point x="512" y="-511" type="line"/>
      <point x="512" y="1663" type="line"/>
      <point x="152" y="1663" type="line"/>
      <point x="152" y="1578" type="line"/>
      <point x="350" y="1557" type="line"/>
    </contour>
  </outline>
</glyph>
<glyph name="asciicircum" format="1">
  <advance width="1366"/>
  <unicode hex="005E"/>
  <outline>
    <contour>
      <point x="706" y="1311" type="line" name="hr00"/>
      <point x="659" y="1311" type="line"/>
      <point x="129" y="225" type="line"/>
      <point x="239" y="178" type="line"/>
      <point x="683" y="1100" type="line"/>
    </contour>
    <contour>
      <point x="682" y="1100" type="line"/>
      <point x="1126" y="178" type="line"/>
      <point x="1236" y="225" type="line"/>
      <point x="706" y="1311" type="line"/>
      <point x="669" y="1281" type="line"/>
    </contour>
  </outline>
</glyph>
<glyph name="underscore" format="1">
  <advance width="1178"/>
  <unicode hex="005F"/>
  <outline>
    <contour>
      <point x="-5" y="-271" type="line" name="hr00"/>
      <point x="1184" y="-271" type="line"/>
      <point x="1184" y="-164" type="line"/>
      <point x="-5" y="-164" type="line"/>
    </contour>
  </outline>
</glyph>
<glyph name="grave" format="1">
  <advance width="575"/>
  <unicode hex="0060"/>
  <outline>
    <contour>
      <point x="76" y="1511" type="line" name="hr00"/>
      <point x="431" y="1191" type="line"/>
      <point x="478" y="1231" type="line"/>
      <point x="236" y="1561" type="line"/>
    </contour>
    <contour>
      <point x="277" y="1700" type="move" name="_top"/>
    </contour>
  </outline>
</glyph>
<glyph name="a" format="1">
  <advance width="1025"/>
  <unicode hex="0061"/>
  <outline>
    <contour>
      <point x="339" y="-23" type="curve" smooth="yes" name="hr01"/>
      <point x="490" y="-23"/>
      <point x="652" y="122"/>
      <point x="662" y="132" type="curve"/>
      <point x="662" y="101" type="line"/>
      <point x="662" y="14"/>
      <point x="723" y="-23"/>
      <point x="805" y="-23" type="curve" smooth="yes" name="hr02"/>
      <point x="878" y="-23"/>
      <point x="1019" y="52"/>
      <point x="1019" y="52" type="curve"/>
      <point x="1001" y="146" type="line"/>
      <point x="1001" y="146"/>
      <point x="920" y="115"/>
      <point x="878" y="115" type="curve" smooth="yes"/>
      <point x="836" y="115"/>
      <point x="824" y="132"/>
      <point x="824" y="202" type="curve"/>
      <point x="824" y="728" type="line"/>
      <point x="824" y="869"/>
      <point x="779" y="1013"/>
      <point x="544" y="1013" type="curve" smooth="yes"/>
      <point x="347" y="1013"/>
      <point x="125" y="857"/>
      <point x="125" y="857" type="curve"/>
      <point x="183" y="770" type="line"/>
      <point x="183" y="770"/>
      <point x="341" y="883"/>
      <point x="511" y="883" type="curve" smooth="yes"/>
      <point x="641" y="883"/>
      <point x="662" y="822"/>
      <point x="662" y="716" type="curve"/>
      <point x="662" y="506" type="line"/>
      <point x="536" y="504"/>
      <point x="327" y="490"/>
      <point x="248" y="467" type="curve" smooth="yes"/>
      <point x="134" y="431"/>
      <point x="71" y="373"/>
      <point x="71" y="236" type="curve" smooth="yes"/>
      <point x="71" y="11"/>
      <point x="257" y="-23"/>
    </contour>
    <contour>
      <point x="367" y="391" type="curve" smooth="yes"/>
      <point x="452" y="412"/>
      <point x="592" y="420"/>
      <point x="662" y="422" type="curve"/>
      <point x="662" y="224" type="line"/>
      <point x="624" y="193"/>
      <point x="495" y="106"/>
      <point x="370" y="106" type="curve" smooth="yes"/>
      <point x="311" y="106"/>
      <point x="237" y="139"/>
      <point x="237" y="252" type="curve" smooth="yes"/>
      <point x="237" y="308"/>
      <point x="252" y="362"/>
    </contour>
    <contour>
      <point x="541" y="-170" type="move" name="btm"/>
    </contour>
    <contour>
      <point x="1044" y="0" type="move" name="og"/>
    </contour>
    <contour>
      <point x="494" y="1700" type="move" name="top"/>
    </contour>
  </outline>
</glyph>
<glyph name="b" format="1">
  <advance width="1195"/>
  <unicode hex="0062"/>
  <outline>
    <contour>
      <point x="169" y="130" type="line" name="hr00"/>
      <point x="169" y="130"/>
      <point x="322" y="-23"/>
      <point x="574" y="-23" type="curve" smooth="yes"/>
      <point x="918" y="-23"/>
      <point x="1097" y="240"/>
      <point x="1097" y="519" type="curve" smooth="yes"/>
      <point x="1097" y="800"/>
      <point x="938" y="1013"/>
      <point x="675" y="1013" type="curve" smooth="yes"/>
      <point x="506" y="1013"/>
      <point x="332" y="883"/>
      <point x="332" y="883" type="curve"/>
      <point x="332" y="1663" type="line"/>
      <point x="39" y="1589" type="line"/>
      <point x="39" y="1508" type="line"/>
      <point x="169" y="1483" type="line"/>
    </contour>
    <contour>
      <point x="332" y="780" type="line"/>
      <point x="332" y="780"/>
      <point x="475" y="883"/>
      <point x="621" y="883" type="curve" smooth="yes"/>
      <point x="834" y="883"/>
      <point x="923" y="672"/>
      <point x="923" y="459" type="curve" smooth="yes"/>
      <point x="923" y="266"/>
      <point x="805" y="94"/>
      <point x="605" y="94" type="curve" smooth="yes"/>
      <point x="407" y="94"/>
      <point x="340" y="198"/>
      <point x="332" y="209" type="curve"/>
    </contour>
    <contour>
      <point x="680" y="-170" type="move" name="btm"/>
    </contour>
    <contour>
      <point x="601" y="0" type="move" name="og"/>
    </contour>
    <contour>
      <point x="728" y="1700" type="move" name="top"/>
    </contour>
  </outline>
</glyph>
<glyph name="c" format="1">
  <advance width="1022"/>
  <unicode hex="0063"/>
  <outline>
    <contour>
      <point x="614" y="1013" type="curve" smooth="yes" name="hr00"/>
      <point x="268" y="1013"/>
      <point x="91" y="744"/>
      <point x="91" y="471" type="curve" smooth="yes"/>
      <point x="91" y="182"/>
      <point x="280" y="-23"/>
      <point x="576" y="-23" type="curve" smooth="yes"/>
      <point x="749" y="-23"/>
      <point x="949" y="164"/>
      <point x="949" y="164" type="curve"/>
      <point x="892" y="229" type="line"/>
      <point x="892" y="229"/>
      <point x="769" y="117"/>
      <point x="621" y="117" type="curve" smooth="yes"/>
      <point x="388" y="117"/>
      <point x="266" y="294"/>
      <point x="266" y="528" type="curve" smooth="yes"/>
      <point x="266" y="711"/>
      <point x="372" y="895"/>
      <point x="612" y="895" type="curve" smooth="yes"/>
      <point x="734" y="895"/>
      <point x="817" y="850"/>
      <point x="817" y="758" type="curve"/>
      <point x="880" y="758" type="line"/>
      <point x="904" y="959" type="line"/>
      <point x="904" y="959"/>
      <point x="791" y="1013"/>
    </contour>
    <contour>
      <point x="542" y="-170" type="move" name="btm"/>
    </contour>
    <contour>
      <point x="919" y="0" type="move" name="og"/>
    </contour>
    <contour>
      <point x="558" y="1700" type="move" name="top"/>
    </contour>
  </outline>
</glyph>
<glyph name="d" format="1">
  <advance width="1196"/>
  <unicode hex="0064"/>
  <outline>
    <contour>
      <point x="849" y="964" type="line" name="hr00"/>
      <point x="786" y="989"/>
      <point x="701" y="1013"/>
      <point x="604" y="1013" type="curve" smooth="yes"/>
      <point x="258" y="1013"/>
      <point x="83" y="744"/>
      <point x="83" y="471" type="curve" smooth="yes"/>
      <point x="83" y="172"/>
      <point x="229" y="-23"/>
      <point x="536" y="-23" type="curve" smooth="yes"/>
      <point x="717" y="-23"/>
      <point x="849" y="101"/>
      <point x="849" y="101" type="curve"/>
      <point x="849" y="14"/>
      <point x="912" y="-23"/>
      <point x="995" y="-23" type="curve" smooth="yes"/>
      <point x="1070" y="-23"/>
      <point x="1209" y="52"/>
      <point x="1209" y="52" type="curve"/>
      <point x="1188" y="146" type="line"/>
      <point x="1188" y="146"/>
      <point x="1112" y="115"/>
      <point x="1065" y="115" type="curve" smooth="yes"/>
      <point x="1014" y="115"/>
      <point x="1011" y="137"/>
      <point x="1011" y="160" type="curve"/>
      <point x="1011" y="1663" type="line"/>
      <point x="696" y="1589" type="line"/>
      <point x="696" y="1508" type="line"/>
      <point x="849" y="1477" type="line"/>
    </contour>
    <contour>
      <point x="849" y="212" type="line"/>
      <point x="849" y="212"/>
      <point x="703" y="117"/>
      <point x="582" y="117" type="curve" smooth="yes"/>
      <point x="359" y="117"/>
      <point x="256" y="297"/>
      <point x="256" y="492" type="curve" smooth="yes"/>
      <point x="256" y="716"/>
      <point x="375" y="895"/>
      <point x="575" y="895" type="curve" smooth="yes"/>
      <point x="771" y="895"/>
      <point x="842" y="791"/>
      <point x="849" y="780" type="curve"/>
    </contour>
    <contour>
      <point x="532" y="-170" type="move" name="btm"/>
    </contour>
    <contour>
      <point x="1225" y="0" type="move" name="cdl"/>
    </contour>
    <contour>
      <point x="1190" y="0" type="move" name="og"/>
    </contour>
    <contour>
      <point x="451" y="1700" type="move" name="top"/>
    </contour>
  </outline>
</glyph>
<glyph name="e" format="1">
  <advance width="1025"/>
  <unicode hex="0065"/>
  <outline>
    <contour>
      <point x="882" y="229" type="line" name="hr00"/>
      <point x="882" y="229"/>
      <point x="759" y="117"/>
      <point x="611" y="117" type="curve" smooth="yes"/>
      <point x="442" y="117"/>
      <point x="253" y="243"/>
      <point x="250" y="504" type="curve"/>
      <point x="902" y="551" type="line"/>
      <point x="949" y="593" type="line"/>
      <point x="949" y="852"/>
      <point x="771" y="1013"/>
      <point x="569" y="1013" type="curve" smooth="yes"/>
      <point x="250" y="1013"/>
      <point x="71" y="744"/>
      <point x="71" y="471" type="curve" smooth="yes"/>
      <point x="71" y="182"/>
      <point x="270" y="-23"/>
      <point x="566" y="-23" type="curve" smooth="yes"/>
      <point x="739" y="-23"/>
      <point x="939" y="164"/>
      <point x="939" y="164" type="curve"/>
    </contour>
    <contour>
      <point x="539" y="895" type="curve" smooth="yes"/>
      <point x="701" y="895"/>
      <point x="766" y="766"/>
      <point x="771" y="645" type="curve"/>
      <point x="603" y="631"/>
      <point x="425" y="612"/>
      <point x="257" y="598" type="curve"/>
      <point x="262" y="692"/>
      <point x="345" y="895"/>
    </contour>
    <contour>
      <point x="566" y="-170" type="move" name="btm"/>
    </contour>
    <contour>
      <point x="911" y="0" type="move" name="og"/>
    </contour>
    <contour>
      <point x="545" y="1700" type="move" name="top"/>
    </contour>
  </outline>
</glyph>
<glyph name="f" format="1">
  <advance width="690"/>
  <unicode hex="0066"/>
  <outline>
    <contour>
      <point x="347" y="872" type="line" name="hr01"/>
      <point x="651" y="872" type="line"/>
      <point x="651" y="989" type="line"/>
      <point x="347" y="989" type="line"/>
      <point x="347" y="1270" type="line" smooth="yes"/>
      <point x="347" y="1456"/>
      <point x="438" y="1544"/>
      <point x="543" y="1544" type="curve" smooth="yes"/>
      <point x="644" y="1544"/>
      <point x="676" y="1465"/>
      <point x="676" y="1394" type="curve"/>
      <point x="741" y="1394" type="line"/>
      <point x="809" y="1571" type="line"/>
      <point x="809" y="1571"/>
      <point x="759" y="1663"/>
      <point x="573" y="1663" type="curve" smooth="yes"/>
      <point x="314" y="1663"/>
      <point x="185" y="1382"/>
      <point x="185" y="1201" type="curve" smooth="yes"/>
      <point x="185" y="989" type="line" name="hr02"/>
      <point x="47" y="959" type="line"/>
      <point x="47" y="876" type="line"/>
      <point x="185" y="876" type="line"/>
      <point x="185" y="106" type="line"/>
      <point x="47" y="83" type="line"/>
      <point x="47" y="0" type="line"/>
      <point x="564" y="0" type="line"/>
      <point x="564" y="83" type="line"/>
      <point x="347" y="110" type="line"/>
    </contour>
    <contour>
      <point x="264" y="2120" type="move" name="top"/>
    </contour>
  </outline>
</glyph>
<glyph name="g" format="1">
  <advance width="1196"/>
  <unicode hex="0067"/>
  <outline>
    <contour>
      <point x="555" y="1013" type="curve" smooth="yes" name="hr01"/>
      <point x="390" y="1013"/>
      <point x="140" y="867"/>
      <point x="140" y="629" type="curve" smooth="yes"/>
      <point x="140" y="370"/>
      <point x="345" y="292"/>
      <point x="429" y="274" type="curve"/>
      <point x="236" y="184"/>
      <point x="192" y="165"/>
      <point x="192" y="100" type="curve" smooth="yes" name="hr02"/>
      <point x="192" y="28"/>
      <point x="272" y="-20"/>
      <point x="355" y="-36" type="curve"/>
      <point x="310" y="-48"/>
      <point x="263" y="-55"/>
      <point x="227" y="-73" type="curve" smooth="yes"/>
      <point x="130" y="-128"/>
      <point x="69" y="-165"/>
      <point x="69" y="-281" type="curve" smooth="yes" name="hr03"/>
      <point x="69" y="-478"/>
      <point x="260" y="-560"/>
      <point x="501" y="-560" type="curve" smooth="yes"/>
      <point x="748" y="-560"/>
      <point x="1035" y="-408"/>
      <point x="1035" y="-184" type="curve" smooth="yes"/>
      <point x="1035" y="44"/>
      <point x="810" y="88"/>
      <point x="559" y="88" type="curve" smooth="yes"/>
      <point x="404" y="88"/>
      <point x="357" y="122"/>
      <point x="357" y="140" type="curve" smooth="yes" name="hr04"/>
      <point x="357" y="171"/>
      <point x="390" y="186"/>
      <point x="654" y="283" type="curve"/>
      <point x="654" y="283"/>
      <point x="973" y="398"/>
      <point x="973" y="654" type="curve" smooth="yes"/>
      <point x="973" y="723"/>
      <point x="960" y="787"/>
      <point x="926" y="843" type="curve"/>
      <point x="1056" y="843" type="line"/>
      <point x="1103" y="980" type="line"/>
      <point x="1076" y="1011" type="line"/>
      <point x="973" y="998"/>
      <point x="874" y="964"/>
      <point x="838" y="940" type="curve"/>
      <point x="771" y="984"/>
      <point x="679" y="1013"/>
    </contour>
    <contour>
      <point x="244" y="-276" type="curve" smooth="yes" name="hr06"/>
      <point x="244" y="-210"/>
      <point x="263" y="-182"/>
      <point x="319" y="-137" type="curve" smooth="yes"/>
      <point x="378" y="-90"/>
      <point x="458" y="-67"/>
      <point x="557" y="-67" type="curve" smooth="yes"/>
      <point x="716" y="-67"/>
      <point x="860" y="-87"/>
      <point x="860" y="-222" type="curve" smooth="yes"/>
      <point x="860" y="-368"/>
      <point x="723" y="-456"/>
      <point x="573" y="-456" type="curve" smooth="yes"/>
      <point x="427" y="-456"/>
      <point x="244" y="-433"/>
    </contour>
    <contour>
      <point x="305" y="654" type="curve" smooth="yes" name="hr07"/>
      <point x="305" y="848"/>
      <point x="427" y="910"/>
      <point x="543" y="910" type="curve" smooth="yes"/>
      <point x="689" y="910"/>
      <point x="809" y="796"/>
      <point x="809" y="618" type="curve" smooth="yes"/>
      <point x="809" y="427"/>
      <point x="665" y="373"/>
      <point x="571" y="373" type="curve" smooth="yes"/>
      <point x="425" y="373"/>
      <point x="305" y="474"/>
    </contour>
    <contour>
      <point x="541" y="-170" type="move" name="btm"/>
    </contour>
    <contour>
      <point x="566" y="0" type="move" name="og"/>
    </contour>
    <contour>
      <point x="553" y="1700" type="move" name="top"/>
    </contour>
  </outline>
</glyph>
<glyph name="h" format="1">
  <advance width="1196"/>
  <unicode hex="0068"/>
  <outline>
    <contour>
      <point x="198" y="106" type="line" name="hr01"/>
      <point x="68" y="83" type="line" name="hr02"/>
      <point x="68" y="0" type="line"/>
      <point x="488" y="0" type="line"/>
      <point x="488" y="83" type="line"/>
      <point x="361" y="106" type="line" name="hr03"/>
      <point x="361" y="777" type="line"/>
      <point x="361" y="777"/>
      <point x="507" y="883"/>
      <point x="673" y="883" type="curve" smooth="yes"/>
      <point x="792" y="883"/>
      <point x="853" y="815"/>
      <point x="853" y="685" type="curve"/>
      <point x="853" y="106" type="line"/>
      <point x="724" y="83" type="line" name="hr04"/>
      <point x="724" y="0" type="line"/>
      <point x="1143" y="0" type="line"/>
      <point x="1143" y="83" type="line"/>
      <point x="1016" y="106" type="line" name="hr05"/>
      <point x="1016" y="704" type="line"/>
      <point x="1016" y="912"/>
      <point x="900" y="1013"/>
      <point x="724" y="1013" type="curve"/>
      <point x="538" y="1013"/>
      <point x="361" y="883"/>
      <point x="361" y="883" type="curve"/>
      <point x="361" y="1663" type="line"/>
      <point x="68" y="1589" type="line"/>
      <point x="68" y="1508" type="line"/>
      <point x="198" y="1483" type="line"/>
    </contour>
    <contour>
      <point x="643" y="-170" type="move" name="btm"/>
    </contour>
    <contour>
      <point x="607" y="0" type="move" name="og"/>
    </contour>
    <contour>
      <point x="283" y="1700" type="move" name="top"/>
    </contour>
  </outline>
</glyph>
<glyph name="i" format="1">
  <advance width="513"/>
  <unicode hex="0069"/>
  <outline>
    <contour>
      <point x="342" y="1013" type="line" name="hr01"/>
      <point x="50" y="940" type="line"/>
      <point x="50" y="857" type="line"/>
      <point x="180" y="834" type="line"/>
      <point x="180" y="106" type="line" name="hr02"/>
      <point x="50" y="83" type="line" name="hr03"/>
      <point x="50" y="0" type="line"/>
      <point x="470" y="0" type="line"/>
      <point x="470" y="83" type="line"/>
      <point x="342" y="106" type="line" name="hr04"/>
    </contour>
    <contour>
      <point x="138" y="1402" type="curve" smooth="yes" name="hr05"/>
      <point x="138" y="1344"/>
      <point x="198" y="1279"/>
      <point x="251" y="1279" type="curve" smooth="yes"/>
      <point x="308" y="1279"/>
      <point x="369" y="1344"/>
      <point x="369" y="1402" type="curve" smooth="yes"/>
      <point x="369" y="1458"/>
      <point x="308" y="1524"/>
      <point x="251" y="1524" type="curve" smooth="yes"/>
      <point x="198" y="1524"/>
      <point x="138" y="1458"/>
    </contour>
    <contour>
      <point x="280" y="-170" type="move" name="btm"/>
    </contour>
    <contour>
      <point x="488" y="0" type="move" name="og"/>
    </contour>
    <contour>
      <point x="280" y="1700" type="move" name="top"/>
    </contour>
  </outline>
</glyph>
<glyph name="j" format="1">
  <advance width="513"/>
  <unicode hex="006A"/>
  <outline>
    <contour>
      <point x="-5" y="-337" type="curve" smooth="yes" name="hr01"/>
      <point x="-53" y="-337"/>
      <point x="-80" y="-299"/>
      <point x="-80" y="-276" type="curve"/>
      <point x="-120" y="-276" type="line"/>
      <point x="-174" y="-463" type="line"/>
      <point x="-174" y="-463"/>
      <point x="-118" y="-486"/>
      <point x="-19" y="-486" type="curve" smooth="yes"/>
      <point x="26" y="-486"/>
      <point x="101" y="-449"/>
      <point x="169" y="-373" type="curve" smooth="yes"/>
      <point x="297" y="-236"/>
      <point x="338" y="-74"/>
      <point x="338" y="167" type="curve"/>
      <point x="338" y="1013" type="line"/>
      <point x="46" y="940" type="line"/>
      <point x="46" y="857" type="line"/>
      <point x="176" y="834" type="line"/>
      <point x="176" y="9" type="line"/>
      <point x="176" y="-225"/>
      <point x="118" y="-337"/>
    </contour>
    <contour>
      <point x="134" y="1402" type="curve" smooth="yes" name="hr02"/>
      <point x="134" y="1344"/>
      <point x="195" y="1279"/>
      <point x="249" y="1279" type="curve" smooth="yes"/>
      <point x="303" y="1279"/>
      <point x="365" y="1344"/>
      <point x="365" y="1402" type="curve" smooth="yes"/>
      <point x="365" y="1458"/>
      <point x="303" y="1524"/>
      <point x="249" y="1524" type="curve" smooth="yes"/>
      <point x="195" y="1524"/>
      <point x="134" y="1458"/>
    </contour>
    <contour>
      <point x="264" y="-170" type="move" name="btm"/>
    </contour>
    <contour>
      <point x="105" y="0" type="move" name="og"/>
    </contour>
    <contour>
      <point x="105" y="1700" type="move" name="top"/>
    </contour>
  </outline>
</glyph>
<glyph name="k" format="1">
  <advance width="1193"/>
  <unicode hex="006B"/>
  <outline>
    <contour>
      <point x="355" y="1663" type="line" name="hr00"/>
      <point x="62" y="1589" type="line"/>
      <point x="62" y="1508" type="line"/>
      <point x="192" y="1483" type="line"/>
      <point x="192" y="106" type="line"/>
      <point x="62" y="83" type="line"/>
      <point x="62" y="0" type="line"/>
      <point x="482" y="0" type="line"/>
      <point x="482" y="83" type="line"/>
      <point x="355" y="106" type="line"/>
    </contour>
    <contour>
      <point x="363" y="532" type="line"/>
      <point x="855" y="0" type="line"/>
      <point x="1136" y="0" type="line"/>
      <point x="1136" y="83" type="line"/>
      <point x="1028" y="99" type="line"/>
      <point x="963" y="132" type="line"/>
      <point x="543" y="558" type="line"/>
      <point x="966" y="883" type="line"/>
      <point x="1122" y="906" type="line"/>
      <point x="1122" y="989" type="line"/>
      <point x="721" y="989" type="line"/>
      <point x="721" y="906" type="line"/>
      <point x="810" y="885" type="line"/>
    </contour>
    <contour>
      <point x="599" y="-170" type="move" name="btm"/>
    </contour>
    <contour>
      <point x="599" y="0" type="move" name="og"/>
    </contour>
    <contour>
      <point x="599" y="1700" type="move" name="top"/>
    </contour>
  </outline>
</glyph>
<glyph name="l" format="1">
  <advance width="513"/>
  <unicode hex="006C"/>
  <outline>
    <contour>
      <point x="335" y="1663" type="line" name="hr01"/>
      <point x="43" y="1589" type="line"/>
      <point x="43" y="1508" type="line"/>
      <point x="173" y="1483" type="line"/>
      <point x="173" y="106" type="line" name="hr02"/>
      <point x="43" y="83" type="line" name="hr03"/>
      <point x="43" y="0" type="line"/>
      <point x="463" y="0" type="line"/>
      <point x="463" y="83" type="line"/>
      <point x="335" y="106" type="line" name="hr04"/>
    </contour>
    <contour>
      <point x="280" y="-170" type="move" name="btm"/>
    </contour>
    <contour>
      <point x="592" y="0" type="move" name="cdl"/>
    </contour>
    <contour>
      <point x="489" y="0" type="move" name="og"/>
    </contour>
    <contour>
      <point x="280" y="1700" type="move" name="top"/>
    </contour>
  </outline>
</glyph>
<glyph name="m" format="1">
  <advance width="1878"/>
  <unicode hex="006D"/>
  <outline>
    <contour>
      <point x="221" y="106" type="line" name="hr01"/>
      <point x="92" y="83" type="line" name="hr02"/>
      <point x="92" y="0" type="line"/>
      <point x="510" y="0" type="line"/>
      <point x="510" y="83" type="line"/>
      <point x="383" y="106" type="line" name="hr03"/>
      <point x="383" y="777" type="line"/>
      <point x="383" y="777"/>
      <point x="520" y="883"/>
      <point x="708" y="883" type="curve" smooth="yes"/>
      <point x="789" y="883"/>
      <point x="870" y="834"/>
      <point x="870" y="704" type="curve"/>
      <point x="870" y="106" type="line"/>
      <point x="753" y="83" type="line" name="hr04"/>
      <point x="753" y="0" type="line"/>
      <point x="1149" y="0" type="line"/>
      <point x="1149" y="83" type="line"/>
      <point x="1034" y="106" type="line" name="hr05"/>
      <point x="1034" y="704" type="line"/>
      <point x="1034" y="733"/>
      <point x="1031" y="753"/>
      <point x="1029" y="780" type="curve"/>
      <point x="1029" y="780"/>
      <point x="1160" y="883"/>
      <point x="1344" y="883" type="curve"/>
      <point x="1422" y="883"/>
      <point x="1509" y="834"/>
      <point x="1509" y="704" type="curve"/>
      <point x="1509" y="106" type="line"/>
      <point x="1382" y="83" type="line" name="hr06"/>
      <point x="1382" y="0" type="line"/>
      <point x="1798" y="0" type="line"/>
      <point x="1798" y="83" type="line"/>
      <point x="1672" y="106" type="line" name="hr07"/>
      <point x="1672" y="704" type="line"/>
      <point x="1672" y="912"/>
      <point x="1573" y="1013"/>
      <point x="1371" y="1013" type="curve" smooth="yes"/>
      <point x="1191" y="1013"/>
      <point x="1007" y="881"/>
      <point x="1007" y="881" type="curve"/>
      <point x="967" y="966"/>
      <point x="870" y="1013"/>
      <point x="737" y="1013" type="curve" smooth="yes"/>
      <point x="558" y="1013"/>
      <point x="383" y="883"/>
      <point x="383" y="883" type="curve"/>
      <point x="383" y="1013" type="line"/>
      <point x="92" y="940" type="line"/>
      <point x="92" y="857" type="line"/>
      <point x="221" y="834" type="line"/>
    </contour>
    <contour>
      <point x="929" y="-170" type="move" name="btm"/>
    </contour>
    <contour>
      <point x="929" y="0" type="move" name="og"/>
    </contour>
    <contour>
      <point x="929" y="1700" type="move" name="top"/>
    </contour>
  </outline>
</glyph>
<glyph name="n" format="1">
  <advance width="1196"/>
  <unicode hex="006E"/>
  <outline>
    <contour>
      <point x="202" y="106" type="line" name="hr01"/>
      <point x="72" y="83" type="line" name="hr02"/>
      <point x="72" y="0" type="line"/>
      <point x="492" y="0" type="line"/>
      <point x="492" y="83" type="line"/>
      <point x="365" y="106" type="line" name="hr03"/>
      <point x="365" y="777" type="line"/>
      <point x="365" y="777"/>
      <point x="506" y="883"/>
      <point x="672" y="883" type="curve" smooth="yes"/>
      <point x="791" y="883"/>
      <point x="852" y="815"/>
      <point x="852" y="685" type="curve" smooth="yes"/>
      <point x="852" y="106" type="line"/>
      <point x="723" y="83" type="line" name="hr04"/>
      <point x="723" y="0" type="line"/>
      <point x="1142" y="0" type="line"/>
      <point x="1142" y="83" type="line"/>
      <point x="1015" y="106" type="line" name="hr05"/>
      <point x="1015" y="704" type="line" smooth="yes"/>
      <point x="1015" y="912"/>
      <point x="899" y="1013"/>
      <point x="723" y="1013" type="curve" smooth="yes"/>
      <point x="537" y="1013"/>
      <point x="348" y="883"/>
      <point x="348" y="883" type="curve"/>
      <point x="348" y="1013" type="line"/>
      <point x="72" y="940" type="line"/>
      <point x="72" y="857" type="line"/>
      <point x="202" y="834" type="line"/>
    </contour>
    <contour>
      <point x="639" y="-170" type="move" name="btm"/>
    </contour>
    <contour>
      <point x="607" y="0" type="move" name="og"/>
    </contour>
    <contour>
      <point x="643" y="1700" type="move" name="top"/>
    </contour>
  </outline>
</glyph>
<glyph name="o" format="1">
  <advance width="1194"/>
  <unicode hex="006F"/>
  <outline>
    <contour>
      <point x="101" y="478" type="curve" smooth="yes" name="hr00"/>
      <point x="101" y="195"/>
      <point x="278" y="-23"/>
      <point x="602" y="-23" type="curve" smooth="yes"/>
      <point x="871" y="-23"/>
      <point x="1092" y="189"/>
      <point x="1092" y="519" type="curve" smooth="yes"/>
      <point x="1092" y="800"/>
      <point x="919" y="1013"/>
      <point x="593" y="1013" type="curve" smooth="yes"/>
      <point x="327" y="1013"/>
      <point x="101" y="807"/>
    </contour>
    <contour>
      <point x="276" y="516" type="curve" smooth="yes"/>
      <point x="276" y="726"/>
      <point x="388" y="895"/>
      <point x="591" y="895" type="curve" smooth="yes"/>
      <point x="847" y="895"/>
      <point x="919" y="674"/>
      <point x="919" y="459" type="curve" smooth="yes"/>
      <point x="919" y="240"/>
      <point x="806" y="94"/>
      <point x="600" y="94" type="curve" smooth="yes"/>
      <point x="370" y="94"/>
      <point x="276" y="297"/>
    </contour>
    <contour>
      <point x="596" y="-170" type="move" name="btm"/>
    </contour>
    <contour>
      <point x="596" y="0" type="move" name="og"/>
    </contour>
    <contour>
      <point x="596" y="1700" type="move" name="top"/>
    </contour>
  </outline>
</glyph>
<glyph name="p" format="1">
  <advance width="1194"/>
  <unicode hex="0070"/>
  <outline>
    <contour>
      <point x="335" y="26" type="line" name="hr01"/>
      <point x="397" y="0"/>
      <point x="483" y="-23"/>
      <point x="577" y="-23" type="curve" smooth="yes"/>
      <point x="923" y="-23"/>
      <point x="1100" y="245"/>
      <point x="1100" y="519" type="curve" smooth="yes"/>
      <point x="1100" y="818"/>
      <point x="923" y="1013"/>
      <point x="681" y="1013" type="curve" name="hr02"/>
      <point x="500" y="1013"/>
      <point x="335" y="881"/>
      <point x="335" y="881" type="curve"/>
      <point x="335" y="1013" type="line"/>
      <point x="42" y="946" type="line"/>
      <point x="42" y="865" type="line"/>
      <point x="172" y="841" type="line"/>
      <point x="172" y="-454" type="line"/>
      <point x="42" y="-477" type="line"/>
      <point x="42" y="-560" type="line"/>
      <point x="462" y="-560" type="line"/>
      <point x="462" y="-477" type="line"/>
      <point x="335" y="-454" type="line"/>
    </contour>
    <contour>
      <point x="335" y="780" type="line"/>
      <point x="335" y="780"/>
      <point x="478" y="883"/>
      <point x="622" y="883" type="curve" smooth="yes"/>
      <point x="824" y="883"/>
      <point x="926" y="692"/>
      <point x="926" y="461" type="curve" smooth="yes"/>
      <point x="926" y="274"/>
      <point x="808" y="94"/>
      <point x="608" y="94" type="curve" smooth="yes"/>
      <point x="410" y="94"/>
      <point x="343" y="198"/>
      <point x="335" y="209" type="curve"/>
    </contour>
    <contour>
      <point x="715" y="-170" type="move" name="btm"/>
    </contour>
    <contour>
      <point x="601" y="0" type="move" name="og"/>
    </contour>
    <contour>
      <point x="680" y="1700" type="move" name="top"/>
    </contour>
  </outline>
</glyph>
<glyph name="q" format="1">
  <advance width="1196"/>
  <unicode hex="0071"/>
  <outline>
    <contour>
      <point x="1020" y="1013" type="line" name="hr00"/>
      <point x="986" y="1013" type="line"/>
      <point x="932" y="923" type="line"/>
      <point x="867" y="966"/>
      <point x="759" y="1013"/>
      <point x="613" y="1013" type="curve" smooth="yes"/>
      <point x="269" y="1013"/>
      <point x="89" y="749"/>
      <point x="89" y="471" type="curve" smooth="yes"/>
      <point x="89" y="189"/>
      <point x="224" y="-23"/>
      <point x="514" y="-23" type="curve" smooth="yes"/>
      <point x="701" y="-23"/>
      <point x="858" y="106"/>
      <point x="858" y="106" type="curve"/>
      <point x="858" y="-454" type="line"/>
      <point x="730" y="-477" type="line"/>
      <point x="730" y="-560" type="line"/>
      <point x="1147" y="-560" type="line"/>
      <point x="1147" y="-477" type="line"/>
      <point x="1020" y="-454" type="line"/>
    </contour>
    <contour>
      <point x="858" y="212" type="line"/>
      <point x="858" y="212"/>
      <point x="712" y="117"/>
      <point x="568" y="117" type="curve" smooth="yes"/>
      <point x="355" y="117"/>
      <point x="264" y="278"/>
      <point x="264" y="478" type="curve" smooth="yes"/>
      <point x="264" y="743"/>
      <point x="384" y="895"/>
      <point x="582" y="895" type="curve" smooth="yes"/>
      <point x="773" y="895"/>
      <point x="847" y="791"/>
      <point x="858" y="775" type="curve"/>
    </contour>
    <contour>
      <point x="578" y="-170" type="move" name="btm"/>
    </contour>
    <contour>
      <point x="578" y="0" type="move" name="og"/>
    </contour>
    <contour>
      <point x="507" y="1700" type="move" name="top"/>
    </contour>
  </outline>
</glyph>
<glyph name="r" format="1">
  <advance width="853"/>
  <unicode hex="0072"/>
  <outline>
    <contour>
      <point x="170" y="106" type="line" name="hr01"/>
      <point x="42" y="83" type="line" name="hr02"/>
      <point x="42" y="0" type="line"/>
      <point x="530" y="0" type="line"/>
      <point x="530" y="83" type="line"/>
      <point x="332" y="106" type="line" name="hr03"/>
      <point x="332" y="641" type="line"/>
      <point x="332" y="641"/>
      <point x="525" y="854"/>
      <point x="637" y="854" type="curve" smooth="yes"/>
      <point x="693" y="854"/>
      <point x="754" y="818"/>
      <point x="754" y="775" type="curve"/>
      <point x="801" y="775" type="line"/>
      <point x="853" y="937" type="line"/>
      <point x="853" y="937"/>
      <point x="781" y="1013"/>
      <point x="678" y="1013" type="curve"/>
      <point x="554" y="1013"/>
      <point x="332" y="758"/>
      <point x="332" y="758" type="curve"/>
      <point x="332" y="1013" type="line"/>
      <point x="42" y="940" type="line"/>
      <point x="42" y="857" type="line"/>
      <point x="170" y="834" type="line"/>
    </contour>
    <contour>
      <point x="286" y="-170" type="move" name="btm"/>
    </contour>
    <contour>
      <point x="464" y="0" type="move" name="og"/>
    </contour>
    <contour>
      <point x="358" y="1700" type="move" name="top"/>
    </contour>
  </outline>
</glyph>
<glyph name="s" format="1">
  <advance width="853"/>
  <unicode hex="0073"/>
  <outline>
    <contour>
      <point x="427" y="83" type="curve" smooth="yes" name="hr01"/>
      <point x="227" y="83"/>
      <point x="171" y="179"/>
      <point x="171" y="292" type="curve" name="hr02"/>
      <point x="119" y="292" type="line"/>
      <point x="81" y="83" type="line"/>
      <point x="81" y="83"/>
      <point x="211" y="-23"/>
      <point x="429" y="-23" type="curve" smooth="yes"/>
      <point x="586" y="-23"/>
      <point x="804" y="56"/>
      <point x="804" y="256" type="curve" smooth="yes"/>
      <point x="804" y="358"/>
      <point x="774" y="478"/>
      <point x="521" y="570" type="curve" smooth="yes"/>
      <point x="324" y="642"/>
      <point x="260" y="711"/>
      <point x="260" y="782" type="curve" smooth="yes" name="hr03"/>
      <point x="260" y="852"/>
      <point x="324" y="906"/>
      <point x="445" y="906" type="curve" smooth="yes"/>
      <point x="560" y="906"/>
      <point x="654" y="869"/>
      <point x="654" y="749" type="curve"/>
      <point x="708" y="749" type="line"/>
      <point x="731" y="942" type="line"/>
      <point x="731" y="942"/>
      <point x="627" y="1013"/>
      <point x="450" y="1013" type="curve" smooth="yes"/>
      <point x="279" y="1013"/>
      <point x="107" y="909"/>
      <point x="107" y="743" type="curve" smooth="yes"/>
      <point x="107" y="633"/>
      <point x="161" y="519"/>
      <point x="402" y="436" type="curve" smooth="yes"/>
      <point x="610" y="364"/>
      <point x="635" y="290"/>
      <point x="635" y="224" type="curve" smooth="yes" name="hr04"/>
      <point x="635" y="150"/>
      <point x="562" y="83"/>
    </contour>
    <contour>
      <point x="422" y="-170" type="move" name="btm"/>
    </contour>
    <contour>
      <point x="422" y="0" type="move" name="og"/>
    </contour>
    <contour>
      <point x="422" y="1700" type="move" name="top"/>
    </contour>
  </outline>
</glyph>
<glyph name="t" format="1">
  <advance width="684"/>
  <unicode hex="0074"/>
  <outline>
    <contour>
      <point x="335" y="989" type="line" name="hr00"/>
      <point x="335" y="1241" type="line"/>
      <point x="291" y="1241" type="line"/>
      <point x="173" y="1123" type="line"/>
      <point x="173" y="989" type="line"/>
      <point x="46" y="959" type="line"/>
      <point x="46" y="872" type="line"/>
      <point x="173" y="872" type="line"/>
      <point x="173" y="317" type="line"/>
      <point x="173" y="110"/>
      <point x="261" y="-23"/>
      <point x="447" y="-23" type="curve" smooth="yes"/>
      <point x="554" y="-23"/>
      <point x="716" y="110"/>
      <point x="716" y="110" type="curve"/>
      <point x="662" y="176" type="line"/>
      <point x="662" y="176"/>
      <point x="583" y="106"/>
      <point x="508" y="106" type="curve" smooth="yes"/>
      <point x="381" y="106"/>
      <point x="335" y="175"/>
      <point x="335" y="306" type="curve"/>
      <point x="335" y="872" type="line"/>
      <point x="665" y="872" type="line"/>
      <point x="665" y="989" type="line"/>
    </contour>
    <contour>
      <point x="386" y="-170" type="move" name="btm"/>
    </contour>
    <contour>
      <point x="575" y="0" type="move" name="cdl"/>
    </contour>
    <contour>
      <point x="729" y="0" type="move" name="og"/>
    </contour>
    <contour>
      <point x="386" y="1700" type="move" name="top"/>
    </contour>
  </outline>
</glyph>
<glyph name="u" format="1">
  <advance width="1194"/>
  <unicode hex="0075"/>
  <outline>
    <contour>
      <point x="808" y="101" type="line" name="hr01"/>
      <point x="808" y="23"/>
      <point x="874" y="-23"/>
      <point x="954" y="-23" type="curve" smooth="yes" name="hr02"/>
      <point x="1015" y="-23"/>
      <point x="1128" y="42"/>
      <point x="1128" y="42" type="curve"/>
      <point x="1107" y="136" type="line"/>
      <point x="1107" y="136"/>
      <point x="1055" y="115"/>
      <point x="1024" y="115" type="curve" smooth="yes"/>
      <point x="992" y="115"/>
      <point x="970" y="132"/>
      <point x="970" y="169" type="curve"/>
      <point x="970" y="1013" type="line"/>
      <point x="657" y="937" type="line"/>
      <point x="657" y="854" type="line"/>
      <point x="808" y="834" type="line"/>
      <point x="808" y="227" type="line"/>
      <point x="808" y="227"/>
      <point x="685" y="106"/>
      <point x="521" y="106" type="curve" smooth="yes" name="hr03"/>
      <point x="433" y="106"/>
      <point x="332" y="155"/>
      <point x="332" y="285" type="curve"/>
      <point x="332" y="1013" type="line"/>
      <point x="51" y="942" type="line"/>
      <point x="51" y="854" type="line"/>
      <point x="170" y="834" type="line"/>
      <point x="170" y="285" type="line"/>
      <point x="170" y="78"/>
      <point x="283" y="-23"/>
      <point x="469" y="-23" type="curve" smooth="yes"/>
      <point x="651" y="-23"/>
      <point x="808" y="115"/>
      <point x="808" y="115" type="curve"/>
    </contour>
    <contour>
      <point x="545" y="-170" type="move" name="btm"/>
    </contour>
    <contour>
      <point x="1190" y="0" type="move" name="og"/>
    </contour>
    <contour>
      <point x="553" y="1700" type="move" name="top"/>
    </contour>
  </outline>
</glyph>
<glyph name="v" format="1">
  <advance width="1024"/>
  <unicode hex="0076"/>
  <outline>
    <contour>
      <point x="945" y="883" type="line" name="hr01"/>
      <point x="1035" y="906" type="line"/>
      <point x="1035" y="989" type="line"/>
      <point x="710" y="989" type="line"/>
      <point x="710" y="906" type="line"/>
      <point x="823" y="888" type="line"/>
      <point x="542" y="162" type="line"/>
      <point x="244" y="883" type="line"/>
      <point x="359" y="906" type="line"/>
      <point x="359" y="989" type="line"/>
      <point x="-30" y="989" type="line"/>
      <point x="-30" y="906" type="line"/>
      <point x="60" y="883" type="line"/>
      <point x="435" y="0" type="line"/>
      <point x="574" y="0" type="line"/>
    </contour>
    <contour>
      <point x="512" y="-170" type="move" name="btm"/>
    </contour>
    <contour>
      <point x="512" y="0" type="move" name="og"/>
    </contour>
    <contour>
      <point x="512" y="1700" type="move" name="top"/>
    </contour>
  </outline>
</glyph>
<glyph name="w" format="1">
  <advance width="1708"/>
  <unicode hex="0077"/>
  <outline>
    <contour>
      <point x="1601" y="883" type="line" name="hr01"/>
      <point x="1713" y="906" type="line" name="hr02"/>
      <point x="1713" y="989" type="line"/>
      <point x="1365" y="989" type="line"/>
      <point x="1365" y="906" type="line"/>
      <point x="1481" y="888" type="line"/>
      <point x="1394" y="652"/>
      <point x="1304" y="398"/>
      <point x="1219" y="162" type="curve"/>
      <point x="960" y="883" type="line"/>
      <point x="1083" y="906" type="line"/>
      <point x="1083" y="989" type="line"/>
      <point x="647" y="989" type="line"/>
      <point x="647" y="906" type="line"/>
      <point x="774" y="883" type="line"/>
      <point x="803" y="834" type="line"/>
      <point x="567" y="162" type="line"/>
      <point x="293" y="883" type="line"/>
      <point x="409" y="906" type="line"/>
      <point x="409" y="989" type="line"/>
      <point x="-4" y="989" type="line"/>
      <point x="-4" y="906" type="line"/>
      <point x="110" y="883" type="line"/>
      <point x="461" y="0" type="line"/>
      <point x="600" y="0" type="line"/>
      <point x="861" y="707" type="line"/>
      <point x="1113" y="0" type="line"/>
      <point x="1252" y="0" type="line"/>
    </contour>
    <contour>
      <point x="854" y="-170" type="move" name="btm"/>
    </contour>
    <contour>
      <point x="854" y="0" type="move" name="og"/>
    </contour>
    <contour>
      <point x="854" y="1700" type="move" name="top"/>
    </contour>
  </outline>
</glyph>
<glyph name="x" format="1">
  <advance width="1024"/>
  <unicode hex="0078"/>
  <outline>
    <contour>
      <point x="164" y="883" type="line" name="hr01"/>
      <point x="435" y="499" type="line"/>
      <point x="138" y="106" type="line"/>
      <point x="-6" y="83" type="line" name="hr02"/>
      <point x="-6" y="0" type="line"/>
      <point x="374" y="0" type="line"/>
      <point x="374" y="83" type="line"/>
      <point x="270" y="106" type="line"/>
      <point x="497" y="422" type="line"/>
      <point x="725" y="106" type="line"/>
      <point x="599" y="83" type="line"/>
      <point x="599" y="0" type="line"/>
      <point x="1061" y="0" type="line"/>
      <point x="1061" y="83" type="line"/>
      <point x="920" y="106" type="line"/>
      <point x="623" y="521" type="line"/>
      <point x="901" y="885" type="line"/>
      <point x="1035" y="906" type="line"/>
      <point x="1035" y="989" type="line"/>
      <point x="666" y="989" type="line"/>
      <point x="666" y="906" type="line"/>
      <point x="769" y="883" type="line"/>
      <point x="562" y="595" type="line"/>
      <point x="359" y="883" type="line"/>
      <point x="501" y="906" type="line"/>
      <point x="501" y="989" type="line"/>
      <point x="18" y="989" type="line"/>
      <point x="18" y="906" type="line"/>
    </contour>
    <contour>
      <point x="512" y="-170" type="move" name="btm"/>
    </contour>
    <contour>
      <point x="512" y="0" type="move" name="og"/>
    </contour>
    <contour>
      <point x="512" y="1700" type="move" name="top"/>
    </contour>
  </outline>
</glyph>
<glyph name="y" format="1">
  <advance width="1030"/>
  <unicode hex="0079"/>
  <outline>
    <contour>
      <point x="944" y="883" type="line" name="hr01"/>
      <point x="1081" y="906" type="line" name="hr02"/>
      <point x="1081" y="989" type="line"/>
      <point x="688" y="989" type="line"/>
      <point x="688" y="906" type="line"/>
      <point x="822" y="888" type="line"/>
      <point x="528" y="209" type="line"/>
      <point x="250" y="883" type="line"/>
      <point x="374" y="906" type="line"/>
      <point x="374" y="989" type="line"/>
      <point x="-72" y="989" type="line"/>
      <point x="-72" y="906" type="line"/>
      <point x="65" y="883" type="line"/>
      <point x="175" y="607"/>
      <point x="324" y="277"/>
      <point x="438" y="-2" type="curve"/>
      <point x="326" y="-250" type="line"/>
      <point x="311" y="-294"/>
      <point x="267" y="-345"/>
      <point x="218" y="-345" type="curve" smooth="yes"/>
      <point x="150" y="-345"/>
      <point x="131" y="-294"/>
      <point x="131" y="-247" type="curve"/>
      <point x="79" y="-247" type="line"/>
      <point x="25" y="-442" type="line"/>
      <point x="25" y="-442"/>
      <point x="117" y="-485"/>
      <point x="218" y="-485" type="curve" smooth="yes"/>
      <point x="312" y="-485"/>
      <point x="419" y="-340"/>
      <point x="442" y="-260" type="curve"/>
    </contour>
    <contour>
      <point x="599" y="-170" type="move" name="btm"/>
    </contour>
    <contour>
      <point x="599" y="0" type="move" name="og"/>
    </contour>
    <contour>
      <point x="541" y="1700" type="move" name="top"/>
    </contour>
  </outline>
</glyph>
<glyph name="z" format="1">
  <advance width="1024"/>
  <unicode hex="007A"/>
  <outline>
    <contour>
      <point x="72" y="92" type="line" name="hr00"/>
      <point x="72" y="0" type="line"/>
      <point x="848" y="0" type="line"/>
      <point x="902" y="200" type="line"/>
      <point x="836" y="200" type="line"/>
      <point x="746" y="94" type="line"/>
      <point x="283" y="94" type="line"/>
      <point x="872" y="897" type="line"/>
      <point x="872" y="989" type="line"/>
      <point x="139" y="989" type="line"/>
      <point x="85" y="789" type="line"/>
      <point x="151" y="789" type="line"/>
      <point x="240" y="895" type="line"/>
      <point x="661" y="895" type="line"/>
    </contour>
    <contour>
      <point x="487" y="-170" type="move" name="btm"/>
    </contour>
    <contour>
      <point x="487" y="0" type="move" name="og"/>
    </contour>
    <contour>
      <point x="487" y="1700" type="move" name="top"/>
    </contour>
  </outline>
</glyph>
<glyph name="braceleft" format="1">
  <advance width="853"/>
  <unicode hex="007B"/>
  <outline>
    <contour>
      <point x="171" y="570" type="line" name="hr01"/>
      <point x="171" y="570"/>
      <point x="351" y="526"/>
      <point x="351" y="342" type="curve" smooth="yes" name="hr02"/>
      <point x="351" y="141"/>
      <point x="320" y="-113"/>
      <point x="320" y="-256" type="curve" smooth="yes"/>
      <point x="320" y="-377"/>
      <point x="392" y="-519"/>
      <point x="682" y="-519" type="curve" name="hr03"/>
      <point x="682" y="-447" type="line"/>
      <point x="551" y="-447"/>
      <point x="480" y="-379"/>
      <point x="480" y="-238" type="curve" smooth="yes"/>
      <point x="480" y="-132"/>
      <point x="513" y="261"/>
      <point x="513" y="337" type="curve" smooth="yes" name="hr04"/>
      <point x="513" y="483"/>
      <point x="409" y="558"/>
      <point x="296" y="605" type="curve"/>
      <point x="409" y="650"/>
      <point x="513" y="726"/>
      <point x="513" y="874" type="curve" smooth="yes"/>
      <point x="513" y="949"/>
      <point x="480" y="1272"/>
      <point x="480" y="1378" type="curve" smooth="yes"/>
      <point x="480" y="1519"/>
      <point x="551" y="1587"/>
      <point x="682" y="1587" type="curve" name="hr05"/>
      <point x="682" y="1658" type="line"/>
      <point x="416" y="1658"/>
      <point x="320" y="1531"/>
      <point x="320" y="1396" type="curve" smooth="yes"/>
      <point x="320" y="1253"/>
      <point x="351" y="1069"/>
      <point x="351" y="869" type="curve" smooth="yes"/>
      <point x="351" y="676"/>
      <point x="171" y="641"/>
      <point x="171" y="641" type="curve" name="hr06"/>
    </contour>
  </outline>
</glyph>
<glyph name="bar" format="1">
  <advance width="512"/>
  <unicode hex="007C"/>
  <outline>
    <contour>
      <point x="197" y="-559" type="line" name="hr00"/>
      <point x="315" y="-559" type="line"/>
      <point x="315" y="1766" type="line"/>
      <point x="197" y="1766" type="line"/>
    </contour>
  </outline>
</glyph>
<glyph name="asciitilde" format="1">
  <advance width="930"/>
  <unicode hex="007E"/>
  <outline>
    <contour>
      <point x="306" y="680" type="curve" smooth="yes" name="hr01"/>
      <point x="193" y="680"/>
      <point x="70" y="495"/>
      <point x="70" y="495" type="curve"/>
      <point x="113" y="457" type="line"/>
      <point x="113" y="457"/>
      <point x="200" y="537"/>
      <point x="283" y="537" type="curve" smooth="yes"/>
      <point x="382" y="537"/>
      <point x="528" y="448"/>
      <point x="638" y="448" type="curve" smooth="yes"/>
      <point x="756" y="448"/>
      <point x="860" y="638"/>
      <point x="860" y="638" type="curve" name="hr02"/>
      <point x="813" y="671" type="line"/>
      <point x="813" y="671"/>
      <point x="742" y="590"/>
      <point x="661" y="590" type="curve" smooth="yes"/>
      <point x="558" y="590"/>
      <point x="416" y="680"/>
    </contour>
    <contour>
      <point x="465" y="1700" type="move" name="_top"/>
    </contour>
  </outline>
</glyph>
<glyph name="exclamdown" format="1">
  <advance width="512"/>
  <unicode hex="00A1"/>
  <outline>
    <contour>
      <point x="385" y="883" type="curve" smooth="yes" name="hr01"/>
      <point x="385" y="937"/>
      <point x="300" y="1011"/>
      <point x="257" y="1011" type="curve" smooth="yes"/>
      <point x="205" y="1011"/>
      <point x="127" y="935"/>
      <point x="127" y="883" type="curve" smooth="yes"/>
      <point x="127" y="831"/>
      <point x="203" y="753"/>
      <point x="257" y="753" type="curve" smooth="yes"/>
      <point x="309" y="753"/>
      <point x="385" y="836"/>
    </contour>
    <contour>
      <point x="338" y="-49" type="curve" name="hr02"/>
      <point x="338" y="49"/>
      <point x="302" y="391"/>
      <point x="302" y="598" type="curve"/>
      <point x="224" y="598" type="line"/>
      <point x="224" y="393"/>
      <point x="192" y="49"/>
      <point x="192" y="-49" type="curve"/>
      <point x="192" y="-49"/>
      <point x="174" y="-129"/>
      <point x="174" y="-560" type="curve" name="hr03"/>
      <point x="356" y="-513" type="line"/>
      <point x="356" y="-124"/>
      <point x="338" y="-49"/>
    </contour>
  </outline>
</glyph>
<glyph name="cent" format="1">
  <advance width="1024"/>
  <unicode hex="00A2"/>
  <outline>
    <contour>
      <point x="518" y="1005" type="line" name="hr01"/>
      <point x="246" y="953"/>
      <point x="85" y="714"/>
      <point x="85" y="471" type="curve" smooth="yes"/>
      <point x="85" y="200"/>
      <point x="257" y="5"/>
      <point x="518" y="-21" type="curve" name="hr02"/>
      <point x="518" y="-211" type="line"/>
      <point x="624" y="-211" type="line"/>
      <point x="624" y="-18" type="line" name="hr03"/>
      <point x="782" y="11"/>
      <point x="938" y="164"/>
      <point x="938" y="164" type="curve"/>
      <point x="886" y="229" type="line"/>
      <point x="886" y="229"/>
      <point x="766" y="125"/>
      <point x="624" y="117" type="curve"/>
      <point x="624" y="895" type="line"/>
      <point x="730" y="888"/>
      <point x="811" y="843"/>
      <point x="811" y="758" type="curve"/>
      <point x="874" y="758" type="line"/>
      <point x="898" y="959" type="line"/>
      <point x="898" y="959"/>
      <point x="785" y="1005"/>
      <point x="624" y="1013" type="curve"/>
      <point x="624" y="1197" type="line"/>
      <point x="518" y="1197" type="line"/>
    </contour>
    <contour>
      <point x="260" y="528" type="curve" smooth="yes"/>
      <point x="260" y="683"/>
      <point x="347" y="843"/>
      <point x="518" y="885" type="curve"/>
      <point x="518" y="130" type="line"/>
      <point x="352" y="175"/>
      <point x="260" y="332"/>
    </contour>
  </outline>
</glyph>
<glyph name="sterling" format="1">
  <advance width="1193"/>
  <unicode hex="00A3"/>
  <outline>
    <contour>
      <point x="224" y="848" type="line" name="hr01"/>
      <point x="74" y="818" type="line"/>
      <point x="74" y="742" type="line"/>
      <point x="224" y="742" type="line"/>
      <point x="224" y="612" type="line" smooth="yes"/>
      <point x="224" y="146"/>
      <point x="117" y="76"/>
      <point x="49" y="43" type="curve"/>
      <point x="78" y="-23" type="line"/>
      <point x="78" y="-23"/>
      <point x="297" y="43"/>
      <point x="450" y="43" type="curve" smooth="yes"/>
      <point x="669" y="43"/>
      <point x="696" y="-23"/>
      <point x="808" y="-23" type="curve" smooth="yes"/>
      <point x="1015" y="-23"/>
      <point x="1145" y="198"/>
      <point x="1145" y="198" type="curve" name="hr02"/>
      <point x="1089" y="240" type="line"/>
      <point x="1089" y="240"/>
      <point x="988" y="128"/>
      <point x="862" y="128" type="curve" smooth="yes"/>
      <point x="736" y="128"/>
      <point x="704" y="193"/>
      <point x="551" y="193" type="curve" smooth="yes" name="hr03"/>
      <point x="389" y="193"/>
      <point x="236" y="99"/>
      <point x="236" y="99" type="curve"/>
      <point x="236" y="99"/>
      <point x="412" y="229"/>
      <point x="412" y="641" type="curve" smooth="yes"/>
      <point x="412" y="742" type="line"/>
      <point x="776" y="742" type="line"/>
      <point x="776" y="848" type="line"/>
      <point x="412" y="848" type="line"/>
      <point x="412" y="1095" type="line" smooth="yes"/>
      <point x="412" y="1225"/>
      <point x="492" y="1425"/>
      <point x="685" y="1425" type="curve" smooth="yes"/>
      <point x="825" y="1425"/>
      <point x="895" y="1362"/>
      <point x="895" y="1272" type="curve"/>
      <point x="961" y="1272" type="line"/>
      <point x="1029" y="1446" type="line"/>
      <point x="1029" y="1446"/>
      <point x="923" y="1531"/>
      <point x="690" y="1531" type="curve" smooth="yes"/>
      <point x="463" y="1531"/>
      <point x="224" y="1239"/>
      <point x="224" y="1025" type="curve" smooth="yes"/>
    </contour>
  </outline>
</glyph>
<glyph name="currency" format="1">
  <advance width="1366"/>
  <unicode hex="00A4"/>
  <outline>
    <contour>
      <point x="205" y="701" type="curve" smooth="yes" name="hr00"/>
      <point x="205" y="591"/>
      <point x="245" y="494"/>
      <point x="310" y="420" type="curve"/>
      <point x="153" y="261" type="line"/>
      <point x="233" y="179" type="line"/>
      <point x="398" y="344" type="line"/>
      <point x="481" y="290"/>
      <point x="579" y="259"/>
      <point x="688" y="259" type="curve" smooth="yes"/>
      <point x="782" y="259"/>
      <point x="878" y="292"/>
      <point x="959" y="348" type="curve"/>
      <point x="1130" y="179" type="line"/>
      <point x="1213" y="259" type="line"/>
      <point x="1043" y="427" type="line"/>
      <point x="1114" y="508"/>
      <point x="1161" y="618"/>
      <point x="1161" y="739" type="curve" smooth="yes"/>
      <point x="1161" y="850"/>
      <point x="1126" y="942"/>
      <point x="1067" y="1013" type="curve"/>
      <point x="1213" y="1159" type="line"/>
      <point x="1130" y="1239" type="line"/>
      <point x="982" y="1090" type="line"/>
      <point x="899" y="1147"/>
      <point x="793" y="1178"/>
      <point x="678" y="1178" type="curve" smooth="yes"/>
      <point x="582" y="1178"/>
      <point x="481" y="1140"/>
      <point x="395" y="1074" type="curve"/>
      <point x="233" y="1239" type="line"/>
      <point x="153" y="1157" type="line"/>
      <point x="313" y="996" type="line"/>
      <point x="247" y="917"/>
      <point x="205" y="815"/>
    </contour>
    <contour>
      <point x="355" y="737" type="curve" smooth="yes"/>
      <point x="355" y="951"/>
      <point x="478" y="1083"/>
      <point x="676" y="1083" type="curve" smooth="yes"/>
      <point x="888" y="1083"/>
      <point x="1013" y="890"/>
      <point x="1013" y="688" type="curve" smooth="yes"/>
      <point x="1013" y="474"/>
      <point x="876" y="353"/>
      <point x="685" y="353" type="curve" smooth="yes"/>
      <point x="494" y="353"/>
      <point x="355" y="532"/>
    </contour>
  </outline>
</glyph>
<glyph name="yen" format="1">
  <advance width="1364"/>
  <unicode hex="00A5"/>
  <outline>
    <contour>
      <point x="787" y="624" type="line" name="hr00"/>
      <point x="787" y="681" type="line"/>
      <point x="921" y="919"/>
      <point x="1063" y="1159"/>
      <point x="1196" y="1400" type="curve"/>
      <point x="1196" y="1394" type="line"/>
      <point x="1362" y="1416" type="line"/>
      <point x="1362" y="1501" type="line"/>
      <point x="921" y="1501" type="line"/>
      <point x="921" y="1416" type="line"/>
      <point x="1052" y="1394" type="line"/>
      <point x="711" y="777" type="line"/>
      <point x="402" y="1394" type="line"/>
      <point x="535" y="1416" type="line"/>
      <point x="535" y="1501" type="line"/>
      <point x="5" y="1501" type="line"/>
      <point x="5" y="1416" type="line"/>
      <point x="169" y="1394" type="line"/>
      <point x="169" y="1400" type="line"/>
      <point x="591" y="624" type="line"/>
      <point x="267" y="624" type="line"/>
      <point x="267" y="506" type="line"/>
      <point x="600" y="506" type="line"/>
      <point x="600" y="373" type="line"/>
      <point x="267" y="373" type="line"/>
      <point x="267" y="252" type="line"/>
      <point x="600" y="252" type="line"/>
      <point x="600" y="106" type="line"/>
      <point x="450" y="83" type="line"/>
      <point x="450" y="0" type="line"/>
      <point x="937" y="0" type="line"/>
      <point x="937" y="83" type="line"/>
      <point x="787" y="106" type="line"/>
      <point x="787" y="252" type="line"/>
      <point x="1110" y="252" type="line"/>
      <point x="1110" y="373" type="line"/>
      <point x="787" y="373" type="line"/>
      <point x="787" y="506" type="line"/>
      <point x="1110" y="506" type="line"/>
      <point x="1110" y="624" type="line"/>
    </contour>
  </outline>
</glyph>
<glyph name="brokenbar" format="1">
  <advance width="512"/>
  <unicode hex="00A6"/>
  <outline>
    <contour>
      <point x="197" y="-559" type="line" name="hr00"/>
      <point x="315" y="-559" type="line"/>
      <point x="315" y="494" type="line"/>
      <point x="197" y="494" type="line"/>
    </contour>
    <contour>
      <point x="197" y="683" type="line"/>
      <point x="315" y="683" type="line"/>
      <point x="315" y="1766" type="line"/>
      <point x="197" y="1766" type="line"/>
    </contour>
  </outline>
</glyph>
<glyph name="section" format="1">
  <advance width="1024"/>
  <unicode hex="00A7"/>
  <outline>
    <contour>
      <point x="409" y="989" type="curve" name="hr01"/>
      <point x="634" y="872"/>
      <point x="726" y="800"/>
      <point x="726" y="708" type="curve" smooth="yes"/>
      <point x="726" y="620"/>
      <point x="611" y="562"/>
      <point x="611" y="562" type="curve"/>
      <point x="423" y="659"/>
      <point x="303" y="749"/>
      <point x="303" y="836" type="curve" smooth="yes"/>
      <point x="303" y="926"/>
      <point x="409" y="989"/>
    </contour>
    <contour>
      <point x="538" y="1114" type="curve" smooth="yes"/>
      <point x="406" y="1189"/>
      <point x="335" y="1236"/>
      <point x="335" y="1293" type="curve" smooth="yes" name="hr02"/>
      <point x="335" y="1357"/>
      <point x="389" y="1416"/>
      <point x="528" y="1416" type="curve" smooth="yes"/>
      <point x="663" y="1416"/>
      <point x="724" y="1366"/>
      <point x="724" y="1245" type="curve"/>
      <point x="778" y="1245" type="line"/>
      <point x="804" y="1470" type="line"/>
      <point x="804" y="1470"/>
      <point x="708" y="1524"/>
      <point x="515" y="1524" type="curve" smooth="yes"/>
      <point x="319" y="1524"/>
      <point x="182" y="1418"/>
      <point x="182" y="1253" type="curve" smooth="yes"/>
      <point x="182" y="1151"/>
      <point x="229" y="1088"/>
      <point x="314" y="1036" type="curve"/>
      <point x="314" y="1036"/>
      <point x="168" y="942"/>
      <point x="168" y="787" type="curve" smooth="yes" name="hr03"/>
      <point x="168" y="636"/>
      <point x="245" y="558"/>
      <point x="470" y="438" type="curve" smooth="yes"/>
      <point x="672" y="332"/>
      <point x="703" y="313"/>
      <point x="703" y="231" type="curve" smooth="yes"/>
      <point x="703" y="167"/>
      <point x="641" y="83"/>
      <point x="501" y="83" type="curve" smooth="yes"/>
      <point x="239" y="83"/>
      <point x="234" y="250"/>
      <point x="234" y="306" type="curve" name="hr04"/>
      <point x="182" y="306" type="line"/>
      <point x="151" y="72" type="line"/>
      <point x="151" y="72"/>
      <point x="272" y="-23"/>
      <point x="503" y="-23" type="curve" smooth="yes"/>
      <point x="670" y="-23"/>
      <point x="872" y="63"/>
      <point x="872" y="263" type="curve" smooth="yes"/>
      <point x="872" y="373"/>
      <point x="818" y="452"/>
      <point x="712" y="513" type="curve"/>
      <point x="712" y="513"/>
      <point x="863" y="615"/>
      <point x="863" y="768" type="curve" smooth="yes" name="hr05"/>
      <point x="863" y="888"/>
      <point x="807" y="959"/>
    </contour>
  </outline>
</glyph>
<glyph name="dieresis" format="1">
  <advance width="902"/>
  <unicode hex="00A8"/>
  <outline>
    <contour>
      <point x="141" y="1237" type="curve" smooth="yes" name="hr01"/>
      <point x="141" y="1184"/>
      <point x="222" y="1116"/>
      <point x="261" y="1116" type="curve" smooth="yes"/>
      <point x="310" y="1116"/>
      <point x="384" y="1187"/>
      <point x="384" y="1237" type="curve" smooth="yes"/>
      <point x="384" y="1286"/>
      <point x="313" y="1359"/>
      <point x="261" y="1359" type="curve" smooth="yes"/>
      <point x="212" y="1359"/>
      <point x="141" y="1281"/>
    </contour>
    <contour>
      <point x="519" y="1237" type="curve" smooth="yes"/>
      <point x="519" y="1184"/>
      <point x="598" y="1116"/>
      <point x="638" y="1116" type="curve" smooth="yes"/>
      <point x="688" y="1116"/>
      <point x="761" y="1187"/>
      <point x="761" y="1237" type="curve" smooth="yes"/>
      <point x="761" y="1286"/>
      <point x="690" y="1359"/>
      <point x="638" y="1359" type="curve" smooth="yes"/>
      <point x="589" y="1359"/>
      <point x="519" y="1281"/>
    </contour>
    <contour>
      <point x="451" y="1700" type="move" name="_top"/>
    </contour>
  </outline>
</glyph>
<glyph name="copyright" format="1">
  <advance width="1882"/>
  <unicode hex="00A9"/>
  <outline>
    <contour>
      <point x="162" y="751" type="curve" smooth="yes" name="hr01"/>
      <point x="162" y="328"/>
      <point x="495" y="-23"/>
      <point x="944" y="-23" type="curve" smooth="yes"/>
      <point x="1392" y="-23"/>
      <point x="1719" y="328"/>
      <point x="1719" y="751" type="curve" smooth="yes"/>
      <point x="1719" y="1178"/>
      <point x="1392" y="1531"/>
      <point x="944" y="1531" type="curve" smooth="yes"/>
      <point x="495" y="1531"/>
      <point x="162" y="1178"/>
    </contour>
    <contour>
      <point x="299" y="751" type="curve" smooth="yes"/>
      <point x="299" y="1128"/>
      <point x="584" y="1420"/>
      <point x="944" y="1420" type="curve" smooth="yes"/>
      <point x="1304" y="1420"/>
      <point x="1589" y="1128"/>
      <point x="1589" y="751" type="curve" smooth="yes"/>
      <point x="1589" y="375"/>
      <point x="1304" y="87"/>
      <point x="944" y="87" type="curve" smooth="yes"/>
      <point x="584" y="87"/>
      <point x="299" y="375"/>
    </contour>
    <contour>
      <point x="953" y="1209" type="curve" smooth="yes"/>
      <point x="714" y="1209"/>
      <point x="484" y="1032"/>
      <point x="484" y="739" type="curve" smooth="yes"/>
      <point x="484" y="450"/>
      <point x="714" y="296"/>
      <point x="972" y="296" type="curve" smooth="yes"/>
      <point x="1180" y="296"/>
      <point x="1295" y="365"/>
      <point x="1295" y="365" type="curve"/>
      <point x="1279" y="590" type="line"/>
      <point x="1232" y="590" type="line"/>
      <point x="1232" y="484"/>
      <point x="1149" y="390"/>
      <point x="963" y="390" type="curve" smooth="yes"/>
      <point x="756" y="390"/>
      <point x="661" y="564"/>
      <point x="661" y="770" type="curve" smooth="yes"/>
      <point x="661" y="973"/>
      <point x="765" y="1114"/>
      <point x="951" y="1114" type="curve" smooth="yes"/>
      <point x="1173" y="1114"/>
      <point x="1223" y="1018"/>
      <point x="1223" y="916" type="curve" name="hr02"/>
      <point x="1272" y="916" type="line"/>
      <point x="1286" y="1145" type="line"/>
      <point x="1286" y="1145"/>
      <point x="1173" y="1209"/>
    </contour>
  </outline>
</glyph>
<glyph name="ordfeminine" format="1">
  <advance width="853"/>
  <unicode hex="00AA"/>
  <outline>
    <contour>
      <point x="322" y="806" type="curve" smooth="yes" name="hr01"/>
      <point x="428" y="806"/>
      <point x="541" y="907"/>
      <point x="548" y="914" type="curve"/>
      <point x="548" y="893" type="line" name="hr02"/>
      <point x="548" y="832"/>
      <point x="591" y="806"/>
      <point x="649" y="806" type="curve" smooth="yes"/>
      <point x="700" y="806"/>
      <point x="799" y="858"/>
      <point x="799" y="858" type="curve"/>
      <point x="786" y="924" type="line"/>
      <point x="786" y="924"/>
      <point x="729" y="902"/>
      <point x="700" y="902" type="curve" smooth="yes"/>
      <point x="670" y="902"/>
      <point x="662" y="914"/>
      <point x="662" y="963" type="curve"/>
      <point x="662" y="1332" type="line"/>
      <point x="662" y="1430"/>
      <point x="630" y="1531"/>
      <point x="466" y="1531" type="curve" smooth="yes"/>
      <point x="327" y="1531"/>
      <point x="172" y="1422"/>
      <point x="172" y="1422" type="curve"/>
      <point x="213" y="1361" type="line"/>
      <point x="213" y="1361"/>
      <point x="323" y="1440"/>
      <point x="442" y="1440" type="curve" smooth="yes"/>
      <point x="534" y="1440"/>
      <point x="548" y="1397"/>
      <point x="548" y="1323" type="curve"/>
      <point x="548" y="1176" type="line"/>
      <point x="460" y="1175"/>
      <point x="313" y="1165"/>
      <point x="258" y="1149" type="curve" smooth="yes"/>
      <point x="178" y="1124"/>
      <point x="134" y="1083"/>
      <point x="134" y="987" type="curve" smooth="yes"/>
      <point x="134" y="830"/>
      <point x="264" y="806"/>
    </contour>
    <contour>
      <point x="341" y="1096" type="curve" smooth="yes"/>
      <point x="401" y="1110"/>
      <point x="499" y="1116"/>
      <point x="548" y="1117" type="curve"/>
      <point x="548" y="979" type="line"/>
      <point x="522" y="957"/>
      <point x="431" y="896"/>
      <point x="344" y="896" type="curve" smooth="yes"/>
      <point x="302" y="896"/>
      <point x="250" y="919"/>
      <point x="250" y="998" type="curve" smooth="yes"/>
      <point x="250" y="1038"/>
      <point x="261" y="1075"/>
    </contour>
  </outline>
</glyph>
<glyph name="guillemetleft" format="1">
  <advance width="1200"/>
  <unicode hex="00AB"/>
  <outline>
    <contour>
      <point x="135" y="474" type="line" name="hr00"/>
      <point x="524" y="38" type="line"/>
      <point x="603" y="117" type="line"/>
      <point x="384" y="355" type="line"/>
      <point x="265" y="474" type="line"/>
      <point x="387" y="596" type="line"/>
      <point x="598" y="831" type="line"/>
      <point x="524" y="906" type="line"/>
    </contour>
    <contour>
      <point x="597" y="474" type="line"/>
      <point x="985" y="38" type="line"/>
      <point x="1065" y="117" type="line"/>
      <point x="846" y="355" type="line"/>
      <point x="725" y="474" type="line"/>
      <point x="848" y="596" type="line"/>
      <point x="1060" y="831" type="line"/>
      <point x="985" y="906" type="line"/>
    </contour>
  </outline>
</glyph>
<glyph name="logicalnot" format="1">
  <advance width="1362"/>
  <unicode hex="00AC"/>
  <outline>
    <contour>
      <point x="204" y="834" type="line" name="hr00"/>
      <point x="1043" y="834" type="line"/>
      <point x="1043" y="358" type="line"/>
      <point x="1158" y="358" type="line"/>
      <point x="1158" y="940" type="line"/>
      <point x="204" y="940" type="line"/>
    </contour>
  </outline>
</glyph>
<glyph name="registered" format="1">
  <advance width="1028"/>
  <unicode hex="00AE"/>
  <outline>
    <contour>
      <point x="192" y="1147" type="curve" smooth="yes" name="hr00"/>
      <point x="192" y="1335"/>
      <point x="333" y="1481"/>
      <point x="515" y="1481" type="curve" smooth="yes"/>
      <point x="694" y="1481"/>
      <point x="838" y="1335"/>
      <point x="838" y="1147" type="curve" smooth="yes"/>
      <point x="838" y="959"/>
      <point x="694" y="815"/>
      <point x="515" y="815" type="curve" smooth="yes"/>
      <point x="333" y="815"/>
      <point x="192" y="959"/>
    </contour>
    <contour>
      <point x="628" y="949" type="line"/>
      <point x="715" y="949" type="line"/>
      <point x="715" y="966" type="line"/>
      <point x="670" y="973" type="line"/>
      <point x="571" y="1142" type="line"/>
      <point x="632" y="1159"/>
      <point x="666" y="1198"/>
      <point x="666" y="1260" type="curve" smooth="yes"/>
      <point x="666" y="1312"/>
      <point x="637" y="1364"/>
      <point x="513" y="1364" type="curve" smooth="yes"/>
      <point x="338" y="1364" type="line"/>
      <point x="338" y="1342" type="line"/>
      <point x="380" y="1337" type="line"/>
      <point x="380" y="973" type="line"/>
      <point x="338" y="966" type="line"/>
      <point x="338" y="949" type="line"/>
      <point x="477" y="949" type="line"/>
      <point x="477" y="966" type="line"/>
      <point x="434" y="973" type="line"/>
      <point x="434" y="1133" type="line"/>
      <point x="519" y="1133" type="line"/>
    </contour>
    <contour>
      <point x="503" y="1335" type="line"/>
      <point x="585" y="1335"/>
      <point x="611" y="1310"/>
      <point x="611" y="1253" type="curve" smooth="yes"/>
      <point x="611" y="1196"/>
      <point x="585" y="1159"/>
      <point x="513" y="1159" type="curve" smooth="yes"/>
      <point x="434" y="1159" type="line"/>
      <point x="434" y="1335" type="line"/>
    </contour>
    <contour>
      <point x="131" y="1147" type="curve" smooth="yes"/>
      <point x="131" y="940"/>
      <point x="296" y="766"/>
      <point x="517" y="766" type="curve" smooth="yes"/>
      <point x="736" y="766"/>
      <point x="897" y="940"/>
      <point x="897" y="1147" type="curve" smooth="yes"/>
      <point x="897" y="1357"/>
      <point x="736" y="1531"/>
      <point x="517" y="1531" type="curve" smooth="yes"/>
      <point x="296" y="1531"/>
      <point x="131" y="1357"/>
    </contour>
  </outline>
</glyph>
<glyph name="macron" format="1">
  <advance width="1178"/>
  <unicode hex="00AF"/>
  <outline>
    <contour>
      <point x="281" y="1209" type="line" name="hr00"/>
      <point x="857" y="1209" type="line"/>
      <point x="885" y="1337" type="line"/>
      <point x="308" y="1335" type="line"/>
    </contour>
    <contour>
      <point x="583" y="1700" type="move" name="_top"/>
    </contour>
  </outline>
</glyph>
<glyph name="degree" format="1">
  <advance width="853"/>
  <unicode hex="00B0"/>
  <outline>
    <contour>
      <point x="108" y="1220" type="curve" smooth="yes" name="hr00"/>
      <point x="108" y="1030"/>
      <point x="255" y="906"/>
      <point x="426" y="906" type="curve" smooth="yes"/>
      <point x="599" y="906"/>
      <point x="744" y="1029"/>
      <point x="744" y="1220" type="curve" smooth="yes"/>
      <point x="744" y="1410"/>
      <point x="599" y="1531"/>
      <point x="426" y="1531" type="curve" smooth="yes"/>
      <point x="255" y="1531"/>
      <point x="108" y="1410"/>
    </contour>
    <contour>
      <point x="228" y="1220" type="curve" smooth="yes"/>
      <point x="228" y="1347"/>
      <point x="311" y="1434"/>
      <point x="426" y="1434" type="curve" smooth="yes"/>
      <point x="540" y="1434"/>
      <point x="624" y="1346"/>
      <point x="624" y="1220" type="curve" smooth="yes"/>
      <point x="624" y="1088"/>
      <point x="540" y="1003"/>
      <point x="426" y="1003" type="curve" smooth="yes"/>
      <point x="311" y="1003"/>
      <point x="228" y="1087"/>
    </contour>
  </outline>
</glyph>
<glyph name="plusminus" format="1">
  <advance width="1362"/>
  <unicode hex="00B1"/>
  <outline>
    <contour>
      <point x="629" y="1382" type="line" name="hr00"/>
      <point x="629" y="906" type="line"/>
      <point x="139" y="906" type="line"/>
      <point x="139" y="800" type="line"/>
      <point x="629" y="800" type="line"/>
      <point x="629" y="299" type="line"/>
      <point x="735" y="299" type="line"/>
      <point x="735" y="800" type="line"/>
      <point x="1223" y="800" type="line"/>
      <point x="1223" y="906" type="line"/>
      <point x="735" y="906" type="line"/>
      <point x="735" y="1382" type="line"/>
    </contour>
    <contour>
      <point x="139" y="106" type="line"/>
      <point x="139" y="0" type="line"/>
      <point x="1223" y="0" type="line"/>
      <point x="1223" y="106" type="line"/>
    </contour>
  </outline>
</glyph>
<glyph name="twosuperior" format="1">
  <advance width="853"/>
  <unicode hex="00B2"/>
  <outline>
    <contour>
      <point x="662" y="1339" type="curve" smooth="yes" name="hr00"/>
      <point x="662" y="1449"/>
      <point x="585" y="1532"/>
      <point x="419" y="1532" type="curve" smooth="yes"/>
      <point x="243" y="1532"/>
      <point x="141" y="1400"/>
      <point x="141" y="1400" type="curve"/>
      <point x="187" y="1352" type="line"/>
      <point x="187" y="1352"/>
      <point x="278" y="1449"/>
      <point x="399" y="1449" type="curve" smooth="yes"/>
      <point x="497" y="1449"/>
      <point x="542" y="1395"/>
      <point x="542" y="1312" type="curve" smooth="yes"/>
      <point x="542" y="1248"/>
      <point x="511" y="1204"/>
      <point x="435" y="1147" type="curve"/>
      <point x="112" y="905" type="line"/>
      <point x="112" y="825" type="line"/>
      <point x="698" y="825" type="line"/>
      <point x="740" y="1004" type="line"/>
      <point x="682" y="1004" type="line"/>
      <point x="634" y="932" type="line"/>
      <point x="282" y="932" type="line"/>
      <point x="507" y="1105" type="line"/>
      <point x="609" y="1184"/>
      <point x="662" y="1238"/>
    </contour>
  </outline>
</glyph>
<glyph name="threesuperior" format="1">
  <advance width="851"/>
  <unicode hex="00B3"/>
  <outline>
    <contour>
      <point x="407" y="1532" type="curve" smooth="yes" name="hr01"/>
      <point x="242" y="1532"/>
      <point x="117" y="1395"/>
      <point x="117" y="1395" type="curve"/>
      <point x="166" y="1346" type="line"/>
      <point x="166" y="1346"/>
      <point x="270" y="1450"/>
      <point x="379" y="1450" type="curve" smooth="yes"/>
      <point x="473" y="1450"/>
      <point x="549" y="1379"/>
      <point x="549" y="1289" type="curve" smooth="yes"/>
      <point x="549" y="1218"/>
      <point x="517" y="1102"/>
      <point x="300" y="1074" type="curve"/>
      <point x="328" y="990" type="line"/>
      <point x="348" y="995"/>
      <point x="383" y="997"/>
      <point x="400" y="997" type="curve" smooth="yes"/>
      <point x="506" y="997"/>
      <point x="611" y="970"/>
      <point x="611" y="811" type="curve" smooth="yes" name="hr02"/>
      <point x="611" y="600"/>
      <point x="419" y="482"/>
      <point x="128" y="482" type="curve"/>
      <point x="142" y="400" type="line"/>
      <point x="545" y="413"/>
      <point x="733" y="601"/>
      <point x="733" y="807" type="curve" smooth="yes"/>
      <point x="733" y="973"/>
      <point x="636" y="1042"/>
      <point x="507" y="1061" type="curve"/>
      <point x="608" y="1103"/>
      <point x="670" y="1201"/>
      <point x="670" y="1292" type="curve" smooth="yes" name="hr03"/>
      <point x="670" y="1409"/>
      <point x="597" y="1532"/>
    </contour>
  </outline>
</glyph>
<glyph name="acute" format="1">
  <advance width="575"/>
  <unicode hex="00B4"/>
  <outline>
    <contour>
      <point x="365" y="1560" type="line" name="hr00"/>
      <point x="122" y="1230" type="line"/>
      <point x="169" y="1190" type="line"/>
      <point x="526" y="1510" type="line"/>
    </contour>
    <contour>
      <point x="324" y="1700" type="move" name="_top"/>
    </contour>
  </outline>
</glyph>
<glyph name="micro" format="1">
  <advance width="1366"/>
  <unicode hex="00B5"/>
  <outline>
    <contour>
      <point x="540" y="-23" type="curve" smooth="yes" name="hr01"/>
      <point x="708" y="-23"/>
      <point x="915" y="130"/>
      <point x="915" y="130" type="curve"/>
      <point x="915" y="97" type="line" smooth="yes"/>
      <point x="915" y="21"/>
      <point x="981" y="-23"/>
      <point x="1063" y="-23" type="curve" smooth="yes" name="hr02"/>
      <point x="1137" y="-23"/>
      <point x="1277" y="52"/>
      <point x="1277" y="52" type="curve"/>
      <point x="1259" y="135" type="line"/>
      <point x="1259" y="135"/>
      <point x="1184" y="103"/>
      <point x="1135" y="103" type="curve" smooth="yes"/>
      <point x="1082" y="103"/>
      <point x="1079" y="117"/>
      <point x="1079" y="144" type="curve" smooth="yes"/>
      <point x="1079" y="1013" type="line"/>
      <point x="762" y="937" type="line"/>
      <point x="762" y="867" type="line"/>
      <point x="915" y="845" type="line"/>
      <point x="915" y="200" type="line"/>
      <point x="915" y="200"/>
      <point x="686" y="94"/>
      <point x="569" y="94" type="curve" smooth="yes" name="hr03"/>
      <point x="488" y="94"/>
      <point x="432" y="146"/>
      <point x="432" y="283" type="curve" smooth="yes"/>
      <point x="432" y="1013" type="line"/>
      <point x="149" y="942" type="line"/>
      <point x="149" y="867" type="line"/>
      <point x="268" y="845" type="line"/>
      <point x="268" y="283" type="line" smooth="yes"/>
      <point x="268" y="283"/>
      <point x="268" y="-65"/>
      <point x="227" y="-537" type="curve"/>
      <point x="281" y="-560" type="line"/>
      <point x="394" y="-503" type="line"/>
      <point x="360" y="21" type="line"/>
      <point x="402" y="-7"/>
      <point x="461" y="-23"/>
    </contour>
  </outline>
</glyph>
<glyph name="paragraph" format="1">
  <advance width="1371"/>
  <unicode hex="00B6"/>
  <outline>
    <contour>
      <point x="655" y="1501" type="line" name="hr00"/>
      <point x="255" y="1501"/>
      <point x="86" y="1263"/>
      <point x="86" y="996" type="curve" smooth="yes"/>
      <point x="86" y="699"/>
      <point x="322" y="481"/>
      <point x="688" y="481" type="curve"/>
      <point x="723" y="481" type="line"/>
      <point x="723" y="-308" type="line"/>
      <point x="504" y="-332" type="line"/>
      <point x="504" y="-416" type="line"/>
      <point x="843" y="-416" type="line"/>
      <point x="843" y="1382" type="line"/>
      <point x="1039" y="1382" type="line"/>
      <point x="1039" y="-416" type="line"/>
      <point x="1284" y="-416" type="line"/>
      <point x="1284" y="-332" type="line"/>
      <point x="1154" y="-308" type="line"/>
      <point x="1154" y="1394" type="line"/>
      <point x="1284" y="1416" type="line"/>
      <point x="1284" y="1501" type="line"/>
    </contour>
  </outline>
</glyph>
<glyph name="periodcentered" format="1">
  <advance width="512"/>
  <unicode hex="00B7"/>
  <outline>
    <contour>
      <point x="127" y="593" type="curve" smooth="yes" name="hr00"/>
      <point x="127" y="539"/>
      <point x="212" y="467"/>
      <point x="255" y="467" type="curve" smooth="yes"/>
      <point x="307" y="467"/>
      <point x="384" y="542"/>
      <point x="384" y="593" type="curve" smooth="yes"/>
      <point x="384" y="645"/>
      <point x="309" y="723"/>
      <point x="255" y="723" type="curve" smooth="yes"/>
      <point x="202" y="723"/>
      <point x="127" y="641"/>
    </contour>
  </outline>
</glyph>
<glyph name="cedilla" format="1">
  <advance width="629"/>
  <unicode hex="00B8"/>
  <outline>
    <contour>
      <point x="310" y="31" type="line" name="hr00"/>
      <point x="189" y="-158" type="line"/>
      <point x="207" y="-202" type="line"/>
      <point x="332" y="-207"/>
      <point x="416" y="-245"/>
      <point x="416" y="-323" type="curve" smooth="yes"/>
      <point x="416" y="-351"/>
      <point x="416" y="-375"/>
      <point x="393" y="-398" type="curve" smooth="yes"/>
      <point x="365" y="-427"/>
      <point x="332" y="-427"/>
      <point x="297" y="-427" type="curve" smooth="yes"/>
      <point x="245" y="-427"/>
      <point x="167" y="-398"/>
      <point x="167" y="-337" type="curve"/>
      <point x="128" y="-337" type="line"/>
      <point x="94" y="-463" type="line"/>
      <point x="94" y="-463"/>
      <point x="189" y="-528"/>
      <point x="292" y="-528" type="curve" smooth="yes"/>
      <point x="346" y="-528"/>
      <point x="405" y="-483"/>
      <point x="454" y="-440" type="curve" smooth="yes"/>
      <point x="499" y="-402"/>
      <point x="535" y="-353"/>
      <point x="535" y="-306" type="curve" smooth="yes"/>
      <point x="535" y="-177"/>
      <point x="402" y="-135"/>
      <point x="306" y="-135" type="curve"/>
      <point x="373" y="9" type="line"/>
    </contour>
    <contour>
      <point x="314" y="-170" type="move" name="_btm"/>
    </contour>
  </outline>
</glyph>
<glyph name="onesuperior" format="1">
  <advance width="512"/>
  <unicode hex="00B9"/>
  <outline>
    <contour>
      <point x="92" y="1507" type="line" name="hr01"/>
      <point x="92" y="1449" type="line"/>
      <point x="200" y="1433" type="line"/>
      <point x="200" y="889" type="line" name="hr02"/>
      <point x="92" y="873" type="line" name="hr03"/>
      <point x="92" y="815" type="line"/>
      <point x="419" y="815" type="line"/>
      <point x="419" y="873" type="line"/>
      <point x="313" y="889" type="line" name="hr04"/>
      <point x="313" y="1433" type="line"/>
      <point x="419" y="1449" type="line"/>
      <point x="419" y="1507" type="line"/>
    </contour>
  </outline>
</glyph>
<glyph name="ordmasculine" format="1">
  <advance width="853"/>
  <unicode hex="00BA"/>
  <outline>
    <contour>
      <point x="57" y="1157" type="curve" smooth="yes" name="hr00"/>
      <point x="57" y="958"/>
      <point x="181" y="806"/>
      <point x="408" y="806" type="curve" smooth="yes"/>
      <point x="596" y="806"/>
      <point x="751" y="954"/>
      <point x="751" y="1185" type="curve" smooth="yes"/>
      <point x="751" y="1382"/>
      <point x="630" y="1531"/>
      <point x="402" y="1531" type="curve" smooth="yes"/>
      <point x="215" y="1531"/>
      <point x="57" y="1387"/>
    </contour>
    <contour>
      <point x="180" y="1183" type="curve" smooth="yes"/>
      <point x="180" y="1330"/>
      <point x="258" y="1448"/>
      <point x="400" y="1448" type="curve" smooth="yes"/>
      <point x="580" y="1448"/>
      <point x="630" y="1294"/>
      <point x="630" y="1143" type="curve" smooth="yes"/>
      <point x="630" y="990"/>
      <point x="551" y="888"/>
      <point x="407" y="888" type="curve" smooth="yes"/>
      <point x="246" y="888"/>
      <point x="180" y="1030"/>
    </contour>
  </outline>
</glyph>
<glyph name="onequarter" format="1">
  <advance width="1705"/>
  <unicode hex="00BC"/>
  <outline>
    <contour>
      <point x="134" y="1558" type="line" name="hr01"/>
      <point x="159" y="1514" type="line"/>
      <point x="180" y="1524"/>
      <point x="251" y="1554"/>
      <point x="260" y="1554" type="curve" smooth="yes"/>
      <point x="269" y="1554"/>
      <point x="275" y="1551"/>
      <point x="275" y="1543" type="curve"/>
      <point x="275" y="959" type="line"/>
      <point x="159" y="947" type="line"/>
      <point x="159" y="906" type="line"/>
      <point x="460" y="906" type="line"/>
      <point x="460" y="947" type="line"/>
      <point x="356" y="959" type="line"/>
      <point x="356" y="1668" type="line"/>
    </contour>
    <contour>
      <point x="1059" y="269" type="line"/>
      <point x="1059" y="215" type="line"/>
      <point x="1407" y="215" type="line"/>
      <point x="1407" y="53" type="line" name="hr02"/>
      <point x="1343" y="41" type="line" name="hr03"/>
      <point x="1343" y="0" type="line"/>
      <point x="1553" y="0" type="line"/>
      <point x="1553" y="41" type="line"/>
      <point x="1488" y="53" type="line" name="hr04"/>
      <point x="1488" y="215" type="line"/>
      <point x="1605" y="215" type="line"/>
      <point x="1605" y="281" type="line"/>
      <point x="1488" y="281" type="line"/>
      <point x="1488" y="750" type="line"/>
      <point x="1452" y="750" type="line"/>
    </contour>
    <contour>
      <point x="1141" y="281" type="line"/>
      <point x="1407" y="614" type="line"/>
      <point x="1407" y="281" type="line"/>
    </contour>
    <component base="fraction" xOffset="292"/>
  </outline>
</glyph>
<glyph name="onehalf" format="1">
  <advance width="1705"/>
  <unicode hex="00BD"/>
  <outline>
    <contour>
      <point x="134" y="1558" type="line" name="hr00"/>
      <point x="159" y="1514" type="line"/>
      <point x="180" y="1524"/>
      <point x="251" y="1554"/>
      <point x="260" y="1554" type="curve" smooth="yes"/>
      <point x="269" y="1554"/>
      <point x="275" y="1551"/>
      <point x="275" y="1543" type="curve"/>
      <point x="275" y="959" type="line"/>
      <point x="159" y="947" type="line"/>
      <point x="159" y="906" type="line"/>
      <point x="460" y="906" type="line"/>
      <point x="460" y="947" type="line"/>
      <point x="356" y="959" type="line"/>
      <point x="356" y="1668" type="line"/>
    </contour>
    <contour>
      <point x="1500" y="572" type="curve" smooth="yes"/>
      <point x="1500" y="679"/>
      <point x="1441" y="762"/>
      <point x="1293" y="762" type="curve" smooth="yes"/>
      <point x="1147" y="762"/>
      <point x="1056" y="625"/>
      <point x="1056" y="625" type="curve"/>
      <point x="1096" y="597" type="line"/>
      <point x="1096" y="597"/>
      <point x="1178" y="702"/>
      <point x="1284" y="702" type="curve" smooth="yes"/>
      <point x="1379" y="702"/>
      <point x="1414" y="638"/>
      <point x="1414" y="562" type="curve" smooth="yes"/>
      <point x="1414" y="514"/>
      <point x="1392" y="453"/>
      <point x="1304" y="352" type="curve"/>
      <point x="1037" y="57" type="line"/>
      <point x="1037" y="0" type="line"/>
      <point x="1503" y="0" type="line"/>
      <point x="1532" y="128" type="line"/>
      <point x="1491" y="128" type="line"/>
      <point x="1481" y="112"/>
      <point x="1467" y="93"/>
      <point x="1456" y="75" type="curve"/>
      <point x="1456" y="76" type="line"/>
      <point x="1145" y="76" type="line"/>
      <point x="1349" y="295" type="line"/>
      <point x="1463" y="418"/>
      <point x="1500" y="467"/>
    </contour>
    <component base="fraction" xOffset="292"/>
  </outline>
</glyph>
<glyph name="threequarters" format="1">
  <advance width="1705"/>
  <unicode hex="00BE"/>
  <outline>
    <contour>
      <point x="303" y="1668" type="curve" smooth="yes" name="hr01"/>
      <point x="185" y="1668"/>
      <point x="96" y="1569"/>
      <point x="96" y="1569" type="curve"/>
      <point x="132" y="1535" type="line"/>
      <point x="132" y="1535"/>
      <point x="206" y="1608"/>
      <point x="282" y="1608" type="curve" smooth="yes"/>
      <point x="362" y="1608"/>
      <point x="405" y="1571"/>
      <point x="405" y="1493" type="curve" smooth="yes"/>
      <point x="405" y="1442"/>
      <point x="378" y="1359"/>
      <point x="221" y="1340" type="curve"/>
      <point x="242" y="1279" type="line"/>
      <point x="257" y="1282"/>
      <point x="281" y="1285"/>
      <point x="294" y="1285" type="curve" smooth="yes"/>
      <point x="369" y="1285"/>
      <point x="451" y="1261"/>
      <point x="451" y="1146" type="curve" smooth="yes" name="hr02"/>
      <point x="451" y="995"/>
      <point x="306" y="888"/>
      <point x="100" y="888" type="curve"/>
      <point x="109" y="829" type="line"/>
      <point x="398" y="838"/>
      <point x="538" y="998"/>
      <point x="538" y="1144" type="curve" smooth="yes"/>
      <point x="538" y="1263"/>
      <point x="462" y="1317"/>
      <point x="370" y="1331" type="curve"/>
      <point x="443" y="1361"/>
      <point x="492" y="1431"/>
      <point x="492" y="1496" type="curve" smooth="yes" name="hr03"/>
      <point x="492" y="1579"/>
      <point x="441" y="1668"/>
    </contour>
    <contour>
      <point x="1110" y="269" type="line" name="hr04"/>
      <point x="1110" y="215" type="line"/>
      <point x="1458" y="215" type="line"/>
      <point x="1458" y="53" type="line"/>
      <point x="1394" y="41" type="line" name="hr05"/>
      <point x="1394" y="0" type="line"/>
      <point x="1604" y="0" type="line"/>
      <point x="1604" y="41" type="line"/>
      <point x="1539" y="53" type="line" name="hr06"/>
      <point x="1539" y="215" type="line"/>
      <point x="1656" y="215" type="line"/>
      <point x="1656" y="281" type="line"/>
      <point x="1539" y="281" type="line"/>
      <point x="1539" y="750" type="line"/>
      <point x="1503" y="750" type="line"/>
    </contour>
    <contour>
      <point x="1192" y="281" type="line"/>
      <point x="1458" y="614" type="line"/>
      <point x="1458" y="281" type="line"/>
    </contour>
    <component base="fraction" xOffset="344"/>
  </outline>
</glyph>
<glyph name="AE" format="1">
  <advance width="1877"/>
  <unicode hex="00C6"/>
  <outline>
    <contour>
      <point x="1764" y="1508" type="line" name="hr01"/>
      <point x="800" y="1508" type="line"/>
      <point x="800" y="1423" type="line"/>
      <point x="917" y="1404" type="line"/>
      <point x="155" y="108" type="line"/>
      <point x="-7" y="85" type="line"/>
      <point x="-7" y="0" type="line"/>
      <point x="386" y="0" type="line"/>
      <point x="386" y="85" type="line"/>
      <point x="281" y="108" type="line"/>
      <point x="555" y="577" type="line"/>
      <point x="949" y="577" type="line"/>
      <point x="949" y="108" type="line"/>
      <point x="798" y="85" type="line"/>
      <point x="798" y="0" type="line"/>
      <point x="1779" y="0" type="line"/>
      <point x="1809" y="297" type="line"/>
      <point x="1737" y="297" type="line"/>
      <point x="1663" y="120" type="line"/>
      <point x="1135" y="120" type="line"/>
      <point x="1135" y="723" type="line" name="hr02"/>
      <point x="1492" y="723" type="line"/>
      <point x="1522" y="618" type="line"/>
      <point x="1593" y="618" type="line"/>
      <point x="1593" y="949" type="line"/>
      <point x="1522" y="949" type="line"/>
      <point x="1492" y="843" type="line"/>
      <point x="1135" y="843" type="line"/>
      <point x="1135" y="1387" type="line"/>
      <point x="1647" y="1387" type="line"/>
      <point x="1701" y="1211" type="line"/>
      <point x="1786" y="1211" type="line"/>
    </contour>
    <contour>
      <point x="620" y="695" type="line" name="hr03"/>
      <point x="728" y="881"/>
      <point x="843" y="1074"/>
      <point x="949" y="1260" type="curve"/>
      <point x="949" y="695" type="line"/>
    </contour>
    <contour>
      <point x="1020" y="-170" type="move" name="btm"/>
    </contour>
    <contour>
      <point x="936" y="0" type="move" name="og"/>
    </contour>
    <contour>
      <point x="1020" y="1700" type="move" name="top"/>
    </contour>
  </outline>
</glyph>
<glyph name="Eth" format="1">
  <advance width="1708"/>
  <unicode hex="00D0"/>
  <outline>
    <contour>
      <point x="31" y="719" type="line" name="hr00"/>
      <point x="227" y="719" type="line"/>
      <point x="227" y="108" type="line"/>
      <point x="72" y="85" type="line"/>
      <point x="72" y="0" type="line"/>
      <point x="805" y="0" type="line"/>
      <point x="1187" y="0"/>
      <point x="1552" y="292"/>
      <point x="1552" y="791" type="curve" smooth="yes"/>
      <point x="1552" y="1229"/>
      <point x="1250" y="1508"/>
      <point x="744" y="1508" type="curve"/>
      <point x="72" y="1508" type="line"/>
      <point x="72" y="1423" type="line"/>
      <point x="227" y="1400" type="line"/>
      <point x="227" y="838" type="line"/>
      <point x="56" y="838" type="line"/>
    </contour>
    <contour>
      <point x="739" y="1387" type="line"/>
      <point x="1166" y="1387"/>
      <point x="1359" y="1072"/>
      <point x="1359" y="699" type="curve" smooth="yes"/>
      <point x="1359" y="346"/>
      <point x="1110" y="120"/>
      <point x="803" y="120" type="curve"/>
      <point x="412" y="120" type="line"/>
      <point x="412" y="719" type="line"/>
      <point x="815" y="719" type="line"/>
      <point x="841" y="838" type="line"/>
      <point x="412" y="838" type="line"/>
      <point x="412" y="1387" type="line"/>
    </contour>
  </outline>
</glyph>
<glyph name="multiply" format="1">
  <advance width="1362"/>
  <unicode hex="00D7"/>
  <outline>
    <contour>
      <point x="1023" y="1166" type="line" name="hr00"/>
      <point x="686" y="829" type="line"/>
      <point x="340" y="1175" type="line"/>
      <point x="264" y="1102" type="line"/>
      <point x="610" y="756" type="line"/>
      <point x="257" y="400" type="line"/>
      <point x="332" y="325" type="line"/>
      <point x="686" y="681" type="line"/>
      <point x="1032" y="335" type="line"/>
      <point x="1105" y="409" type="line"/>
      <point x="761" y="756" type="line"/>
      <point x="1098" y="1090" type="line"/>
    </contour>
  </outline>
</glyph>
<glyph name="Oslash" format="1">
  <advance width="1711"/>
  <unicode hex="00D8"/>
  <outline>
    <contour>
      <point x="244" y="-31" type="line" name="hr00"/>
      <point x="321" y="-85" type="line"/>
      <point x="440" y="83" type="line"/>
      <point x="440" y="80" type="line"/>
      <point x="555" y="14"/>
      <point x="699" y="-23"/>
      <point x="863" y="-23" type="curve" smooth="yes"/>
      <point x="1269" y="-23"/>
      <point x="1622" y="292"/>
      <point x="1622" y="791" type="curve" smooth="yes"/>
      <point x="1622" y="1038"/>
      <point x="1526" y="1253"/>
      <point x="1342" y="1382" type="curve"/>
      <point x="1440" y="1526" type="line"/>
      <point x="1361" y="1580" type="line"/>
      <point x="1261" y="1432" type="line"/>
      <point x="1261" y="1434" type="line"/>
      <point x="1146" y="1495"/>
      <point x="1009" y="1531"/>
      <point x="847" y="1531" type="curve" smooth="yes"/>
      <point x="449" y="1531"/>
      <point x="89" y="1222"/>
      <point x="89" y="728" type="curve" smooth="yes"/>
      <point x="89" y="485"/>
      <point x="183" y="271"/>
      <point x="357" y="135" type="curve"/>
    </contour>
    <contour>
      <point x="1429" y="699" type="curve" smooth="yes"/>
      <point x="1429" y="346"/>
      <point x="1191" y="108"/>
      <point x="861" y="108" type="curve" smooth="yes"/>
      <point x="727" y="108"/>
      <point x="616" y="148"/>
      <point x="532" y="214" type="curve"/>
      <point x="1243" y="1241" type="line"/>
      <point x="1368" y="1107"/>
      <point x="1429" y="902"/>
    </contour>
    <contour>
      <point x="285" y="789" type="curve" smooth="yes"/>
      <point x="285" y="1126"/>
      <point x="517" y="1400"/>
      <point x="842" y="1400" type="curve" smooth="yes"/>
      <point x="979" y="1400"/>
      <point x="1085" y="1362"/>
      <point x="1170" y="1303" type="curve"/>
      <point x="458" y="281" type="line"/>
      <point x="346" y="407"/>
      <point x="285" y="596"/>
    </contour>
  </outline>
</glyph>
<glyph name="Thorn" format="1">
  <advance width="1321"/>
  <unicode hex="00DE"/>
  <outline>
    <contour>
      <point x="389" y="490" type="line" name="hr01"/>
      <point x="389" y="1135" type="line"/>
      <point x="622" y="1135" type="line"/>
      <point x="917" y="1135"/>
      <point x="1000" y="1041"/>
      <point x="1000" y="820" type="curve" smooth="yes"/>
      <point x="1000" y="620"/>
      <point x="879" y="490"/>
      <point x="665" y="490" type="curve"/>
    </contour>
    <contour>
      <point x="224" y="108" type="line" name="hr02"/>
      <point x="72" y="85" type="line" name="hr03"/>
      <point x="72" y="0" type="line"/>
      <point x="562" y="0" type="line"/>
      <point x="562" y="85" type="line"/>
      <point x="389" y="108" type="line" name="hr04"/>
      <point x="389" y="373" type="line"/>
      <point x="636" y="373" type="line"/>
      <point x="998" y="373"/>
      <point x="1196" y="539"/>
      <point x="1196" y="848" type="curve" smooth="yes"/>
      <point x="1196" y="1060"/>
      <point x="1107" y="1256"/>
      <point x="645" y="1256" type="curve"/>
      <point x="389" y="1256" type="line"/>
      <point x="389" y="1400" type="line"/>
      <point x="539" y="1423" type="line"/>
      <point x="539" y="1508" type="line"/>
      <point x="72" y="1508" type="line"/>
      <point x="72" y="1423" type="line"/>
      <point x="224" y="1400" type="line"/>
    </contour>
  </outline>
</glyph>
<glyph name="germandbls" format="1">
  <advance width="1196"/>
  <unicode hex="00DF"/>
  <outline>
    <contour>
      <point x="202" y="106" type="line" name="hr01"/>
      <point x="72" y="83" type="line" name="hr02"/>
      <point x="72" y="0" type="line"/>
      <point x="469" y="0" type="line"/>
      <point x="469" y="83" type="line"/>
      <point x="365" y="106" type="line" name="hr03"/>
      <point x="365" y="1239" type="line" smooth="yes"/>
      <point x="365" y="1408"/>
      <point x="475" y="1556"/>
      <point x="609" y="1556" type="curve" smooth="yes"/>
      <point x="758" y="1556"/>
      <point x="863" y="1479"/>
      <point x="863" y="1352" type="curve" smooth="yes"/>
      <point x="863" y="1283"/>
      <point x="825" y="1207"/>
      <point x="698" y="1086" type="curve" smooth="yes"/>
      <point x="621" y="1013"/>
      <point x="536" y="948"/>
      <point x="536" y="796" type="curve" smooth="yes"/>
      <point x="536" y="678"/>
      <point x="585" y="577"/>
      <point x="830" y="438" type="curve" smooth="yes"/>
      <point x="941" y="375"/>
      <point x="997" y="313"/>
      <point x="997" y="224" type="curve" smooth="yes" name="hr04"/>
      <point x="997" y="160"/>
      <point x="934" y="83"/>
      <point x="824" y="83" type="curve" smooth="yes"/>
      <point x="707" y="83"/>
      <point x="657" y="158"/>
      <point x="657" y="243" type="curve"/>
      <point x="605" y="243" type="line"/>
      <point x="582" y="72" type="line" name="hr05"/>
      <point x="582" y="72"/>
      <point x="668" y="-23"/>
      <point x="827" y="-23" type="curve" smooth="yes"/>
      <point x="964" y="-23"/>
      <point x="1166" y="56"/>
      <point x="1166" y="256" type="curve" smooth="yes"/>
      <point x="1166" y="379"/>
      <point x="1094" y="485"/>
      <point x="947" y="573" type="curve" smooth="yes"/>
      <point x="759" y="685"/>
      <point x="689" y="764"/>
      <point x="689" y="845" type="curve" smooth="yes"/>
      <point x="689" y="955"/>
      <point x="725" y="985"/>
      <point x="809" y="1068" type="curve" smooth="yes"/>
      <point x="940" y="1198"/>
      <point x="1016" y="1293"/>
      <point x="1016" y="1402" type="curve" smooth="yes" name="hr06"/>
      <point x="1016" y="1562"/>
      <point x="870" y="1675"/>
      <point x="641" y="1675" type="curve" smooth="yes"/>
      <point x="326" y="1675"/>
      <point x="202" y="1277"/>
      <point x="202" y="1169" type="curve" smooth="yes"/>
      <point x="202" y="989" type="line"/>
      <point x="72" y="959" type="line"/>
      <point x="72" y="876" type="line"/>
      <point x="202" y="876" type="line"/>
    </contour>
  </outline>
</glyph>
<glyph name="ae" format="1">
  <advance width="1702"/>
  <unicode hex="00E6"/>
  <outline>
    <contour>
      <point x="1508" y="229" type="line" name="hr01"/>
      <point x="1508" y="229"/>
      <point x="1391" y="117"/>
      <point x="1242" y="117" type="curve" smooth="yes"/>
      <point x="1028" y="117"/>
      <point x="893" y="271"/>
      <point x="891" y="490" type="curve"/>
      <point x="1518" y="546" type="line"/>
      <point x="1562" y="589" type="line"/>
      <point x="1562" y="874"/>
      <point x="1362" y="1013"/>
      <point x="1200" y="1013" type="curve" smooth="yes"/>
      <point x="962" y="1013"/>
      <point x="870" y="854"/>
      <point x="861" y="838" type="curve"/>
      <point x="861" y="879"/>
      <point x="846" y="1013"/>
      <point x="614" y="1013" type="curve" smooth="yes" name="hr02"/>
      <point x="416" y="1013"/>
      <point x="194" y="857"/>
      <point x="194" y="857" type="curve"/>
      <point x="253" y="770" type="line"/>
      <point x="253" y="770"/>
      <point x="408" y="883"/>
      <point x="580" y="883" type="curve" smooth="yes"/>
      <point x="708" y="883"/>
      <point x="729" y="822"/>
      <point x="729" y="716" type="curve"/>
      <point x="729" y="566" type="line"/>
      <point x="729" y="566"/>
      <point x="455" y="530"/>
      <point x="317" y="490" type="curve" smooth="yes"/>
      <point x="201" y="457"/>
      <point x="140" y="373"/>
      <point x="140" y="236" type="curve" smooth="yes"/>
      <point x="140" y="11"/>
      <point x="326" y="-23"/>
      <point x="406" y="-23" type="curve" smooth="yes"/>
      <point x="616" y="-23"/>
      <point x="760" y="151"/>
      <point x="790" y="191" type="curve"/>
      <point x="870" y="63"/>
      <point x="1021" y="-23"/>
      <point x="1198" y="-23" type="curve" smooth="yes" name="hr03"/>
      <point x="1369" y="-23"/>
      <point x="1562" y="164"/>
      <point x="1562" y="164" type="curve"/>
    </contour>
    <contour>
      <point x="1171" y="895" type="curve" smooth="yes"/>
      <point x="1317" y="895"/>
      <point x="1388" y="784"/>
      <point x="1391" y="634" type="curve"/>
      <point x="895" y="584" type="line"/>
      <point x="901" y="657"/>
      <point x="971" y="895"/>
    </contour>
    <contour>
      <point x="437" y="412" type="curve" smooth="yes"/>
      <point x="569" y="452"/>
      <point x="717" y="476"/>
      <point x="729" y="478" type="curve"/>
      <point x="729" y="276" type="line"/>
      <point x="729" y="195"/>
      <point x="571" y="106"/>
      <point x="439" y="106" type="curve" smooth="yes" name="hr04"/>
      <point x="378" y="106"/>
      <point x="307" y="139"/>
      <point x="307" y="252" type="curve" smooth="yes"/>
      <point x="307" y="310"/>
      <point x="322" y="379"/>
    </contour>
    <contour>
      <point x="851" y="-170" type="move" name="btm"/>
    </contour>
    <contour>
      <point x="851" y="0" type="move" name="og"/>
    </contour>
    <contour>
      <point x="851" y="1700" type="move" name="top"/>
    </contour>
  </outline>
</glyph>
<glyph name="eth" format="1">
  <advance width="1196"/>
  <unicode hex="00F0"/>
  <outline>
    <contour>
      <point x="422" y="1083" type="line" name="hr00"/>
      <point x="633" y="1290" type="line"/>
      <point x="725" y="1182"/>
      <point x="802" y="1063"/>
      <point x="849" y="942" type="curve"/>
      <point x="849" y="942"/>
      <point x="719" y="1013"/>
      <point x="613" y="1013" type="curve" smooth="yes"/>
      <point x="347" y="1013"/>
      <point x="131" y="807"/>
      <point x="131" y="478" type="curve" smooth="yes"/>
      <point x="131" y="195"/>
      <point x="298" y="-23"/>
      <point x="622" y="-23" type="curve" smooth="yes"/>
      <point x="891" y="-23"/>
      <point x="1082" y="189"/>
      <point x="1082" y="519" type="curve" smooth="yes"/>
      <point x="1082" y="813"/>
      <point x="932" y="1142"/>
      <point x="719" y="1378" type="curve"/>
      <point x="917" y="1566" type="line"/>
      <point x="871" y="1647" type="line"/>
      <point x="816" y="1592"/>
      <point x="714" y="1490"/>
      <point x="658" y="1436" type="curve"/>
      <point x="581" y="1515"/>
      <point x="482" y="1594"/>
      <point x="415" y="1634" type="curve"/>
      <point x="359" y="1566" type="line"/>
      <point x="442" y="1490"/>
      <point x="510" y="1425"/>
      <point x="576" y="1357" type="curve"/>
      <point x="375" y="1159" type="line"/>
    </contour>
    <contour>
      <point x="306" y="516" type="curve" smooth="yes"/>
      <point x="306" y="726"/>
      <point x="408" y="895"/>
      <point x="611" y="895" type="curve" smooth="yes"/>
      <point x="887" y="895"/>
      <point x="909" y="674"/>
      <point x="909" y="459" type="curve" smooth="yes"/>
      <point x="909" y="240"/>
      <point x="826" y="94"/>
      <point x="620" y="94" type="curve" smooth="yes"/>
      <point x="420" y="94"/>
      <point x="306" y="297"/>
    </contour>
  </outline>
</glyph>
<glyph name="oslash" format="1">
  <advance width="1194"/>
  <unicode hex="00F8"/>
  <outline>
    <contour>
      <point x="167" y="-31" type="line" name="hr00"/>
      <point x="244" y="-83" type="line"/>
      <point x="332" y="40" type="line"/>
      <point x="405" y="0"/>
      <point x="497" y="-23"/>
      <point x="603" y="-23" type="curve" smooth="yes"/>
      <point x="871" y="-23"/>
      <point x="1104" y="189"/>
      <point x="1104" y="519" type="curve" smooth="yes"/>
      <point x="1104" y="681"/>
      <point x="1046" y="818"/>
      <point x="932" y="906" type="curve"/>
      <point x="1005" y="1009" type="line"/>
      <point x="925" y="1063" type="line"/>
      <point x="853" y="956" type="line"/>
      <point x="779" y="991"/>
      <point x="695" y="1013"/>
      <point x="594" y="1013" type="curve" smooth="yes"/>
      <point x="327" y="1013"/>
      <point x="89" y="807"/>
      <point x="89" y="478" type="curve" smooth="yes"/>
      <point x="89" y="323"/>
      <point x="145" y="186"/>
      <point x="252" y="94" type="curve"/>
    </contour>
    <contour>
      <point x="934" y="459" type="curve" smooth="yes"/>
      <point x="934" y="240"/>
      <point x="805" y="94"/>
      <point x="601" y="94" type="curve" smooth="yes"/>
      <point x="522" y="94"/>
      <point x="455" y="120"/>
      <point x="405" y="158" type="curve"/>
      <point x="841" y="782" type="line"/>
      <point x="895" y="699"/>
      <point x="934" y="568"/>
    </contour>
    <contour>
      <point x="259" y="516" type="curve" smooth="yes"/>
      <point x="259" y="726"/>
      <point x="388" y="895"/>
      <point x="590" y="895" type="curve" smooth="yes"/>
      <point x="669" y="895"/>
      <point x="732" y="872"/>
      <point x="779" y="841" type="curve"/>
      <point x="345" y="216" type="line"/>
      <point x="294" y="294"/>
      <point x="259" y="409"/>
    </contour>
  </outline>
</glyph>
<glyph name="thorn" format="1">
  <advance width="1195"/>
  <unicode hex="00FE"/>
  <outline>
    <contour>
      <point x="365" y="45" type="line" name="hr00"/>
      <point x="365" y="45"/>
      <point x="485" y="-23"/>
      <point x="641" y="-23" type="curve" smooth="yes"/>
      <point x="949" y="-23"/>
      <point x="1130" y="240"/>
      <point x="1130" y="519" type="curve" smooth="yes"/>
      <point x="1130" y="800"/>
      <point x="975" y="1013"/>
      <point x="699" y="1013" type="curve" smooth="yes"/>
      <point x="542" y="1013"/>
      <point x="365" y="883"/>
      <point x="365" y="883" type="curve"/>
      <point x="365" y="1663" type="line"/>
      <point x="72" y="1589" type="line"/>
      <point x="72" y="1508" type="line"/>
      <point x="202" y="1483" type="line"/>
      <point x="202" y="-454" type="line"/>
      <point x="72" y="-477" type="line"/>
      <point x="72" y="-560" type="line"/>
      <point x="492" y="-560" type="line"/>
      <point x="492" y="-477" type="line"/>
      <point x="365" y="-454" type="line"/>
    </contour>
    <contour>
      <point x="365" y="780" type="line"/>
      <point x="365" y="780"/>
      <point x="501" y="883"/>
      <point x="657" y="883" type="curve" smooth="yes"/>
      <point x="865" y="883"/>
      <point x="956" y="704"/>
      <point x="956" y="497" type="curve" smooth="yes"/>
      <point x="956" y="266"/>
      <point x="838" y="94"/>
      <point x="638" y="94" type="curve" smooth="yes"/>
      <point x="440" y="94"/>
      <point x="373" y="198"/>
      <point x="365" y="209" type="curve"/>
    </contour>
  </outline>
</glyph>
<glyph name="Aogonek" format="1">
  <advance width="1537"/>
  <unicode hex="0104"/>
  <outline>
    <contour>
      <point x="1248" y="10" type="curve" name="hr00"/>
      <point x="1203" y="-6"/>
      <point x="1115" y="-121"/>
      <point x="1115" y="-235" type="curve" smooth="yes"/>
      <point x="1115" y="-372"/>
      <point x="1226" y="-436"/>
      <point x="1346" y="-436" type="curve" smooth="yes"/>
      <point x="1445" y="-436"/>
      <point x="1491" y="-396"/>
      <point x="1491" y="-396" type="curve"/>
      <point x="1452" y="-239" type="line"/>
      <point x="1411" y="-239" type="line"/>
      <point x="1411" y="-263"/>
      <point x="1383" y="-301"/>
      <point x="1335" y="-301" type="curve" smooth="yes"/>
      <point x="1285" y="-301"/>
      <point x="1261" y="-261"/>
      <point x="1261" y="-203" type="curve" smooth="yes"/>
      <point x="1261" y="-120"/>
      <point x="1310" y="-1"/>
      <point x="1399" y="91" type="curve"/>
      <point x="1336" y="65"/>
      <point x="1258" y="40"/>
    </contour>
    <component base="A"/>
  </outline>
</glyph>
<glyph name="aogonek" format="1">
  <advance width="1025"/>
  <unicode hex="0105"/>
  <outline>
    <contour>
      <point x="802" y="10" type="curve" name="hr00"/>
      <point x="757" y="-6"/>
      <point x="669" y="-121"/>
      <point x="669" y="-235" type="curve" smooth="yes"/>
      <point x="669" y="-372"/>
      <point x="780" y="-436"/>
      <point x="900" y="-436" type="curve" smooth="yes"/>
      <point x="999" y="-436"/>
      <point x="1045" y="-396"/>
      <point x="1045" y="-396" type="curve"/>
      <point x="1006" y="-239" type="line"/>
      <point x="965" y="-239" type="line"/>
      <point x="965" y="-263"/>
      <point x="937" y="-301"/>
      <point x="889" y="-301" type="curve" smooth="yes"/>
      <point x="837" y="-301"/>
      <point x="810" y="-264"/>
      <point x="810" y="-206" type="curve" smooth="yes"/>
      <point x="810" y="-130"/>
      <point x="857" y="-18"/>
      <point x="953" y="91" type="curve"/>
      <point x="890" y="65"/>
      <point x="812" y="40"/>
    </contour>
    <component base="a"/>
  </outline>
</glyph>
<glyph name="dcaron" format="1">
  <advance width="1537"/>
  <unicode hex="010F"/>
  <outline>
    <contour>
      <point x="1286" y="1267" type="curve" smooth="yes" name="hr00"/>
      <point x="1286" y="1102"/>
      <point x="1169" y="1022"/>
      <point x="1169" y="1022" type="curve"/>
      <point x="1200" y="968" type="line"/>
      <point x="1200" y="968"/>
      <point x="1427" y="1081"/>
      <point x="1427" y="1404" type="curve" smooth="yes"/>
      <point x="1427" y="1458"/>
      <point x="1374" y="1533"/>
      <point x="1322" y="1533" type="curve" smooth="yes"/>
      <point x="1259" y="1533"/>
      <point x="1190" y="1443"/>
      <point x="1190" y="1404" type="curve" smooth="yes"/>
      <point x="1190" y="1342"/>
      <point x="1286" y="1340"/>
    </contour>
    <component base="d"/>
  </outline>
</glyph>
<glyph name="dcroat" format="1">
  <advance width="1196"/>
  <unicode hex="0111"/>
  <outline>
    <contour>
      <point x="593" y="1222" type="line" name="hr00"/>
      <point x="1132" y="1222" type="line"/>
      <point x="1132" y="1335" type="line"/>
      <point x="593" y="1335" type="line"/>
    </contour>
    <component base="d"/>
  </outline>
</glyph>
<glyph name="Eogonek" format="1">
  <advance width="1196"/>
  <unicode hex="0118"/>
  <outline>
    <contour>
      <point x="834" y="10" type="line" name="hr00"/>
      <point x="771" y="-13"/>
      <point x="624" y="-228"/>
      <point x="751" y="-365" type="curve"/>
      <point x="819" y="-440"/>
      <point x="888" y="-436"/>
      <point x="932" y="-436" type="curve" smooth="yes"/>
      <point x="1031" y="-436"/>
      <point x="1077" y="-396"/>
      <point x="1077" y="-396" type="curve"/>
      <point x="1038" y="-239" type="line"/>
      <point x="997" y="-239" type="line"/>
      <point x="997" y="-263"/>
      <point x="969" y="-301"/>
      <point x="921" y="-301" type="curve" smooth="yes"/>
      <point x="814" y="-301"/>
      <point x="845" y="-72"/>
      <point x="944" y="50" type="curve"/>
    </contour>
    <component base="E"/>
  </outline>
</glyph>
<glyph name="eogonek" format="1">
  <advance width="1025"/>
  <unicode hex="0119"/>
  <outline>
    <contour>
      <point x="676" y="10" type="curve" name="hr00"/>
      <point x="631" y="-6"/>
      <point x="543" y="-121"/>
      <point x="543" y="-235" type="curve" smooth="yes"/>
      <point x="543" y="-372"/>
      <point x="664" y="-436"/>
      <point x="774" y="-436" type="curve" smooth="yes"/>
      <point x="873" y="-436"/>
      <point x="919" y="-396"/>
      <point x="919" y="-396" type="curve"/>
      <point x="880" y="-239" type="line"/>
      <point x="839" y="-239" type="line"/>
      <point x="839" y="-263"/>
      <point x="811" y="-301"/>
      <point x="763" y="-301" type="curve" smooth="yes"/>
      <point x="712" y="-301"/>
      <point x="686" y="-259"/>
      <point x="686" y="-198" type="curve" smooth="yes"/>
      <point x="686" y="-116"/>
      <point x="733" y="1"/>
      <point x="827" y="91" type="curve"/>
      <point x="764" y="65"/>
      <point x="686" y="40"/>
    </contour>
    <component base="e"/>
  </outline>
</glyph>
<glyph name="Hbar" format="1">
  <advance width="1705"/>
  <unicode hex="0126"/>
  <outline>
    <contour>
      <point x="58" y="884" type="line" name="hr01"/>
      <point x="1625" y="884" type="line"/>
      <point x="1653" y="1014" type="line"/>
      <point x="85" y="1013" type="line"/>
    </contour>
    <contour>
      <point x="98" y="1423" type="line"/>
      <point x="250" y="1400" type="line"/>
      <point x="250" y="108" type="line" name="hr02"/>
      <point x="98" y="85" type="line" name="hr03"/>
      <point x="98" y="0" type="line"/>
      <point x="588" y="0" type="line"/>
      <point x="588" y="85" type="line"/>
      <point x="435" y="108" type="line" name="hr04"/>
      <point x="435" y="535" type="line"/>
      <point x="1270" y="535" type="line"/>
      <point x="1270" y="108" type="line"/>
      <point x="1118" y="85" type="line" name="hr05"/>
      <point x="1118" y="0" type="line"/>
      <point x="1608" y="0" type="line"/>
      <point x="1608" y="85" type="line"/>
      <point x="1457" y="108" type="line" name="hr06"/>
      <point x="1457" y="1400" type="line"/>
      <point x="1608" y="1423" type="line"/>
      <point x="1608" y="1508" type="line"/>
      <point x="1118" y="1508" type="line"/>
      <point x="1118" y="1423" type="line"/>
      <point x="1270" y="1400" type="line"/>
      <point x="1270" y="655" type="line"/>
      <point x="435" y="655" type="line"/>
      <point x="435" y="1400" type="line"/>
      <point x="588" y="1423" type="line"/>
      <point x="588" y="1508" type="line"/>
      <point x="98" y="1508" type="line"/>
    </contour>
  </outline>
</glyph>
<glyph name="hbar" format="1">
  <advance width="1196"/>
  <unicode hex="0127"/>
  <outline>
    <contour>
      <point x="65" y="1220" type="line" name="hr00"/>
      <point x="575" y="1220" type="line"/>
      <point x="575" y="1333" type="line"/>
      <point x="65" y="1333" type="line"/>
    </contour>
    <component base="h"/>
  </outline>
</glyph>
<glyph name="Iogonek" format="1">
  <advance width="682"/>
  <unicode hex="012E"/>
  <outline>
    <contour>
      <point x="343" y="10" type="curve" name="hr00"/>
      <point x="298" y="-6"/>
      <point x="210" y="-121"/>
      <point x="210" y="-235" type="curve" smooth="yes"/>
      <point x="210" y="-372"/>
      <point x="321" y="-436"/>
      <point x="441" y="-436" type="curve" smooth="yes"/>
      <point x="540" y="-436"/>
      <point x="586" y="-396"/>
      <point x="586" y="-396" type="curve"/>
      <point x="547" y="-239" type="line"/>
      <point x="506" y="-239" type="line"/>
      <point x="506" y="-263"/>
      <point x="478" y="-301"/>
      <point x="430" y="-301" type="curve" smooth="yes"/>
      <point x="383" y="-301"/>
      <point x="363" y="-258"/>
      <point x="363" y="-199" type="curve" smooth="yes"/>
      <point x="363" y="-105"/>
      <point x="415" y="29"/>
      <point x="494" y="91" type="curve"/>
      <point x="431" y="65"/>
      <point x="353" y="40"/>
    </contour>
    <component base="I"/>
  </outline>
</glyph>
<glyph name="iogonek" format="1">
  <advance width="513"/>
  <unicode hex="012F"/>
  <outline>
    <contour>
      <point x="247" y="10" type="curve" name="hr00"/>
      <point x="202" y="-6"/>
      <point x="114" y="-121"/>
      <point x="114" y="-235" type="curve" smooth="yes"/>
      <point x="114" y="-372"/>
      <point x="225" y="-436"/>
      <point x="345" y="-436" type="curve" smooth="yes"/>
      <point x="444" y="-436"/>
      <point x="490" y="-396"/>
      <point x="490" y="-396" type="curve"/>
      <point x="451" y="-239" type="line"/>
      <point x="410" y="-239" type="line"/>
      <point x="410" y="-263"/>
      <point x="382" y="-301"/>
      <point x="334" y="-301" type="curve" smooth="yes"/>
      <point x="287" y="-301"/>
      <point x="267" y="-258"/>
      <point x="267" y="-199" type="curve" smooth="yes"/>
      <point x="267" y="-105"/>
      <point x="319" y="29"/>
      <point x="398" y="91" type="curve"/>
      <point x="335" y="65"/>
      <point x="257" y="40"/>
    </contour>
    <component base="i"/>
  </outline>
</glyph>
<glyph name="idotless" format="1">
  <advance width="513"/>
  <unicode hex="0131"/>
  <outline>
    <contour>
      <point x="342" y="1013" type="line" name="hr01"/>
      <point x="50" y="940" type="line"/>
      <point x="50" y="857" type="line"/>
      <point x="180" y="834" type="line"/>
      <point x="180" y="106" type="line" name="hr02"/>
      <point x="50" y="83" type="line" name="hr03"/>
      <point x="50" y="0" type="line"/>
      <point x="470" y="0" type="line"/>
      <point x="470" y="83" type="line"/>
      <point x="342" y="106" type="line" name="hr04"/>
    </contour>
    <contour>
      <point x="280" y="-170" type="move" name="btm"/>
    </contour>
    <contour>
      <point x="280" y="0" type="move" name="og"/>
    </contour>
    <contour>
      <point x="280" y="1700" type="move" name="top"/>
    </contour>
  </outline>
</glyph>
<glyph name="kgreenlandic" format="1">
  <advance width="1193"/>
  <unicode hex="0138"/>
  <outline>
    <contour>
      <point x="365" y="989" type="line" name="hr00"/>
      <point x="72" y="917" type="line"/>
      <point x="72" y="834" type="line"/>
      <point x="202" y="811" type="line"/>
      <point x="202" y="106" type="line"/>
      <point x="72" y="83" type="line"/>
      <point x="72" y="0" type="line"/>
      <point x="492" y="0" type="line"/>
      <point x="492" y="83" type="line"/>
      <point x="365" y="106" type="line"/>
    </contour>
    <contour>
      <point x="373" y="485" type="line"/>
      <point x="845" y="0" type="line"/>
      <point x="1126" y="0" type="line"/>
      <point x="1126" y="83" type="line"/>
      <point x="1018" y="99" type="line"/>
      <point x="953" y="132" type="line"/>
      <point x="553" y="511" type="line"/>
      <point x="956" y="883" type="line"/>
      <point x="1112" y="906" type="line"/>
      <point x="1112" y="989" type="line"/>
      <point x="711" y="989" type="line"/>
      <point x="711" y="906" type="line"/>
      <point x="800" y="885" type="line"/>
    </contour>
  </outline>
</glyph>
<glyph name="lacute" format="1">
  <advance width="513"/>
  <unicode hex="013A"/>
  <outline>
    <contour>
      <point x="362" y="1530" type="line" name="hr01"/>
      <point x="70" y="1456" type="line"/>
      <point x="70" y="1375" type="line"/>
      <point x="200" y="1350" type="line"/>
      <point x="200" y="106" type="line" name="hr02"/>
      <point x="70" y="83" type="line" name="hr03"/>
      <point x="70" y="0" type="line"/>
      <point x="490" y="0" type="line"/>
      <point x="490" y="83" type="line"/>
      <point x="362" y="106" type="line" name="hr04"/>
    </contour>
    <component base="acute" xOffset="-40" yOffset="398"/>
  </outline>
</glyph>
<glyph name="Lcaron" format="1">
  <advance width="1194"/>
  <unicode hex="013D"/>
  <outline>
    <contour>
      <point x="862" y="1267" type="curve" smooth="yes" name="hr00"/>
      <point x="862" y="1102"/>
      <point x="745" y="1022"/>
      <point x="745" y="1022" type="curve"/>
      <point x="776" y="968" type="line"/>
      <point x="776" y="968"/>
      <point x="1003" y="1081"/>
      <point x="1003" y="1404" type="curve" smooth="yes"/>
      <point x="1003" y="1458"/>
      <point x="950" y="1533"/>
      <point x="898" y="1533" type="curve" smooth="yes"/>
      <point x="835" y="1533"/>
      <point x="766" y="1443"/>
      <point x="766" y="1404" type="curve" smooth="yes"/>
      <point x="766" y="1342"/>
      <point x="862" y="1340"/>
    </contour>
    <component base="L"/>
  </outline>
</glyph>
<glyph name="lcaron" format="1">
  <advance width="856"/>
  <unicode hex="013E"/>
  <outline>
    <contour>
      <point x="626" y="1267" type="curve" smooth="yes" name="hr00"/>
      <point x="626" y="1102"/>
      <point x="509" y="1022"/>
      <point x="509" y="1022" type="curve"/>
      <point x="540" y="968" type="line"/>
      <point x="540" y="968"/>
      <point x="767" y="1081"/>
      <point x="767" y="1404" type="curve" smooth="yes"/>
      <point x="767" y="1458"/>
      <point x="714" y="1533"/>
      <point x="662" y="1533" type="curve" smooth="yes"/>
      <point x="599" y="1533"/>
      <point x="530" y="1443"/>
      <point x="530" y="1404" type="curve" smooth="yes"/>
      <point x="530" y="1342"/>
      <point x="626" y="1340"/>
    </contour>
    <component base="l"/>
  </outline>
</glyph>
<glyph name="Lslash" format="1">
  <advance width="1194"/>
  <unicode hex="0141"/>
  <outline>
    <contour>
      <point x="29" y="622" type="line" name="hr00"/>
      <point x="714" y="807" type="line"/>
      <point x="685" y="921" type="line"/>
      <point x="-5" y="737" type="line"/>
    </contour>
    <contour>
      <point x="72" y="1508" type="line"/>
      <point x="72" y="1423" type="line"/>
      <point x="224" y="1400" type="line"/>
      <point x="224" y="108" type="line"/>
      <point x="72" y="85" type="line"/>
      <point x="72" y="0" type="line"/>
      <point x="1062" y="0" type="line"/>
      <point x="1071" y="344" type="line"/>
      <point x="989" y="344" type="line"/>
      <point x="930" y="120" type="line"/>
      <point x="412" y="120" type="line"/>
      <point x="412" y="1400" type="line"/>
      <point x="562" y="1423" type="line"/>
      <point x="562" y="1508" type="line"/>
    </contour>
  </outline>
</glyph>
<glyph name="lslash" format="1">
  <advance width="513"/>
  <unicode hex="0142"/>
  <outline>
    <contour>
      <point x="362" y="838" type="line" name="hr01"/>
      <point x="541" y="885" type="line"/>
      <point x="513" y="999" type="line"/>
      <point x="362" y="960" type="line"/>
      <point x="362" y="1663" type="line"/>
      <point x="70" y="1589" type="line"/>
      <point x="70" y="1508" type="line"/>
      <point x="200" y="1483" type="line"/>
      <point x="200" y="915" type="line"/>
      <point x="16" y="868" type="line"/>
      <point x="48" y="751" type="line"/>
      <point x="200" y="793" type="line"/>
      <point x="200" y="106" type="line" name="hr02"/>
      <point x="70" y="83" type="line" name="hr03"/>
      <point x="70" y="0" type="line"/>
      <point x="490" y="0" type="line"/>
      <point x="490" y="83" type="line"/>
      <point x="362" y="106" type="line" name="hr04"/>
    </contour>
  </outline>
</glyph>
